{
.appVersion = "1075";
DisplayStrings = (
"d/_bowl.b bp/_bowl.d qg\012nmu\012ca",
":;"
);
classes = (
{
automatic = 1;

glyphs = (
{
glyphname = A;
layers = (
{
anchors = (
{
name = bottom;
position = "{350, 0}";
},
{
name = ogonek;
position = "{636, 10}";
},
{
name = top;
position = "{350, 694}";
}
);
layerId = "F333AEC5-BB61-4D5E-9EDD-6124322D28F2";
paths = (
{
closed = 1;
nodes = (
"130 0 LINE",
"357 636 LINE",
"348 636 LINE",
"562 0 LINE",
"655 0 LINE",
"411 694 LINE",
"303 694 LINE",
"43 0 LINE"
);
},
{
closed = 1;
nodes = (
"521 206 LINE",
"521 278 LINE",
"174 278 LINE",
"174 206 LINE"
);
}
);
width = 699;
},
{
anchors = (
{
name = bottom;
position = "{362, 0}";
},
{
name = ogonek;
position = "{660, 10}";
},
{
name = top;
position = "{362, 694}";
}
);
layerId = "51C2DFEF-3776-4D13-9284-96485B799B57";
paths = (
{
closed = 1;
nodes = (
"195 0 LINE",
"393 590 LINE",
"321 590 LINE",
"528 0 LINE",
"711 0 LINE",
"453 694 LINE",
"271 694 LINE",
"14 0 LINE"
);
},
{
closed = 1;
nodes = (
"521 152 LINE",
"485 308 LINE",
"238 308 LINE",
"203 152 LINE"
);
}
);
width = 725;
},
{
anchors = (
{
name = bottom;
position = "{339, 0}";
},
{
name = ogonek;
position = "{598, 10}";
},
{
name = top;
position = "{342, 694}";
}
);
layerId = "0B2E441B-685E-400D-9B9B-E078DEED62EF";
paths = (
{
closed = 1;
nodes = (
"87 0 LINE",
"342 676 LINE",
"338 676 LINE",
"576 0 LINE",
"600 0 LINE",
"353 694 LINE",
"330 694 LINE",
"65 0 LINE"
);
},
{
closed = 1;
nodes = (
"502 243 LINE",
"496 262 LINE",
"176 262 LINE",
"171 243 LINE"
);
}
);
width = 666;
}
);
note = A;
unicode = 0041;
},
{
glyphname = B;
layers = (
{
anchors = (
{
name = bottom;
position = "{328, 0}";
},
{
name = top;
position = "{328, 694}";
}
);
layerId = "F333AEC5-BB61-4D5E-9EDD-6124322D28F2";
paths = (
{
closed = 1;
nodes = (
"348 0 LINE SMOOTH",
"508 0 OFFCURVE",
"602 74 OFFCURVE",
"602 201 CURVE SMOOTH",
"602 322 OFFCURVE",
"518 396 OFFCURVE",
"381 396 CURVE SMOOTH",
"155 396 LINE",
"155 327 LINE",
"372 327 LINE SMOOTH",
"466 327 OFFCURVE",
"517 278 OFFCURVE",
"517 190 CURVE SMOOTH",
"517 106 OFFCURVE",
"470 71 OFFCURVE",
"358 71 CURVE SMOOTH",
"189 71 LINE",
"189 623 LINE",
"307 623 LINE SMOOTH",
"413 623 OFFCURVE",
"465 584 OFFCURVE",
"465 505 CURVE SMOOTH",
"465 444 OFFCURVE",
"431 409 OFFCURVE",
"339 375 CURVE",
"459 375 LINE",
"515 399 OFFCURVE",
"550 457 OFFCURVE",
"550 524 CURVE SMOOTH",
"550 631 OFFCURVE",
"463 694 OFFCURVE",
"317 694 CURVE SMOOTH",
"106 694 LINE",
"106 0 LINE"
);
}
);
width = 662;
},
{
anchors = (
{
name = bottom;
position = "{328, 0}";
},
{
name = top;
position = "{328, 694}";
}
);
layerId = "51C2DFEF-3776-4D13-9284-96485B799B57";
paths = (
{
closed = 1;
nodes = (
"363 0 LINE SMOOTH",
"537 0 OFFCURVE",
"640 81 OFFCURVE",
"640 218 CURVE SMOOTH",
"640 344 OFFCURVE",
"553 418 OFFCURVE",
"404 418 CURVE SMOOTH",
"190 418 LINE",
"190 283 LINE",
"366 283 LINE SMOOTH",
"422 283 OFFCURVE",
"460 252 OFFCURVE",
"460 207 CURVE SMOOTH",
"460 163 OFFCURVE",
"424 136 OFFCURVE",
"366 136 CURVE SMOOTH",
"247 136 LINE",
"247 558 LINE",
"325 558 LINE SMOOTH",
"379 558 OFFCURVE",
"411 532 OFFCURVE",
"411 488 CURVE SMOOTH",
"411 453 OFFCURVE",
"390 422 OFFCURVE",
"354 401 CURVE",
"495 371 LINE",
"556 423 OFFCURVE",
"585 474 OFFCURVE",
"585 531 CURVE SMOOTH",
"585 634 OFFCURVE",
"489 694 OFFCURVE",
"325 694 CURVE SMOOTH",
"77 694 LINE",
"77 0 LINE"
);
}
);
width = 670;
},
{
anchors = (
{
name = bottom;
position = "{284, 0}";
},
{
name = top;
position = "{284, 694}";
}
);
layerId = "0B2E441B-685E-400D-9B9B-E078DEED62EF";
paths = (
{
closed = 1;
nodes = (
"336 0 LINE SMOOTH",
"485 0 OFFCURVE",
"570 68 OFFCURVE",
"570 187 CURVE SMOOTH",
"570 299 OFFCURVE",
"492 371 OFFCURVE",
"370 371 CURVE SMOOTH",
"141 371 LINE",
"141 354 LINE",
"360 354 LINE SMOOTH",
"477 354 OFFCURVE",
"549 289 OFFCURVE",
"549 184 CURVE SMOOTH",
"549 79 OFFCURVE",
"475 18 OFFCURVE",
"347 18 CURVE SMOOTH",
"147 18 LINE",
"147 676 LINE",
"303 676 LINE SMOOTH",
"430 676 OFFCURVE",
"502 621 OFFCURVE",
"502 525 CURVE SMOOTH",
"502 446 OFFCURVE",
"451 384 OFFCURVE",
"374 367 CURVE",
"400 363 LINE",
"469 373 OFFCURVE",
"523 446 OFFCURVE",
"523 529 CURVE SMOOTH",
"523 634 OFFCURVE",
"443 694 OFFCURVE",
"303 694 CURVE SMOOTH",
"127 694 LINE",
"127 0 LINE"
);
}
);
width = 652;
},
{
anchors = (
{
name = bottom;
position = "{296, 0}";
},
{
name = top;
position = "{296, 694}";
}
);
associatedMasterId = "0B2E441B-685E-400D-9B9B-E078DEED62EF";
layerId = "02F76483-B2BE-466D-9D0F-F50903A7EF04";
name = "Sep 26 17, 20:18";
paths = (
{
closed = 1;
nodes = (
"343 0 LINE SMOOTH",
"502 0 OFFCURVE",
"582 69 OFFCURVE",
"582 187 CURVE SMOOTH",
"582 304 OFFCURVE",
"501 371 OFFCURVE",
"377 371 CURVE SMOOTH",
"150 371 LINE",
"150 353 LINE",
"367 353 LINE SMOOTH",
"487 353 OFFCURVE",
"560 294 OFFCURVE",
"560 185 CURVE SMOOTH",
"560 75 OFFCURVE",
"486 18 OFFCURVE",
"354 18 CURVE SMOOTH",
"156 18 LINE",
"156 676 LINE",
"316 676 LINE SMOOTH",
"442 676 OFFCURVE",
"519 621 OFFCURVE",
"519 522 CURVE SMOOTH",
"519 447 OFFCURVE",
"473 385 OFFCURVE",
"359 367 CURVE",
"385 360 LINE",
"479 369 OFFCURVE",
"541 437 OFFCURVE",
"541 526 CURVE SMOOTH",
"541 633 OFFCURVE",
"454 694 OFFCURVE",
"316 694 CURVE SMOOTH",
"136 694 LINE",
"136 0 LINE"
);
}
);
width = 672;
}
);
note = B;
unicode = 0042;
},
{
glyphname = C;
layers = (
{
anchors = (
{
name = bottom;
position = "{380, 0}";
},
{
name = top;
position = "{380, 694}";
}
);
layerId = "F333AEC5-BB61-4D5E-9EDD-6124322D28F2";
paths = (
{
closed = 1;
nodes = (
"476 -10 OFFCURVE",
"546 5 OFFCURVE",
"612 34 CURVE",
"593 95 LINE",
"543 75 OFFCURVE",
"481 63 OFFCURVE",
"428 63 CURVE SMOOTH",
"262 63 OFFCURVE",
"152 181 OFFCURVE",
"152 358 CURVE SMOOTH",
"152 527 OFFCURVE",
"253 630 OFFCURVE",
"420 630 CURVE SMOOTH",
"477 630 OFFCURVE",
"540 618 OFFCURVE",
"592 597 CURVE",
"616 662 LINE",
"566 687 OFFCURVE",
"494 703 OFFCURVE",
"425 703 CURVE SMOOTH",
"210 703 OFFCURVE",
"67 557 OFFCURVE",
"67 339 CURVE SMOOTH",
"67 130 OFFCURVE",
"204 -10 OFFCURVE",
"409 -10 CURVE SMOOTH"
);
}
);
width = 669;
},
{
anchors = (
{
name = bottom;
position = "{364, 0}";
},
{
name = top;
position = "{364, 694}";
}
);
layerId = "51C2DFEF-3776-4D13-9284-96485B799B57";
paths = (
{
closed = 1;
nodes = (
"477 -10 OFFCURVE",
"559 6 OFFCURVE",
"620 32 CURVE",
"581 163 LINE",
"538 149 OFFCURVE",
"486 140 OFFCURVE",
"441 140 CURVE SMOOTH",
"303 140 OFFCURVE",
"217 223 OFFCURVE",
"217 359 CURVE SMOOTH",
"217 483 OFFCURVE",
"289 554 OFFCURVE",
"418 554 CURVE SMOOTH",
"469 554 OFFCURVE",
"529 543 OFFCURVE",
"580 525 CURVE",
"626 665 LINE",
"564 691 OFFCURVE",
"498 704 OFFCURVE",
"428 704 CURVE SMOOTH",
"194 704 OFFCURVE",
"37 559 OFFCURVE",
"37 337 CURVE SMOOTH",
"37 126 OFFCURVE",
"179 -10 OFFCURVE",
"401 -10 CURVE SMOOTH"
);
}
);
width = 655;
},
{
anchors = (
{
name = bottom;
position = "{373, 0}";
},
{
name = top;
position = "{373, 694}";
}
);
layerId = "0B2E441B-685E-400D-9B9B-E078DEED62EF";
paths = (
{
closed = 1;
nodes = (
"472 -10 OFFCURVE",
"545 6 OFFCURVE",
"605 33 CURVE",
"600 49 LINE",
"541 24 OFFCURVE",
"471 9 OFFCURVE",
"412 9 CURVE SMOOTH",
"232 9 OFFCURVE",
"111 145 OFFCURVE",
"111 348 CURVE SMOOTH",
"111 549 OFFCURVE",
"235 683 OFFCURVE",
"422 683 CURVE SMOOTH",
"481 683 OFFCURVE",
"542 670 OFFCURVE",
"599 645 CURVE",
"606 662 LINE",
"549 689 OFFCURVE",
"488 702 OFFCURVE",
"425 702 CURVE SMOOTH",
"223 702 OFFCURVE",
"89 556 OFFCURVE",
"89 338 CURVE SMOOTH",
"89 129 OFFCURVE",
"217 -10 OFFCURVE",
"408 -10 CURVE SMOOTH"
);
}
);
width = 675;
}
);
note = C;
unicode = 0043;
},
{
glyphname = D;
layers = (
{
anchors = (
{
name = bottom;
position = "{336, 0}";
},
{
name = center;
position = "{173, 347}";
},
{
name = top;
position = "{336, 694}";
}
);
layerId = "F333AEC5-BB61-4D5E-9EDD-6124322D28F2";
paths = (
{
closed = 1;
nodes = (
"318 0 LINE SMOOTH",
"533 0 OFFCURVE",
"670 139 OFFCURVE",
"670 356 CURVE SMOOTH",
"670 563 OFFCURVE",
"539 694 OFFCURVE",
"333 694 CURVE SMOOTH",
"106 694 LINE",
"106 0 LINE"
);
},
{
closed = 1;
nodes = (
"189 622 LINE",
"323 622 LINE SMOOTH",
"492 622 OFFCURVE",
"587 523 OFFCURVE",
"587 347 CURVE SMOOTH",
"587 172 OFFCURVE",
"493 72 OFFCURVE",
"328 72 CURVE SMOOTH",
"189 72 LINE"
);
}
);
width = 737;
},
{
anchors = (
{
name = bottom;
position = "{359, 0}";
},
{
name = center;
position = "{184, 344}";
},
{
name = top;
position = "{335, 694}";
}
);
layerId = "51C2DFEF-3776-4D13-9284-96485B799B57";
paths = (
{
closed = 1;
nodes = (
"316 0 LINE SMOOTH",
"547 0 OFFCURVE",
"694 138 OFFCURVE",
"694 356 CURVE SMOOTH",
"694 566 OFFCURVE",
"554 694 OFFCURVE",
"325 694 CURVE SMOOTH",
"77 694 LINE",
"77 0 LINE"
);
},
{
closed = 1;
nodes = (
"247 545 LINE",
"317 545 LINE SMOOTH",
"441 545 OFFCURVE",
"514 472 OFFCURVE",
"514 346 CURVE SMOOTH",
"514 222 OFFCURVE",
"444 149 OFFCURVE",
"323 149 CURVE SMOOTH",
"247 149 LINE"
);
}
);
width = 731;
},
{
anchors = (
{
name = bottom;
position = "{352, 0}";
},
{
name = center;
position = "{189, 364}";
},
{
name = top;
position = "{343, 694}";
}
);
layerId = "0B2E441B-685E-400D-9B9B-E078DEED62EF";
paths = (
{
closed = 1;
nodes = (
"287 0 LINE SMOOTH",
"504 0 OFFCURVE",
"628 127 OFFCURVE",
"628 351 CURVE SMOOTH",
"628 571 OFFCURVE",
"508 694 OFFCURVE",
"293 694 CURVE SMOOTH",
"127 694 LINE",
"127 0 LINE"
);
},
{
closed = 1;
nodes = (
"149 676 LINE",
"287 676 LINE SMOOTH",
"492 676 OFFCURVE",
"606 559 OFFCURVE",
"606 348 CURVE SMOOTH",
"606 137 OFFCURVE",
"494 18 OFFCURVE",
"293 18 CURVE SMOOTH",
"149 18 LINE"
);
}
);
width = 718;
}
);
note = D;
unicode = 0044;
},
{
glyphname = E;
layers = (
{
anchors = (
{
name = "#entry";
position = "{146, 291}";
},
{
name = bottom;
position = "{315, 0}";
},
{
name = ogonek;
position = "{524, 10}";
},
{
name = top;
position = "{335, 694}";
},
{
name = topleft;
position = "{17, 694}";
}
);
layerId = "F333AEC5-BB61-4D5E-9EDD-6124322D28F2";
paths = (
{
closed = 1;
nodes = (
"189 0 LINE",
"189 694 LINE",
"106 694 LINE",
"106 0 LINE"
);
},
{
closed = 1;
nodes = (
"542 0 LINE",
"542 72 LINE",
"146 72 LINE",
"146 0 LINE"
);
},
{
closed = 1;
nodes = (
"515 323 LINE",
"515 395 LINE",
"146 395 LINE",
"146 323 LINE"
);
},
{
closed = 1;
nodes = (
"542 622 LINE",
"542 694 LINE",
"146 694 LINE",
"146 622 LINE"
);
}
);
width = 605;
},
{
anchors = (
{
name = "#entry";
position = "{157, 291}";
},
{
name = bottom;
position = "{330, 0}";
},
{
name = ogonek;
position = "{513, 10}";
},
{
name = top;
position = "{323, 694}";
},
{
name = topleft;
position = "{25, 694}";
}
);
layerId = "51C2DFEF-3776-4D13-9284-96485B799B57";
paths = (
{
closed = 1;
nodes = (
"250 0 LINE",
"250 694 LINE",
"77 694 LINE",
"77 0 LINE"
);
},
{
closed = 1;
nodes = (
"563 0 LINE",
"563 152 LINE",
"157 152 LINE",
"157 0 LINE"
);
},
{
closed = 1;
nodes = (
"535 278 LINE",
"535 430 LINE",
"157 430 LINE",
"157 278 LINE"
);
},
{
closed = 1;
nodes = (
"563 542 LINE",
"563 694 LINE",
"157 694 LINE",
"157 542 LINE"
);
}
);
width = 619;
},
{
anchors = (
{
name = "#entry";
position = "{136, 291}";
},
{
name = bottom;
position = "{321, 0}";
},
{
name = ogonek;
position = "{512, 10}";
},
{
name = top;
position = "{320, 694}";
},
{
name = topleft;
position = "{10, 694}";
}
);
layerId = "0B2E441B-685E-400D-9B9B-E078DEED62EF";
paths = (
{
closed = 1;
nodes = (
"148 0 LINE",
"148 694 LINE",
"127 694 LINE",
"127 0 LINE"
);
},
{
closed = 1;
nodes = (
"514 0 LINE",
"514 18 LINE",
"136 18 LINE",
"136 0 LINE"
);
},
{
closed = 1;
nodes = (
"489 351 LINE",
"489 369 LINE",
"136 369 LINE",
"136 351 LINE"
);
},
{
closed = 1;
nodes = (
"514 676 LINE",
"514 694 LINE",
"136 694 LINE",
"136 676 LINE"
);
}
);
width = 583;
}
);
note = E;
unicode = 0045;
},
{
glyphname = F;
layers = (
{
anchors = (
{
name = bottom;
position = "{273, 0}";
},
{
name = top;
position = "{273, 694}";
}
);
layerId = "F333AEC5-BB61-4D5E-9EDD-6124322D28F2";
paths = (
{
closed = 1;
nodes = (
"189 0 LINE",
"189 694 LINE",
"106 694 LINE",
"106 0 LINE"
);
},
{
closed = 1;
nodes = (
"508 322 LINE",
"508 394 LINE",
"138 394 LINE",
"138 322 LINE"
);
},
{
closed = 1;
nodes = (
"537 622 LINE",
"537 694 LINE",
"138 694 LINE",
"138 622 LINE"
);
}
);
width = 588;
},
{
anchors = (
{
name = bottom;
position = "{181, 0}";
},
{
name = top;
position = "{288, 694}";
}
);
layerId = "51C2DFEF-3776-4D13-9284-96485B799B57";
paths = (
{
closed = 1;
nodes = (
"253 0 LINE",
"253 694 LINE",
"77 694 LINE",
"77 0 LINE"
);
},
{
closed = 1;
nodes = (
"530 264 LINE",
"530 416 LINE",
"157 416 LINE",
"157 264 LINE"
);
},
{
closed = 1;
nodes = (
"558 542 LINE",
"558 694 LINE",
"157 694 LINE",
"157 542 LINE"
);
}
);
width = 594;
},
{
anchors = (
{
name = bottom;
position = "{287, 0}";
},
{
name = top;
position = "{287, 694}";
}
);
layerId = "0B2E441B-685E-400D-9B9B-E078DEED62EF";
paths = (
{
closed = 1;
nodes = (
"149 0 LINE",
"149 694 LINE",
"127 694 LINE",
"127 0 LINE"
);
},
{
closed = 1;
nodes = (
"480 351 LINE",
"480 369 LINE",
"136 369 LINE",
"136 351 LINE"
);
},
{
closed = 1;
nodes = (
"504 676 LINE",
"504 694 LINE",
"136 694 LINE",
"136 676 LINE"
);
}
);
width = 568;
}
);
note = F;
unicode = 0046;
},
{
glyphname = G;
layers = (
{
anchors = (
{
name = bottom;
position = "{406, 0}";
},
{
name = top;
position = "{406, 694}";
}
);
layerId = "F333AEC5-BB61-4D5E-9EDD-6124322D28F2";
paths = (
{
closed = 1;
nodes = (
"511 -9 OFFCURVE",
"598 19 OFFCURVE",
"668 74 CURVE",
"668 368 LINE",
"388 368 LINE",
"388 296 LINE",
"585 296 LINE",
"585 102 LINE",
"536 77 OFFCURVE",
"482 64 OFFCURVE",
"427 64 CURVE SMOOTH",
"260 64 OFFCURVE",
"152 179 OFFCURVE",
"152 357 CURVE SMOOTH",
"152 530 OFFCURVE",
"251 630 OFFCURVE",
"420 630 CURVE SMOOTH",
"484 630 OFFCURVE",
"554 615 OFFCURVE",
"617 589 CURVE",
"641 657 LINE",
"580 687 OFFCURVE",
"507 703 OFFCURVE",
"431 703 CURVE SMOOTH",
"212 703 OFFCURVE",
"67 560 OFFCURVE",
"67 342 CURVE SMOOTH",
"67 130 OFFCURVE",
"205 -9 OFFCURVE",
"415 -9 CURVE SMOOTH"
);
}
);
width = 744;
},
{
anchors = (
{
name = bottom;
position = "{361, 0}";
},
{
name = top;
position = "{381, 694}";
}
);
layerId = "51C2DFEF-3776-4D13-9284-96485B799B57";
paths = (
{
closed = 1;
nodes = (
"513 -10 OFFCURVE",
"620 21 OFFCURVE",
"679 72 CURVE",
"679 403 LINE",
"379 403 LINE",
"379 257 LINE",
"514 257 LINE",
"514 157 LINE",
"491 146 OFFCURVE",
"457 140 OFFCURVE",
"423 140 CURVE SMOOTH",
"297 140 OFFCURVE",
"218 224 OFFCURVE",
"218 353 CURVE SMOOTH",
"218 485 OFFCURVE",
"291 554 OFFCURVE",
"429 554 CURVE SMOOTH",
"484 554 OFFCURVE",
"546 543 OFFCURVE",
"606 522 CURVE",
"652 663 LINE",
"582 690 OFFCURVE",
"510 704 OFFCURVE",
"437 704 CURVE SMOOTH",
"188 704 OFFCURVE",
"38 563 OFFCURVE",
"38 339 CURVE SMOOTH",
"38 121 OFFCURVE",
"180 -10 OFFCURVE",
"404 -10 CURVE SMOOTH"
);
}
);
width = 732;
},
{
anchors = (
{
name = bottom;
position = "{368, 0}";
},
{
name = top;
position = "{387, 694}";
}
);
layerId = "0B2E441B-685E-400D-9B9B-E078DEED62EF";
paths = (
{
closed = 1;
nodes = (
"501 -10 OFFCURVE",
"598 18 OFFCURVE",
"656 60 CURVE",
"656 338 LINE",
"401 338 LINE",
"401 319 LINE",
"634 319 LINE",
"634 66 LINE",
"572 31 OFFCURVE",
"489 9 OFFCURVE",
"417 9 CURVE SMOOTH",
"233 9 OFFCURVE",
"113 143 OFFCURVE",
"113 348 CURVE SMOOTH",
"113 554 OFFCURVE",
"234 680 OFFCURVE",
"430 680 CURVE SMOOTH",
"501 680 OFFCURVE",
"571 664 OFFCURVE",
"626 634 CURVE",
"633 651 LINE",
"572 683 OFFCURVE",
"506 699 OFFCURVE",
"433 699 CURVE SMOOTH",
"221 699 OFFCURVE",
"90 564 OFFCURVE",
"90 345 CURVE SMOOTH",
"90 130 OFFCURVE",
"218 -10 OFFCURVE",
"414 -10 CURVE SMOOTH"
);
}
);
width = 751;
}
);
note = G;
unicode = 0047;
},
{
glyphname = H;
layers = (
{
anchors = (
{
name = bottom;
position = "{375, 0}";
},
{
name = center;
position = "{375, 539}";
},
{
name = top;
position = "{375, 694}";
},
{
name = topleft;
position = "{17, 694}";
}
);
background = {
components = (
{
name = O;
transform = "{1, 0, 0, 1, -18, 0}";
}
);
};
layerId = "F333AEC5-BB61-4D5E-9EDD-6124322D28F2";
paths = (
{
closed = 1;
nodes = (
"643 0 LINE",
"643 694 LINE",
"560 694 LINE",
"560 0 LINE"
);
},
{
closed = 1;
nodes = (
"189 0 LINE",
"189 694 LINE",
"106 694 LINE",
"106 0 LINE"
);
},
{
closed = 1;
nodes = (
"608 323 LINE",
"608 395 LINE",
"138 395 LINE",
"138 323 LINE"
);
}
);
width = 749;
},
{
anchors = (
{
name = bottom;
position = "{384, 0}";
},
{
name = center;
position = "{384, 566}";
},
{
name = top;
position = "{384, 694}";
},
{
name = topleft;
position = "{19, 694}";
}
);
background = {
components = (
{
name = O;
transform = "{1, 0, 0, 1, -9, 0}";
}
);
};
layerId = "51C2DFEF-3776-4D13-9284-96485B799B57";
paths = (
{
closed = 1;
nodes = (
"690 0 LINE",
"690 694 LINE",
"514 694 LINE",
"514 0 LINE"
);
},
{
closed = 1;
nodes = (
"253 0 LINE",
"253 694 LINE",
"77 694 LINE",
"77 0 LINE"
);
},
{
closed = 1;
nodes = (
"531 274 LINE",
"531 430 LINE",
"235 430 LINE",
"235 274 LINE"
);
}
);
width = 767;
},
{
anchors = (
{
name = bottom;
position = "{361, 0}";
},
{
name = center;
position = "{361, 534}";
},
{
name = top;
position = "{361, 694}";
},
{
name = topleft;
position = "{22, 694}";
}
);
background = {
components = (
{
name = O;
transform = "{1, 0, 0, 1, -21, 0}";
}
);
};
layerId = "0B2E441B-685E-400D-9B9B-E078DEED62EF";
paths = (
{
closed = 1;
nodes = (
"594 0 LINE",
"594 694 LINE",
"572 694 LINE",
"572 0 LINE"
);
},
{
closed = 1;
nodes = (
"149 0 LINE",
"149 694 LINE",
"127 694 LINE",
"127 0 LINE"
);
},
{
closed = 1;
nodes = (
"578 345 LINE",
"578 364 LINE",
"142 364 LINE",
"142 345 LINE"
);
}
);
width = 721;
}
);
note = H;
unicode = 0048;
},
{
glyphname = I;
layers = (
{
anchors = (
{
name = bottom;
position = "{148, 0}";
},
{
name = ogonek;
position = "{177, 10}";
},
{
name = top;
position = "{148, 694}";
},
{
name = topleft;
position = "{17, 694}";
}
);
layerId = "F333AEC5-BB61-4D5E-9EDD-6124322D28F2";
paths = (
{
closed = 1;
nodes = (
"189 0 LINE",
"189 694 LINE",
"106 694 LINE",
"106 0 LINE"
);
}
);
width = 295;
},
{
anchors = (
{
name = bottom;
position = "{165, 0}";
},
{
name = ogonek;
position = "{213, 10}";
},
{
name = top;
position = "{165, 694}";
},
{
name = topleft;
position = "{34, 694}";
}
);
layerId = "51C2DFEF-3776-4D13-9284-96485B799B57";
paths = (
{
closed = 1;
nodes = (
"253 0 LINE",
"253 694 LINE",
"77 694 LINE",
"77 0 LINE"
);
}
);
width = 330;
},
{
anchors = (
{
name = bottom;
position = "{138, 0}";
},
{
name = ogonek;
position = "{146, 10}";
},
{
name = top;
position = "{138, 694}";
},
{
name = topleft;
position = "{11, 694}";
}
);
layerId = "0B2E441B-685E-400D-9B9B-E078DEED62EF";
paths = (
{
closed = 1;
nodes = (
"148 0 LINE",
"148 694 LINE",
"127 694 LINE",
"127 0 LINE"
);
}
);
width = 275;
}
);
note = I;
unicode = 0049;
},
{
glyphname = J;
layers = (
{
anchors = (
{
name = bottom;
position = "{234, 0}";
},
{
name = top;
position = "{309, 694}";
}
);
layerId = "F333AEC5-BB61-4D5E-9EDD-6124322D28F2";
paths = (
{
closed = 1;
nodes = (
"285 -10 OFFCURVE",
"352 65 OFFCURVE",
"352 200 CURVE SMOOTH",
"352 694 LINE",
"269 694 LINE",
"269 191 LINE SMOOTH",
"269 104 OFFCURVE",
"238 63 OFFCURVE",
"168 63 CURVE SMOOTH",
"135 63 OFFCURVE",
"98 72 OFFCURVE",
"67 87 CURVE",
"43 21 LINE",
"78 2 OFFCURVE",
"120 -10 OFFCURVE",
"167 -10 CURVE SMOOTH"
);
}
);
width = 450;
},
{
anchors = (
{
name = bottom;
position = "{253, 0}";
},
{
name = top;
position = "{329, 694}";
}
);
layerId = "51C2DFEF-3776-4D13-9284-96485B799B57";
paths = (
{
closed = 1;
nodes = (
"315 -10 OFFCURVE",
"417 91 OFFCURVE",
"417 243 CURVE SMOOTH",
"417 694 LINE",
"244 694 LINE",
"244 233 LINE SMOOTH",
"244 172 OFFCURVE",
"212 140 OFFCURVE",
"154 140 CURVE SMOOTH",
"125 140 OFFCURVE",
"93 148 OFFCURVE",
"68 162 CURVE",
"22 23 LINE",
"66 1 OFFCURVE",
"111 -10 OFFCURVE",
"162 -10 CURVE SMOOTH"
);
}
);
width = 482;
},
{
anchors = (
{
name = bottom;
position = "{285, 0}";
},
{
name = top;
position = "{310, 694}";
}
);
layerId = "0B2E441B-685E-400D-9B9B-E078DEED62EF";
paths = (
{
closed = 1;
nodes = (
"257 -10 OFFCURVE",
"321 53 OFFCURVE",
"321 158 CURVE SMOOTH",
"321 694 LINE",
"300 694 LINE",
"300 154 LINE SMOOTH",
"300 64 OFFCURVE",
"251 9 OFFCURVE",
"177 9 CURVE SMOOTH",
"145 9 OFFCURVE",
"108 19 OFFCURVE",
"76 36 CURVE",
"68 19 LINE",
"99 1 OFFCURVE",
"139 -10 OFFCURVE",
"174 -10 CURVE SMOOTH"
);
}
);
width = 443;
}
);
note = J;
unicode = 004A;
},
{
glyphname = K;
layers = (
{
anchors = (
{
name = bottom;
position = "{320, 0}";
},
{
name = top;
position = "{320, 694}";
}
);
layerId = "F333AEC5-BB61-4D5E-9EDD-6124322D28F2";
paths = (
{
closed = 1;
nodes = (
"617 0 LINE",
"273 375 LINE",
"272 353 LINE",
"598 694 LINE",
"497 694 LINE",
"180 356 LINE",
"503 0 LINE"
);
},
{
closed = 1;
nodes = (
"189 0 LINE",
"189 694 LINE",
"106 694 LINE",
"106 0 LINE"
);
}
);
width = 657;
},
{
anchors = (
{
name = bottom;
position = "{345, 0}";
},
{
name = top;
position = "{345, 694}";
}
);
layerId = "51C2DFEF-3776-4D13-9284-96485B799B57";
paths = (
{
closed = 1;
nodes = (
"722 0 LINE",
"435 378 LINE",
"443 356 LINE",
"714 694 LINE",
"510 694 LINE",
"245 359 LINE",
"513 0 LINE"
);
},
{
closed = 1;
nodes = (
"255 0 LINE",
"255 694 LINE",
"77 694 LINE",
"77 0 LINE"
);
}
);
width = 735;
},
{
anchors = (
{
name = bottom;
position = "{296, 0}";
},
{
name = top;
position = "{296, 694}";
}
);
layerId = "0B2E441B-685E-400D-9B9B-E078DEED62EF";
paths = (
{
closed = 1;
nodes = (
"531 0 LINE",
"158 362 LINE",
"158 352 LINE",
"522 694 LINE",
"495 694 LINE",
"139 356 LINE",
"502 0 LINE"
);
},
{
closed = 1;
nodes = (
"147 0 LINE",
"147 694 LINE",
"127 694 LINE",
"127 0 LINE"
);
}
);
width = 593;
}
);
note = K;
unicode = 004B;
},
{
glyphname = L;
layers = (
{
anchors = (
{
name = "#periodcentered";
position = "{415, 352}";
},
{
name = bottom;
position = "{304, 0}";
},
{
name = center;
position = "{174, 347}";
},
{
name = top;
position = "{149, 694}";
},
{
name = topright;
position = "{313, 482}";
}
);
layerId = "F333AEC5-BB61-4D5E-9EDD-6124322D28F2";
paths = (
{
closed = 1;
nodes = (
"500 0 LINE",
"500 74 LINE",
"189 74 LINE",
"189 694 LINE",
"106 694 LINE",
"106 0 LINE"
);
}
);
width = 545;
},
{
anchors = (
{
name = "#periodcentered";
position = "{446, 352}";
},
{
name = bottom;
position = "{278, 0}";
},
{
name = center;
position = "{176, 377}";
},
{
name = top;
position = "{162, 694}";
},
{
name = topright;
position = "{357, 490}";
}
);
layerId = "51C2DFEF-3776-4D13-9284-96485B799B57";
paths = (
{
closed = 1;
nodes = (
"537 0 LINE",
"537 153 LINE",
"250 153 LINE",
"250 694 LINE",
"77 694 LINE",
"77 0 LINE"
);
}
);
width = 561;
},
{
anchors = (
{
name = "#periodcentered";
position = "{391, 352}";
},
{
name = bottom;
position = "{303, 0}";
},
{
name = center;
position = "{179, 367}";
},
{
name = top;
position = "{139, 694}";
},
{
name = topright;
position = "{223, 480}";
}
);
layerId = "0B2E441B-685E-400D-9B9B-E078DEED62EF";
paths = (
{
closed = 1;
nodes = (
"473 0 LINE",
"473 19 LINE",
"148 19 LINE",
"148 694 LINE",
"127 694 LINE",
"127 0 LINE"
);
}
);
width = 534;
}
);
note = L;
unicode = 004C;
},
{
glyphname = M;
layers = (
{
anchors = (
{
name = bottom;
position = "{444, 0}";
},
{
name = top;
position = "{444, 694}";
}
);
layerId = "F333AEC5-BB61-4D5E-9EDD-6124322D28F2";
paths = (
{
closed = 1;
nodes = (
"184 0 LINE",
"184 581 LINE",
"168 581 LINE",
"419 108 LINE",
"477 108 LINE",
"719 581 LINE",
"703 581 LINE",
"703 0 LINE",
"781 0 LINE",
"781 694 LINE",
"699 694 LINE",
"444 198 LINE",
"457 198 LINE",
"194 694 LINE",
"106 694 LINE",
"106 0 LINE"
);
}
);
width = 887;
},
{
anchors = (
{
name = bottom;
position = "{460, 0}";
},
{
name = top;
position = "{460, 694}";
}
);
layerId = "51C2DFEF-3776-4D13-9284-96485B799B57";
paths = (
{
closed = 1;
nodes = (
"240 0 LINE",
"240 444 LINE",
"216 429 LINE",
"416 101 LINE",
"506 101 LINE",
"701 434 LINE",
"680 444 LINE",
"680 0 LINE",
"843 0 LINE",
"843 694 LINE",
"669 694 LINE",
"441 297 LINE",
"491 297 LINE",
"260 694 LINE",
"77 694 LINE",
"77 0 LINE"
);
}
);
width = 920;
},
{
anchors = (
{
name = bottom;
position = "{457, 0}";
},
{
name = top;
position = "{457, 694}";
}
);
layerId = "0B2E441B-685E-400D-9B9B-E078DEED62EF";
paths = (
{
closed = 1;
nodes = (
"148 0 LINE",
"148 677 LINE",
"141 677 LINE",
"436 108 LINE",
"456 108 LINE",
"743 676 LINE",
"736 676 LINE",
"736 0 LINE",
"757 0 LINE",
"757 694 LINE",
"730 694 LINE",
"441 118 LINE",
"454 118 LINE",
"156 694 LINE",
"127 694 LINE",
"127 0 LINE"
);
}
);
width = 884;
}
);
note = M;
unicode = 004D;
},
{
glyphname = N;
layers = (
{
anchors = (
{
name = "#hook";
position = "{633, 0}";
},
{
name = bottom;
position = "{389, 0}";
},
{
name = top;
position = "{389, 694}";
}
);
layerId = "F333AEC5-BB61-4D5E-9EDD-6124322D28F2";
paths = (
{
closed = 1;
nodes = (
"184 0 LINE",
"184 605 LINE",
"167 605 LINE",
"577 0 LINE",
"672 0 LINE",
"672 694 LINE",
"594 694 LINE",
"594 87 LINE",
"612 87 LINE",
"201 694 LINE",
"106 694 LINE",
"106 0 LINE"
);
}
);
width = 778;
},
{
anchors = (
{
name = "#hook";
position = "{633, 0}";
},
{
name = bottom;
position = "{402, 0}";
},
{
name = top;
position = "{402, 694}";
}
);
layerId = "51C2DFEF-3776-4D13-9284-96485B799B57";
paths = (
{
closed = 1;
nodes = (
"240 0 LINE",
"240 470 LINE",
"217 460 LINE",
"537 0 LINE",
"728 0 LINE",
"728 694 LINE",
"565 694 LINE",
"563 216 LINE",
"586 226 LINE",
"268 694 LINE",
"77 694 LINE",
"77 0 LINE"
);
}
);
width = 805;
},
{
anchors = (
{
name = "#hook";
position = "{616, 0}";
},
{
name = bottom;
position = "{388, 0}";
},
{
name = top;
position = "{388, 694}";
}
);
layerId = "0B2E441B-685E-400D-9B9B-E078DEED62EF";
paths = (
{
closed = 1;
nodes = (
"147 0 LINE",
"147 674 LINE",
"145 674 LINE",
"601 0 LINE",
"628 0 LINE",
"628 694 LINE",
"608 694 LINE",
"608 20 LINE",
"612 20 LINE",
"156 694 LINE",
"127 694 LINE",
"127 0 LINE"
);
}
);
width = 755;
}
);
note = N;
unicode = 004E;
},
{
glyphname = O;
layers = (
{
anchors = (
{
name = "#Qtail";
position = "{555, 65}";
},
{
name = "#exit";
position = "{672, 291}";
},
{
name = bottom;
position = "{391, 0}";
},
{
name = center;
position = "{391, 347}";
},
{
name = ogonek;
position = "{503, 10}";
},
{
name = top;
position = "{391, 694}";
},
{
name = topleft;
position = "{20, 694}";
},
{
name = topright;
position = "{582, 694}";
}
);
associatedMasterId = "F333AEC5-BB61-4D5E-9EDD-6124322D28F2";
layerId = "EC4D3195-D96F-470D-9C91-AC6DC99AADFD";
name = "Aug 31 17, 20:13";
paths = (
{
closed = 1;
nodes = (
"578 -7 OFFCURVE",
"717 141 OFFCURVE",
"717 356 CURVE SMOOTH",
"717 566 OFFCURVE",
"586 703 OFFCURVE",
"393 703 CURVE SMOOTH",
"194 703 OFFCURVE",
"65 558 OFFCURVE",
"65 344 CURVE SMOOTH",
"65 135 OFFCURVE",
"192 -7 OFFCURVE",
"383 -7 CURVE SMOOTH"
);
},
{
closed = 1;
nodes = (
"249 65 OFFCURVE",
"150 186 OFFCURVE",
"150 356 CURVE SMOOTH",
"150 524 OFFCURVE",
"236 630 OFFCURVE",
"383 630 CURVE SMOOTH",
"526 630 OFFCURVE",
"632 513 OFFCURVE",
"632 344 CURVE SMOOTH",
"632 178 OFFCURVE",
"533 65 OFFCURVE",
"393 65 CURVE SMOOTH"
);
}
);
width = 782;
},
{
anchors = (
{
name = "#Qtail";
position = "{558, 65}";
},
{
name = "#exit";
position = "{675, 291}";
},
{
name = bottom;
position = "{394, 0}";
},
{
name = center;
position = "{394, 347}";
},
{
name = ogonek;
position = "{506, 10}";
},
{
name = top;
position = "{394, 694}";
},
{
name = topleft;
position = "{23, 694}";
},
{
name = topright;
position = "{585, 694}";
}
);
layerId = "F333AEC5-BB61-4D5E-9EDD-6124322D28F2";
paths = (
{
closed = 1;
nodes = (
"586 -7 OFFCURVE",
"720 138 OFFCURVE",
"720 356 CURVE SMOOTH",
"720 564 OFFCURVE",
"590 703 OFFCURVE",
"396 703 CURVE SMOOTH",
"199 703 OFFCURVE",
"68 559 OFFCURVE",
"68 344 CURVE SMOOTH",
"68 133 OFFCURVE",
"195 -7 OFFCURVE",
"386 -7 CURVE SMOOTH"
);
},
{
closed = 1;
nodes = (
"250 65 OFFCURVE",
"153 181 OFFCURVE",
"153 356 CURVE SMOOTH",
"153 520 OFFCURVE",
"246 630 OFFCURVE",
"386 630 CURVE SMOOTH",
"535 630 OFFCURVE",
"635 516 OFFCURVE",
"635 344 CURVE SMOOTH",
"635 177 OFFCURVE",
"539 65 OFFCURVE",
"396 65 CURVE SMOOTH"
);
}
);
width = 788;
},
{
anchors = (
{
name = "#Qtail";
position = "{572, 90}";
},
{
name = "#exit";
position = "{633, 284}";
},
{
name = bottom;
position = "{395, 0}";
},
{
name = center;
position = "{418, 347}";
},
{
name = ogonek;
position = "{475, 10}";
},
{
name = top;
position = "{395, 694}";
},
{
name = topleft;
position = "{94, 694}";
},
{
name = topright;
position = "{603, 694}";
}
);
layerId = "51C2DFEF-3776-4D13-9284-96485B799B57";
paths = (
{
closed = 1;
nodes = (
"607 -10 OFFCURVE",
"751 134 OFFCURVE",
"751 351 CURVE SMOOTH",
"751 563 OFFCURVE",
"611 704 OFFCURVE",
"398 704 CURVE SMOOTH",
"182 704 OFFCURVE",
"38 559 OFFCURVE",
"38 341 CURVE SMOOTH",
"38 130 OFFCURVE",
"178 -10 OFFCURVE",
"388 -10 CURVE SMOOTH"
);
},
{
closed = 1;
nodes = (
"290 140 OFFCURVE",
"218 224 OFFCURVE",
"218 351 CURVE SMOOTH",
"218 473 OFFCURVE",
"285 554 OFFCURVE",
"388 554 CURVE SMOOTH",
"498 554 OFFCURVE",
"571 469 OFFCURVE",
"571 341 CURVE SMOOTH",
"571 220 OFFCURVE",
"503 140 OFFCURVE",
"398 140 CURVE SMOOTH"
);
}
);
width = 789;
},
{
anchors = (
{
name = "#Qtail";
position = "{539, 45}";
},
{
name = "#exit";
position = "{671, 285}";
},
{
name = bottom;
position = "{390, 0}";
},
{
name = center;
position = "{391, 345}";
},
{
name = ogonek;
position = "{490, 10}";
},
{
name = top;
position = "{390, 694}";
},
{
name = topleft;
position = "{19, 694}";
},
{
name = topright;
position = "{586, 694}";
}
);
layerId = "0B2E441B-685E-400D-9B9B-E078DEED62EF";
paths = (
{
closed = 1;
nodes = (
"567 -10 OFFCURVE",
"687 133 OFFCURVE",
"687 346 CURVE SMOOTH",
"687 558 OFFCURVE",
"569 699 OFFCURVE",
"391 699 CURVE SMOOTH",
"211 699 OFFCURVE",
"91 555 OFFCURVE",
"91 343 CURVE SMOOTH",
"91 131 OFFCURVE",
"210 -10 OFFCURVE",
"388 -10 CURVE SMOOTH"
);
},
{
closed = 1;
nodes = (
"224 9 OFFCURVE",
"113 145 OFFCURVE",
"113 346 CURVE SMOOTH",
"113 547 OFFCURVE",
"223 680 OFFCURVE",
"388 680 CURVE SMOOTH",
"554 680 OFFCURVE",
"665 544 OFFCURVE",
"665 343 CURVE SMOOTH",
"665 143 OFFCURVE",
"556 9 OFFCURVE",
"390 9 CURVE SMOOTH"
);
}
);
width = 778;
}
);
note = O;
unicode = 004F;
},
{
glyphname = R;
layers = (
{
anchors = (
{
name = bottom;
position = "{323, 0}";
},
{
name = top;
position = "{323, 694}";
}
);
layerId = "F333AEC5-BB61-4D5E-9EDD-6124322D28F2";
paths = (
{
closed = 1;
nodes = (
"189 0 LINE",
"189 694 LINE",
"106 694 LINE",
"106 0 LINE"
);
},
{
closed = 1;
nodes = (
"326 281 LINE SMOOTH",
"471 281 OFFCURVE",
"568 367 OFFCURVE",
"568 497 CURVE SMOOTH",
"568 617 OFFCURVE",
"477 694 OFFCURVE",
"336 694 CURVE SMOOTH",
"159 694 LINE",
"159 622 LINE",
"326 622 LINE SMOOTH",
"425 622 OFFCURVE",
"483 572 OFFCURVE",
"483 483 CURVE SMOOTH",
"483 398 OFFCURVE",
"431 351 OFFCURVE",
"336 351 CURVE SMOOTH",
"159 351 LINE",
"159 281 LINE"
);
},
{
closed = 1;
nodes = (
"608 0 LINE",
"416 328 LINE",
"321 328 LINE",
"509 0 LINE"
);
}
);
width = 655;
},
{
anchors = (
{
name = bottom;
position = "{326, 0}";
},
{
name = top;
position = "{326, 694}";
}
);
layerId = "51C2DFEF-3776-4D13-9284-96485B799B57";
paths = (
{
closed = 1;
nodes = (
"250 0 LINE",
"250 694 LINE",
"77 694 LINE",
"77 0 LINE"
);
},
{
closed = 1;
nodes = (
"331 237 LINE SMOOTH",
"512 237 OFFCURVE",
"605 319 OFFCURVE",
"605 467 CURVE SMOOTH",
"605 614 OFFCURVE",
"513 694 OFFCURVE",
"335 694 CURVE SMOOTH",
"198 694 LINE",
"198 543 LINE",
"331 543 LINE SMOOTH",
"392 543 OFFCURVE",
"425 510 OFFCURVE",
"425 460 CURVE SMOOTH",
"425 412 OFFCURVE",
"394 384 OFFCURVE",
"335 384 CURVE SMOOTH",
"198 384 LINE",
"198 237 LINE"
);
},
{
closed = 1;
nodes = (
"658 0 LINE",
"497 299 LINE",
"318 299 LINE",
"465 0 LINE"
);
}
);
width = 673;
},
{
anchors = (
{
name = bottom;
position = "{323, 0}";
},
{
name = top;
position = "{295, 694}";
}
);
layerId = "0B2E441B-685E-400D-9B9B-E078DEED62EF";
paths = (
{
closed = 1;
nodes = (
"148 0 LINE",
"148 694 LINE",
"127 694 LINE",
"127 0 LINE"
);
},
{
closed = 1;
nodes = (
"302 303 LINE SMOOTH",
"452 303 OFFCURVE",
"537 375 OFFCURVE",
"537 502 CURVE SMOOTH",
"537 625 OFFCURVE",
"454 694 OFFCURVE",
"307 694 CURVE SMOOTH",
"138 694 LINE",
"138 676 LINE",
"302 676 LINE SMOOTH",
"441 676 OFFCURVE",
"515 614 OFFCURVE",
"515 499 CURVE SMOOTH",
"515 385 OFFCURVE",
"441 321 OFFCURVE",
"309 321 CURVE SMOOTH",
"138 321 LINE",
"138 303 LINE"
);
},
{
closed = 1;
nodes = (
"569 0 LINE",
"387 317 LINE",
"364 317 LINE",
"543 0 LINE"
);
}
);
width = 641;
}
);
note = R;
unicode = 0052;
},
{
glyphname = S;
layers = (
{
anchors = (
{
name = bottom;
position = "{300, 0}";
},
{
name = top;
position = "{300, 694}";
}
);
layerId = "F333AEC5-BB61-4D5E-9EDD-6124322D28F2";
paths = (
{
closed = 1;
nodes = (
"445 -10 OFFCURVE",
"546 69 OFFCURVE",
"546 191 CURVE SMOOTH",
"546 437 OFFCURVE",
"157 339 OFFCURVE",
"157 518 CURVE SMOOTH",
"157 591 OFFCURVE",
"216 631 OFFCURVE",
"322 631 CURVE SMOOTH",
"383 631 OFFCURVE",
"447 618 OFFCURVE",
"495 597 CURVE",
"519 663 LINE",
"460 689 OFFCURVE",
"394 703 OFFCURVE",
"328 703 CURVE SMOOTH",
"173 703 OFFCURVE",
"72 626 OFFCURVE",
"72 505 CURVE SMOOTH",
"72 267 OFFCURVE",
"460 356 OFFCURVE",
"460 179 CURVE SMOOTH",
"460 109 OFFCURVE",
"400 64 OFFCURVE",
"295 64 CURVE SMOOTH",
"233 64 OFFCURVE",
"159 80 OFFCURVE",
"86 112 CURVE",
"61 41 LINE",
"148 6 OFFCURVE",
"220 -10 OFFCURVE",
"290 -10 CURVE SMOOTH"
);
}
);
width = 606;
},
{
anchors = (
{
name = bottom;
position = "{302, 0}";
},
{
name = top;
position = "{295, 694}";
}
);
layerId = "51C2DFEF-3776-4D13-9284-96485B799B57";
paths = (
{
closed = 1;
nodes = (
"469 -10 OFFCURVE",
"571 78 OFFCURVE",
"571 217 CURVE SMOOTH",
"571 472 OFFCURVE",
"228 395 OFFCURVE",
"228 498 CURVE SMOOTH",
"228 533 OFFCURVE",
"267 552 OFFCURVE",
"335 552 CURVE SMOOTH",
"388 552 OFFCURVE",
"450 541 OFFCURVE",
"501 522 CURVE",
"551 666 LINE",
"482 691 OFFCURVE",
"411 704 OFFCURVE",
"344 704 CURVE SMOOTH",
"168 704 OFFCURVE",
"48 612 OFFCURVE",
"48 472 CURVE SMOOTH",
"48 236 OFFCURVE",
"389 303 OFFCURVE",
"389 196 CURVE SMOOTH",
"389 164 OFFCURVE",
"359 146 OFFCURVE",
"292 146 CURVE SMOOTH",
"229 146 OFFCURVE",
"154 162 OFFCURVE",
"85 191 CURVE",
"35 41 LINE",
"106 9 OFFCURVE",
"199 -10 OFFCURVE",
"285 -10 CURVE SMOOTH"
);
}
);
width = 607;
},
{
anchors = (
{
name = bottom;
position = "{296, 0}";
},
{
name = top;
position = "{301, 694}";
}
);
layerId = "0B2E441B-685E-400D-9B9B-E078DEED62EF";
paths = (
{
closed = 1;
nodes = (
"439 -10 OFFCURVE",
"529 66 OFFCURVE",
"529 177 CURVE SMOOTH",
"529 416 OFFCURVE",
"110 307 OFFCURVE",
"110 531 CURVE SMOOTH",
"110 627 OFFCURVE",
"186 683 OFFCURVE",
"316 683 CURVE SMOOTH",
"376 683 OFFCURVE",
"437 671 OFFCURVE",
"490 645 CURVE",
"497 663 LINE",
"444 691 OFFCURVE",
"381 702 OFFCURVE",
"322 702 CURVE SMOOTH",
"176 702 OFFCURVE",
"88 636 OFFCURVE",
"88 527 CURVE SMOOTH",
"88 290 OFFCURVE",
"507 394 OFFCURVE",
"507 172 CURVE SMOOTH",
"507 75 OFFCURVE",
"428 9 OFFCURVE",
"301 9 CURVE SMOOTH",
"234 9 OFFCURVE",
"159 27 OFFCURVE",
"87 60 CURVE",
"80 41 LINE",
"149 8 OFFCURVE",
"227 -10 OFFCURVE",
"296 -10 CURVE SMOOTH"
);
}
);
width = 607;
},
{
anchors = (
{
name = bottom;
position = "{300, 0}";
},
{
name = top;
position = "{300, 694}";
}
);
associatedMasterId = "F333AEC5-BB61-4D5E-9EDD-6124322D28F2";
layerId = "739E2D29-ADA2-413B-A0C9-C5D3314592EA";
name = "Nov 4 17, 14:07";
paths = (
{
closed = 1;
nodes = (
"444 -10 OFFCURVE",
"538 67 OFFCURVE",
"538 196 CURVE SMOOTH",
"538 452 OFFCURVE",
"158 335 OFFCURVE",
"158 514 CURVE SMOOTH",
"158 587 OFFCURVE",
"221 631 OFFCURVE",
"326 631 CURVE SMOOTH",
"380 631 OFFCURVE",
"442 619 OFFCURVE",
"490 600 CURVE",
"514 665 LINE",
"458 691 OFFCURVE",
"401 704 OFFCURVE",
"337 704 CURVE SMOOTH",
"175 704 OFFCURVE",
"73 626 OFFCURVE",
"73 501 CURVE SMOOTH",
"73 258 OFFCURVE",
"453 373 OFFCURVE",
"453 183 CURVE SMOOTH",
"453 107 OFFCURVE",
"394 63 OFFCURVE",
"291 63 CURVE SMOOTH",
"231 63 OFFCURVE",
"161 78 OFFCURVE",
"84 109 CURVE",
"60 40 LINE",
"133 8 OFFCURVE",
"214 -10 OFFCURVE",
"288 -10 CURVE SMOOTH"
);
}
);
width = 599;
}
);
note = S;
unicode = 0053;
},
{
glyphname = Germandbls;
layers = (
{
layerId = "F333AEC5-BB61-4D5E-9EDD-6124322D28F2";
paths = (
{
closed = 1;
nodes = (
"578 -10 OFFCURVE",
"664 66 OFFCURVE",
"664 181 CURVE SMOOTH",
"664 283 OFFCURVE",
"596 364 OFFCURVE",
"468 388 CURVE",
"478 352 LINE",
"614 583 LINE",
"581 657 OFFCURVE",
"485 704 OFFCURVE",
"368 704 CURVE SMOOTH",
"203 704 OFFCURVE",
"95 610 OFFCURVE",
"95 468 CURVE SMOOTH",
"95 0 LINE",
"178 0 LINE",
"178 468 LINE SMOOTH",
"178 566 OFFCURVE",
"248 631 OFFCURVE",
"363 631 CURVE SMOOTH",
"436 631 OFFCURVE",
"497 605 OFFCURVE",
"520 565 CURVE",
"385 332 LINE",
"510 312 OFFCURVE",
"579 255 OFFCURVE",
"579 171 CURVE SMOOTH",
"579 102 OFFCURVE",
"533 63 OFFCURVE",
"454 63 CURVE SMOOTH",
"411 63 OFFCURVE",
"362 74 OFFCURVE",
"320 94 CURVE",
"293 23 LINE",
"342 2 OFFCURVE",
"398 -10 OFFCURVE",
"449 -10 CURVE SMOOTH"
);
}
);
width = 721;
},
{
layerId = "51C2DFEF-3776-4D13-9284-96485B799B57";
paths = (
{
closed = 1;
nodes = (
"600 -10 OFFCURVE",
"707 77 OFFCURVE",
"707 208 CURVE SMOOTH",
"707 318 OFFCURVE",
"632 393 OFFCURVE",
"506 410 CURVE",
"567 384 LINE",
"670 559 LINE",
"630 646 OFFCURVE",
"509 704 OFFCURVE",
"367 704 CURVE SMOOTH",
"184 704 OFFCURVE",
"63 596 OFFCURVE",
"63 434 CURVE SMOOTH",
"63 0 LINE",
"239 0 LINE",
"239 434 LINE SMOOTH",
"239 507 OFFCURVE",
"289 554 OFFCURVE",
"365 554 CURVE SMOOTH",
"410 554 OFFCURVE",
"446 537 OFFCURVE",
"462 508 CURVE",
"353 304 LINE",
"455 289 OFFCURVE",
"527 252 OFFCURVE",
"527 200 CURVE SMOOTH",
"527 163 OFFCURVE",
"493 140 OFFCURVE",
"438 140 CURVE SMOOTH",
"401 140 OFFCURVE",
"363 150 OFFCURVE",
"332 167 CURVE",
"278 25 LINE",
"334 0 OFFCURVE",
"382 -10 OFFCURVE",
"439 -10 CURVE SMOOTH"
);
}
);
width = 737;
},
{
layerId = "0B2E441B-685E-400D-9B9B-E078DEED62EF";
paths = (
{
closed = 1;
nodes = (
"554 -10 OFFCURVE",
"632 59 OFFCURVE",
"632 164 CURVE SMOOTH",
"632 273 OFFCURVE",
"566 341 OFFCURVE",
"433 370 CURVE",
"434 360 LINE",
"571 599 LINE",
"546 661 OFFCURVE",
"464 702 OFFCURVE",
"364 702 CURVE SMOOTH",
"217 702 OFFCURVE",
"117 614 OFFCURVE",
"117 482 CURVE SMOOTH",
"117 0 LINE",
"138 0 LINE",
"138 482 LINE SMOOTH",
"138 603 OFFCURVE",
"228 683 OFFCURVE",
"362 683 CURVE SMOOTH",
"446 683 OFFCURVE",
"521 652 OFFCURVE",
"547 599 CURVE",
"409 355 LINE",
"546 328 OFFCURVE",
"611 266 OFFCURVE",
"611 163 CURVE SMOOTH",
"611 70 OFFCURVE",
"542 8 OFFCURVE",
"439 8 CURVE SMOOTH",
"395 8 OFFCURVE",
"347 19 OFFCURVE",
"303 39 CURVE",
"296 21 LINE",
"337 1 OFFCURVE",
"386 -10 OFFCURVE",
"434 -10 CURVE SMOOTH"
);
}
);
width = 711;
}
);
unicode = 1E9E;
},
{
glyphname = Schwa;
layers = (
{
anchors = (
{
name = bottom;
position = "{371, 0}";
},
{
name = top;
position = "{371, 694}";
}
);
layerId = "F333AEC5-BB61-4D5E-9EDD-6124322D28F2";
paths = (
{
closed = 1;
nodes = (
"237 700 OFFCURVE",
"159 680 OFFCURVE",
"89 640 CURVE",
"108 579 LINE",
"172 610 OFFCURVE",
"242 627 OFFCURVE",
"310 627 CURVE SMOOTH",
"488 627 OFFCURVE",
"596 521 OFFCURVE",
"596 329 CURVE SMOOTH",
"596 158 OFFCURVE",
"511 63 OFFCURVE",
"364 63 CURVE SMOOTH",
"224 63 OFFCURVE",
"142 148 OFFCURVE",
"142 300 CURVE",
"617 300 LINE",
"617 368 LINE",
"69 368 LINE",
"67 345 OFFCURVE",
"65 312 OFFCURVE",
"65 291 CURVE SMOOTH",
"65 111 OFFCURVE",
"181 -10 OFFCURVE",
"357 -10 CURVE SMOOTH",
"548 -10 OFFCURVE",
"681 132 OFFCURVE",
"681 347 CURVE SMOOTH",
"681 566 OFFCURVE",
"543 700 OFFCURVE",
"324 700 CURVE SMOOTH"
);
}
);
userData = {
RMXScaler = {
height = 143;
width = 150;
};
};
width = 748;
},
{
anchors = (
{
name = bottom;
position = "{376, 0}";
},
{
name = top;
position = "{376, 694}";
}
);
layerId = "51C2DFEF-3776-4D13-9284-96485B799B57";
paths = (
{
closed = 1;
nodes = (
"227 704 OFFCURVE",
"140 685 OFFCURVE",
"60 648 CURVE",
"99 517 LINE",
"159 541 OFFCURVE",
"225 554 OFFCURVE",
"288 554 CURVE SMOOTH",
"444 554 OFFCURVE",
"523 483 OFFCURVE",
"523 315 CURVE SMOOTH",
"523 192 OFFCURVE",
"469 140 OFFCURVE",
"363 140 CURVE SMOOTH",
"267 140 OFFCURVE",
"211 180 OFFCURVE",
"211 272 CURVE",
"552 272 LINE",
"552 414 LINE",
"53 414 LINE",
"48 370 OFFCURVE",
"45 324 OFFCURVE",
"45 280 CURVE SMOOTH",
"45 105 OFFCURVE",
"163 -10 OFFCURVE",
"350 -10 CURVE SMOOTH",
"560 -10 OFFCURVE",
"703 133 OFFCURVE",
"703 350 CURVE SMOOTH",
"703 571 OFFCURVE",
"556 704 OFFCURVE",
"317 704 CURVE SMOOTH"
);
}
);
userData = {
RMXScaler = {
height = 142;
width = 148;
};
};
width = 741;
},
{
anchors = (
{
name = bottom;
position = "{369, 0}";
},
{
name = top;
position = "{369, 694}";
}
);
layerId = "0B2E441B-685E-400D-9B9B-E078DEED62EF";
paths = (
{
closed = 1;
nodes = (
"245 704 OFFCURVE",
"174 681 OFFCURVE",
"106 633 CURVE",
"111 617 LINE",
"180 663 OFFCURVE",
"249 685 OFFCURVE",
"326 685 CURVE SMOOTH",
"521 685 OFFCURVE",
"642 558 OFFCURVE",
"642 342 CURVE SMOOTH",
"642 140 OFFCURVE",
"537 9 OFFCURVE",
"366 9 CURVE SMOOTH",
"202 9 OFFCURVE",
"105 130 OFFCURVE",
"105 321 CURVE",
"660 321 LINE",
"660 340 LINE",
"83 340 LINE",
"82 332 OFFCURVE",
"82 328 OFFCURVE",
"82 318 CURVE SMOOTH",
"82 123 OFFCURVE",
"191 -10 OFFCURVE",
"364 -10 CURVE SMOOTH",
"540 -10 OFFCURVE",
"665 130 OFFCURVE",
"665 342 CURVE SMOOTH",
"665 562 OFFCURVE",
"532 704 OFFCURVE",
"328 704 CURVE SMOOTH"
);
}
);
userData = {
RMXScaler = {
height = 145;
width = 150;
};
};
width = 755;
}
);
unicode = 018F;
userData = {
RMXScaler = {
source = e;
};
};
},
{
glyphname = T;
layers = (
{
anchors = (
{
name = bottom;
position = "{317, 0}";
},
{
name = center;
position = "{317, 347}";
},
{
name = top;
position = "{317, 694}";
}
);
layerId = "F333AEC5-BB61-4D5E-9EDD-6124322D28F2";
paths = (
{
closed = 1;
nodes = (
"358 0 LINE",
"358 660 LINE",
"275 660 LINE",
"275 0 LINE"
);
},
{
closed = 1;
nodes = (
"590 622 LINE",
"590 694 LINE",
"44 694 LINE",
"44 622 LINE"
);
}
);
width = 634;
},
{
anchors = (
{
name = bottom;
position = "{326, 0}";
},
{
name = center;
position = "{326, 347}";
},
{
name = top;
position = "{326, 694}";
}
);
layerId = "51C2DFEF-3776-4D13-9284-96485B799B57";
paths = (
{
closed = 1;
nodes = (
"411 0 LINE",
"411 660 LINE",
"239 660 LINE",
"239 0 LINE"
);
},
{
closed = 1;
nodes = (
"629 542 LINE",
"629 694 LINE",
"23 694 LINE",
"23 542 LINE"
);
}
);
width = 652;
},
{
anchors = (
{
name = bottom;
position = "{315, 0}";
},
{
name = center;
position = "{319, 347}";
},
{
name = top;
position = "{319, 694}";
}
);
layerId = "0B2E441B-685E-400D-9B9B-E078DEED62EF";
paths = (
{
closed = 1;
nodes = (
"329 0 LINE",
"329 694 LINE",
"308 694 LINE",
"308 0 LINE"
);
},
{
closed = 1;
nodes = (
"576 676 LINE",
"576 694 LINE",
"60 694 LINE",
"60 676 LINE"
);
}
);
width = 636;
}
);
note = T;
unicode = 0054;
},
{
glyphname = U;
layers = (
{
anchors = (
{
name = bottom;
position = "{357, 0}";
},
{
name = ogonek;
position = "{466, 10}";
},
{
name = top;
position = "{357, 694}";
},
{
name = topright;
position = "{656, 694}";
}
);
layerId = "F333AEC5-BB61-4D5E-9EDD-6124322D28F2";
paths = (
{
closed = 1;
nodes = (
"511 -10 OFFCURVE",
"621 92 OFFCURVE",
"621 246 CURVE SMOOTH",
"621 694 LINE",
"540 694 LINE",
"540 236 LINE SMOOTH",
"540 132 OFFCURVE",
"480 63 OFFCURVE",
"363 63 CURVE SMOOTH",
"250 63 OFFCURVE",
"177 128 OFFCURVE",
"177 253 CURVE SMOOTH",
"177 694 LINE",
"94 694 LINE",
"94 243 LINE SMOOTH",
"94 91 OFFCURVE",
"194 -10 OFFCURVE",
"352 -10 CURVE SMOOTH"
);
}
);
width = 714;
},
{
anchors = (
{
name = bottom;
position = "{367, 0}";
},
{
name = ogonek;
position = "{463, 10}";
},
{
name = top;
position = "{367, 694}";
},
{
name = topright;
position = "{725, 694}";
}
);
layerId = "51C2DFEF-3776-4D13-9284-96485B799B57";
paths = (
{
closed = 1;
nodes = (
"549 -10 OFFCURVE",
"670 100 OFFCURVE",
"670 267 CURVE SMOOTH",
"670 694 LINE",
"499 694 LINE",
"499 257 LINE SMOOTH",
"499 187 OFFCURVE",
"448 140 OFFCURVE",
"371 140 CURVE SMOOTH",
"290 140 OFFCURVE",
"237 191 OFFCURVE",
"237 267 CURVE SMOOTH",
"237 694 LINE",
"64 694 LINE",
"64 257 LINE SMOOTH",
"64 97 OFFCURVE",
"184 -10 OFFCURVE",
"364 -10 CURVE SMOOTH"
);
}
);
width = 733;
},
{
anchors = (
{
name = bottom;
position = "{351, 0}";
},
{
name = ogonek;
position = "{452, 10}";
},
{
name = top;
position = "{351, 694}";
},
{
name = topright;
position = "{663, 694}";
}
);
layerId = "0B2E441B-685E-400D-9B9B-E078DEED62EF";
paths = (
{
closed = 1;
nodes = (
"491 -10 OFFCURVE",
"584 97 OFFCURVE",
"584 256 CURVE SMOOTH",
"584 694 LINE",
"563 694 LINE",
"563 256 LINE SMOOTH",
"563 107 OFFCURVE",
"480 9 OFFCURVE",
"353 9 CURVE SMOOTH",
"223 9 OFFCURVE",
"137 108 OFFCURVE",
"137 256 CURVE SMOOTH",
"137 694 LINE",
"115 694 LINE",
"115 256 LINE SMOOTH",
"115 96 OFFCURVE",
"209 -10 OFFCURVE",
"350 -10 CURVE SMOOTH"
);
}
);
width = 699;
}
);
note = U;
unicode = 0055;
},
{
glyphname = V;
layers = (
{
anchors = (
{
name = bottom;
position = "{338, 0}";
},
{
name = top;
position = "{338, 694}";
}
);
layerId = "F333AEC5-BB61-4D5E-9EDD-6124322D28F2";
paths = (
{
closed = 1;
nodes = (
"378 0 LINE",
"631 694 LINE",
"547 694 LINE",
"316 29 LINE",
"366 29 LINE",
"139 694 LINE",
"44 694 LINE",
"297 0 LINE"
);
}
);
width = 675;
},
{
anchors = (
{
name = bottom;
position = "{354, 0}";
},
{
name = top;
position = "{354, 694}";
}
);
layerId = "51C2DFEF-3776-4D13-9284-96485B799B57";
paths = (
{
closed = 1;
nodes = (
"445 0 LINE",
"692 694 LINE",
"519 694 LINE",
"324 92 LINE",
"393 92 LINE",
"197 694 LINE",
"15 694 LINE",
"262 0 LINE"
);
}
);
width = 707;
},
{
anchors = (
{
name = bottom;
position = "{329, 0}";
},
{
name = top;
position = "{329, 694}";
}
);
layerId = "0B2E441B-685E-400D-9B9B-E078DEED62EF";
paths = (
{
closed = 1;
nodes = (
"335 0 LINE",
"592 694 LINE",
"571 694 LINE",
"326 30 LINE",
"335 30 LINE",
"88 694 LINE",
"65 694 LINE",
"324 0 LINE"
);
}
);
width = 658;
}
);
note = V;
unicode = 0056;
},
{
glyphname = W;
layers = (
{
anchors = (
{
name = bottom;
position = "{523, 0}";
},
{
name = top;
position = "{523, 694}";
}
);
layerId = "F333AEC5-BB61-4D5E-9EDD-6124322D28F2";
paths = (
{
closed = 1;
nodes = (
"347 0 LINE",
"549 653 LINE",
"502 653 LINE",
"708 0 LINE",
"788 0 LINE",
"1004 694 LINE",
"922 694 LINE",
"728 39 LINE",
"777 39 LINE",
"578 689 LINE",
"482 689 LINE",
"282 39 LINE",
"331 39 LINE",
"141 694 LINE",
"45 694 LINE",
"267 0 LINE"
);
}
);
width = 1050;
},
{
anchors = (
{
name = bottom;
position = "{532, 0}";
},
{
name = top;
position = "{532, 694}";
}
);
layerId = "51C2DFEF-3776-4D13-9284-96485B799B57";
paths = (
{
closed = 1;
nodes = (
"418 0 LINE",
"586 587 LINE",
"470 587 LINE",
"654 0 LINE",
"839 0 LINE",
"1049 694 LINE",
"876 694 LINE",
"718 105 LINE",
"794 105 LINE",
"614 689 LINE",
"455 689 LINE",
"295 105 LINE",
"361 105 LINE",
"196 694 LINE",
"16 694 LINE",
"233 0 LINE"
);
}
);
width = 1066;
},
{
anchors = (
{
name = bottom;
position = "{520, 0}";
},
{
name = top;
position = "{520, 694}";
}
);
layerId = "0B2E441B-685E-400D-9B9B-E078DEED62EF";
paths = (
{
closed = 1;
nodes = (
"306 0 LINE",
"528 662 LINE",
"514 662 LINE",
"733 0 LINE",
"746 0 LINE",
"972 694 LINE",
"951 694 LINE",
"736 32 LINE",
"745 32 LINE",
"529 684 LINE",
"515 684 LINE",
"296 32 LINE",
"305 32 LINE",
"90 694 LINE",
"67 694 LINE",
"294 0 LINE"
);
}
);
width = 1039;
}
);
note = W;
unicode = 0057;
},
{
glyphname = X;
layers = (
{
anchors = (
{
name = bottom;
position = "{335, 0}";
},
{
name = top;
position = "{335, 694}";
}
);
layerId = "F333AEC5-BB61-4D5E-9EDD-6124322D28F2";
paths = (
{
closed = 1;
nodes = (
"628 0 LINE",
"355 394 LINE",
"161 694 LINE",
"62 694 LINE",
"296 346 LINE",
"529 0 LINE"
);
},
{
closed = 1;
nodes = (
"136 0 LINE",
"354 333 LINE",
"602 694 LINE",
"508 694 LINE",
"307 390 LINE",
"42 0 LINE"
);
}
);
width = 669;
},
{
anchors = (
{
name = bottom;
position = "{357, 0}";
},
{
name = top;
position = "{357, 694}";
}
);
layerId = "51C2DFEF-3776-4D13-9284-96485B799B57";
paths = (
{
closed = 1;
nodes = (
"701 0 LINE",
"405 413 LINE",
"220 694 LINE",
"15 694 LINE",
"312 272 LINE",
"496 0 LINE"
);
},
{
closed = 1;
nodes = (
"209 0 LINE",
"407 296 LINE",
"692 694 LINE",
"502 694 LINE",
"311 408 LINE",
"19 0 LINE"
);
}
);
width = 714;
},
{
anchors = (
{
name = bottom;
position = "{319, 0}";
},
{
name = top;
position = "{319, 694}";
}
);
layerId = "0B2E441B-685E-400D-9B9B-E078DEED62EF";
paths = (
{
closed = 1;
nodes = (
"568 0 LINE",
"323 354 LINE",
"101 694 LINE",
"74 694 LINE",
"312 337 LINE",
"541 0 LINE"
);
},
{
closed = 1;
nodes = (
"89 0 LINE",
"320 343 LINE",
"558 694 LINE",
"534 694 LINE",
"308 358 LINE",
"65 0 LINE"
);
}
);
width = 633;
}
);
note = X;
unicode = 0058;
},
{
glyphname = Y;
layers = (
{
anchors = (
{
name = bottom;
position = "{324, 0}";
},
{
name = top;
position = "{324, 694}";
},
{
name = topleft;
position = "{46, 694}";
}
);
layerId = "F333AEC5-BB61-4D5E-9EDD-6124322D28F2";
paths = (
{
closed = 1;
nodes = (
"362 0 LINE",
"362 299 LINE",
"608 694 LINE",
"517 694 LINE",
"318 362 LINE",
"329 362 LINE",
"137 694 LINE",
"40 694 LINE",
"279 299 LINE",
"279 0 LINE"
);
}
);
width = 648;
},
{
anchors = (
{
name = bottom;
position = "{341, 0}";
},
{
name = top;
position = "{341, 694}";
},
{
name = topleft;
position = "{31, 694}";
}
);
layerId = "51C2DFEF-3776-4D13-9284-96485B799B57";
paths = (
{
closed = 1;
nodes = (
"428 0 LINE",
"428 281 LINE",
"667 694 LINE",
"483 694 LINE",
"310 379 LINE",
"384 379 LINE",
"208 694 LINE",
"11 694 LINE",
"255 279 LINE",
"255 0 LINE"
);
}
);
width = 678;
},
{
anchors = (
{
name = bottom;
position = "{304, 0}";
},
{
name = top;
position = "{304, 694}";
},
{
name = topleft;
position = "{44, 694}";
}
);
layerId = "0B2E441B-685E-400D-9B9B-E078DEED62EF";
paths = (
{
closed = 1;
nodes = (
"310 0 LINE",
"310 333 LINE",
"537 694 LINE",
"514 694 LINE",
"297 344 LINE",
"305 344 LINE",
"87 694 LINE",
"61 694 LINE",
"289 333 LINE",
"289 0 LINE"
);
}
);
width = 598;
}
);
note = Y;
unicode = 0059;
},
{
glyphname = Z;
layers = (
{
anchors = (
{
name = bottom;
position = "{331, 0}";
},
{
name = top;
position = "{331, 694}";
}
);
layerId = "F333AEC5-BB61-4D5E-9EDD-6124322D28F2";
paths = (
{
closed = 1;
nodes = (
"610 0 LINE",
"610 72 LINE",
"130 72 LINE",
"142 47 LINE",
"597 642 LINE",
"597 694 LINE",
"66 694 LINE",
"66 622 LINE",
"518 622 LINE",
"506 647 LINE",
"52 53 LINE",
"52 0 LINE"
);
}
);
width = 662;
},
{
anchors = (
{
name = bottom;
position = "{343, 0}";
},
{
name = top;
position = "{343, 694}";
}
);
layerId = "51C2DFEF-3776-4D13-9284-96485B799B57";
paths = (
{
closed = 1;
nodes = (
"645 0 LINE",
"645 152 LINE",
"180 152 LINE",
"219 94 LINE",
"640 571 LINE",
"640 694 LINE",
"52 694 LINE",
"52 542 LINE",
"496 542 LINE",
"458 599 LINE",
"37 133 LINE",
"37 0 LINE"
);
}
);
width = 684;
},
{
anchors = (
{
name = bottom;
position = "{319, 0}";
},
{
name = top;
position = "{319, 694}";
}
);
layerId = "0B2E441B-685E-400D-9B9B-E078DEED62EF";
paths = (
{
closed = 1;
nodes = (
"583 0 LINE",
"583 18 LINE",
"87 18 LINE",
"87 12 LINE",
"580 677 LINE",
"580 694 LINE",
"80 694 LINE",
"80 676 LINE",
"558 676 LINE",
"558 682 LINE",
"65 16 LINE",
"65 0 LINE"
);
}
);
width = 650;
}
);
note = Z;
unicode = 005A;
},
{
glyphname = a;
layers = (
{
anchors = (
{
name = bottom;
position = "{263, 0}";
},
{
name = ogonek;
position = "{421, 10}";
},
{
name = top;
position = "{248, 482}";
}
);
layerId = "F333AEC5-BB61-4D5E-9EDD-6124322D28F2";
paths = (
{
closed = 1;
nodes = (
"439 0 LINE",
"439 313 LINE SMOOTH",
"439 428 OFFCURVE",
"371 492 OFFCURVE",
"250 492 CURVE SMOOTH",
"185 492 OFFCURVE",
"125 475 OFFCURVE",
"62 436 CURVE",
"80 378 LINE",
"134 407 OFFCURVE",
"182 420 OFFCURVE",
"232 420 CURVE SMOOTH",
"316 420 OFFCURVE",
"359 384 OFFCURVE",
"359 313 CURVE SMOOTH",
"359 56 LINE",
"383 0 LINE"
);
},
{
closed = 1;
nodes = (
"324 -10 OFFCURVE",
"412 62 OFFCURVE",
"428 169 CURVE",
"399 183 LINE",
"383 108 OFFCURVE",
"318 60 OFFCURVE",
"234 60 CURVE SMOOTH",
"170 60 OFFCURVE",
"129 89 OFFCURVE",
"129 134 CURVE SMOOTH",
"129 196 OFFCURVE",
"204 224 OFFCURVE",
"371 224 CURVE",
"371 284 LINE",
"164 284 OFFCURVE",
"49 225 OFFCURVE",
"49 120 CURVE SMOOTH",
"49 42 OFFCURVE",
"113 -10 OFFCURVE",
"210 -10 CURVE SMOOTH"
);
}
);
width = 515;
},
{
anchors = (
{
name = bottom;
position = "{273, 0}";
},
{
name = ogonek;
position = "{444, 10}";
},
{
name = top;
position = "{263, 490}";
}
);
layerId = "51C2DFEF-3776-4D13-9284-96485B799B57";
paths = (
{
closed = 1;
nodes = (
"494 0 LINE",
"494 282 LINE SMOOTH",
"494 422 OFFCURVE",
"412 500 OFFCURVE",
"264 500 CURVE SMOOTH",
"183 500 OFFCURVE",
"99 477 OFFCURVE",
"35 438 CURVE",
"73 321 LINE",
"125 345 OFFCURVE",
"181 359 OFFCURVE",
"225 359 CURVE SMOOTH",
"286 359 OFFCURVE",
"321 331 OFFCURVE",
"321 282 CURVE SMOOTH",
"321 129 LINE",
"369 0 LINE"
);
},
{
closed = 1;
nodes = (
"288 -10 OFFCURVE",
"360 43 OFFCURVE",
"421 155 CURVE",
"368 178 LINE",
"335 140 OFFCURVE",
"294 119 OFFCURVE",
"255 119 CURVE SMOOTH",
"221 119 OFFCURVE",
"202 133 OFFCURVE",
"202 157 CURVE SMOOTH",
"202 190 OFFCURVE",
"241 201 OFFCURVE",
"356 201 CURVE",
"356 305 LINE",
"158 305 OFFCURVE",
"28 234 OFFCURVE",
"28 124 CURVE SMOOTH",
"28 44 OFFCURVE",
"94 -10 OFFCURVE",
"194 -10 CURVE SMOOTH"
);
}
);
width = 543;
},
{
anchors = (
{
name = bottom;
position = "{249, 0}";
},
{
name = ogonek;
position = "{400, 10}";
},
{
name = top;
position = "{230, 480}";
}
);
background = {
paths = (
{
closed = 1;
nodes = (
"411 0 LINE",
"411 327 LINE SMOOTH",
"411 436 OFFCURVE",
"346 486 OFFCURVE",
"237 486 CURVE SMOOTH",
"174 486 OFFCURVE",
"105 460 OFFCURVE",
"63 425 CURVE",
"72 412 LINE",
"116 446 OFFCURVE",
"178 466 OFFCURVE",
"234 466 CURVE SMOOTH",
"332 466 OFFCURVE",
"391 425 OFFCURVE",
"391 323 CURVE SMOOTH",
"391 71 LINE",
"395 0 LINE"
);
},
{
closed = 1;
nodes = (
"286 -10 OFFCURVE",
"354 20 OFFCURVE",
"399 65 CURVE",
"399 86 LINE",
"343 34 OFFCURVE",
"283 10 OFFCURVE",
"219 10 CURVE SMOOTH",
"132 10 OFFCURVE",
"79 48 OFFCURVE",
"79 112 CURVE SMOOTH",
"79 202 OFFCURVE",
"182 245 OFFCURVE",
"399 245 CURVE",
"399 266 LINE",
"179 266 OFFCURVE",
"58 211 OFFCURVE",
"58 108 CURVE SMOOTH",
"58 35 OFFCURVE",
"117 -10 OFFCURVE",
"215 -10 CURVE SMOOTH"
);
}
);
};
layerId = "0B2E441B-685E-400D-9B9B-E078DEED62EF";
paths = (
{
closed = 1;
nodes = (
"402 0 LINE",
"402 327 LINE SMOOTH",
"402 428 OFFCURVE",
"344 486 OFFCURVE",
"245 486 CURVE SMOOTH",
"189 486 OFFCURVE",
"128 467 OFFCURVE",
"81 434 CURVE",
"86 420 LINE",
"127 450 OFFCURVE",
"184 468 OFFCURVE",
"239 468 CURVE SMOOTH",
"333 468 OFFCURVE",
"381 417 OFFCURVE",
"381 323 CURVE SMOOTH",
"381 71 LINE",
"385 0 LINE"
);
},
{
closed = 1;
nodes = (
"279 -10 OFFCURVE",
"343 19 OFFCURVE",
"389 68 CURVE",
"389 86 LINE",
"336 35 OFFCURVE",
"284 8 OFFCURVE",
"215 8 CURVE SMOOTH",
"132 8 OFFCURVE",
"84 48 OFFCURVE",
"84 111 CURVE SMOOTH",
"84 199 OFFCURVE",
"177 238 OFFCURVE",
"389 238 CURVE",
"389 256 LINE",
"174 256 OFFCURVE",
"63 206 OFFCURVE",
"63 108 CURVE SMOOTH",
"63 37 OFFCURVE",
"120 -10 OFFCURVE",
"209 -10 CURVE SMOOTH"
);
}
);
width = 496;
},
{
anchors = (
{
name = bottom;
position = "{282, 0}";
},
{
name = ogonek;
position = "{428, 10}";
},
{
name = top;
position = "{282, 490}";
}
);
associatedMasterId = "51C2DFEF-3776-4D13-9284-96485B799B57";
background = {
paths = (
{
closed = 1;
nodes = (
"504 0 LINE",
"504 292 LINE SMOOTH",
"504 424 OFFCURVE",
"416 500 OFFCURVE",
"274 500 CURVE SMOOTH",
"200 500 OFFCURVE",
"113 476 OFFCURVE",
"46 428 CURVE",
"85 313 LINE",
"131 341 OFFCURVE",
"184 356 OFFCURVE",
"237 356 CURVE SMOOTH",
"295 356 OFFCURVE",
"331 331 OFFCURVE",
"331 282 CURVE SMOOTH",
"331 119 LINE",
"358 0 LINE"
);
},
{
closed = 1;
nodes = (
"318 -10 OFFCURVE",
"374 68 OFFCURVE",
"421 155 CURVE",
"378 178 LINE",
"345 140 OFFCURVE",
"301 119 OFFCURVE",
"266 119 CURVE SMOOTH",
"232 119 OFFCURVE",
"209 132 OFFCURVE",
"209 154 CURVE SMOOTH",
"209 185 OFFCURVE",
"234 205 OFFCURVE",
"366 205 CURVE",
"366 309 LINE",
"153 299 OFFCURVE",
"35 228 OFFCURVE",
"35 123 CURVE SMOOTH",
"35 41 OFFCURVE",
"110 -10 OFFCURVE",
"201 -10 CURVE SMOOTH"
);
}
);
};
layerId = "9707B00C-8292-4D70-B17A-DB07EF7F01BC";
name = "Sep 15 17, 21:22";
paths = (
{
closed = 1;
nodes = (
"504 0 LINE",
"504 292 LINE SMOOTH",
"504 422 OFFCURVE",
"418 500 OFFCURVE",
"276 500 CURVE SMOOTH",
"194 500 OFFCURVE",
"109 475 OFFCURVE",
"46 433 CURVE",
"85 318 LINE",
"129 342 OFFCURVE",
"184 356 OFFCURVE",
"233 356 CURVE SMOOTH",
"297 356 OFFCURVE",
"331 331 OFFCURVE",
"331 282 CURVE SMOOTH",
"331 119 LINE",
"358 0 LINE"
);
},
{
closed = 1;
nodes = (
"298 -10 OFFCURVE",
"371 43 OFFCURVE",
"431 155 CURVE",
"378 178 LINE",
"345 140 OFFCURVE",
"304 119 OFFCURVE",
"263 119 CURVE SMOOTH",
"229 119 OFFCURVE",
"209 133 OFFCURVE",
"209 157 CURVE SMOOTH",
"209 191 OFFCURVE",
"255 205 OFFCURVE",
"366 205 CURVE",
"366 309 LINE",
"157 299 OFFCURVE",
"35 231 OFFCURVE",
"35 124 CURVE SMOOTH",
"35 45 OFFCURVE",
"104 -10 OFFCURVE",
"202 -10 CURVE SMOOTH"
);
}
);
width = 564;
}
);
note = a;
unicode = 0061;
},
{
glyphname = ae;
layers = (
{
anchors = (
{
name = bottom;
position = "{420, 0}";
},
{
name = top;
position = "{420, 482}";
}
);
layerId = "F333AEC5-BB61-4D5E-9EDD-6124322D28F2";
paths = (
{
closed = 1;
nodes = (
"426 224 LINE",
"426 326 LINE SMOOTH",
"426 434 OFFCURVE",
"364 492 OFFCURVE",
"249 492 CURVE SMOOTH",
"185 492 OFFCURVE",
"125 474 OFFCURVE",
"61 436 CURVE",
"79 378 LINE",
"136 407 OFFCURVE",
"182 420 OFFCURVE",
"232 420 CURVE SMOOTH",
"316 420 OFFCURVE",
"364 384 OFFCURVE",
"364 313 CURVE SMOOTH",
"364 224 LINE"
);
},
{
closed = 1;
nodes = (
"324 -10 OFFCURVE",
"412 62 OFFCURVE",
"428 169 CURVE",
"399 183 LINE",
"383 108 OFFCURVE",
"318 60 OFFCURVE",
"234 60 CURVE SMOOTH",
"170 60 OFFCURVE",
"129 89 OFFCURVE",
"129 134 CURVE SMOOTH",
"129 196 OFFCURVE",
"203 219 OFFCURVE",
"371 219 CURVE",
"371 279 LINE",
"164 279 OFFCURVE",
"49 225 OFFCURVE",
"49 120 CURVE SMOOTH",
"49 42 OFFCURVE",
"113 -10 OFFCURVE",
"210 -10 CURVE SMOOTH"
);
},
{
closed = 1;
nodes = (
"663 -10 OFFCURVE",
"711 1 OFFCURVE",
"767 26 CURVE",
"749 84 LINE",
"703 65 OFFCURVE",
"662 55 OFFCURVE",
"621 55 CURVE SMOOTH",
"510 55 OFFCURVE",
"434 130 OFFCURVE",
"434 255 CURVE SMOOTH",
"434 364 OFFCURVE",
"491 424 OFFCURVE",
"579 424 CURVE SMOOTH",
"661 424 OFFCURVE",
"709 371 OFFCURVE",
"709 279 CURVE",
"428 279 LINE",
"428 219 LINE",
"780 219 LINE",
"782 234 OFFCURVE",
"784 269 OFFCURVE",
"784 288 CURVE SMOOTH",
"784 409 OFFCURVE",
"704 492 OFFCURVE",
"585 492 CURVE SMOOTH",
"451 492 OFFCURVE",
"360 388 OFFCURVE",
"360 236 CURVE SMOOTH",
"360 82 OFFCURVE",
"453 -10 OFFCURVE",
"609 -10 CURVE SMOOTH"
);
}
);
width = 837;
},
{
anchors = (
{
name = bottom;
position = "{425, 0}";
},
{
name = top;
position = "{425, 490}";
}
);
layerId = "51C2DFEF-3776-4D13-9284-96485B799B57";
paths = (
{
closed = 1;
nodes = (
"454 255 LINE",
"454 282 LINE SMOOTH",
"454 437 OFFCURVE",
"399 500 OFFCURVE",
"264 500 CURVE SMOOTH",
"183 500 OFFCURVE",
"99 477 OFFCURVE",
"35 438 CURVE",
"73 321 LINE",
"125 345 OFFCURVE",
"181 359 OFFCURVE",
"225 359 CURVE SMOOTH",
"286 359 OFFCURVE",
"321 331 OFFCURVE",
"321 282 CURVE SMOOTH",
"321 255 LINE"
);
},
{
closed = 1;
nodes = (
"305 -10 OFFCURVE",
"396 56 OFFCURVE",
"421 155 CURVE",
"368 178 LINE",
"335 140 OFFCURVE",
"294 119 OFFCURVE",
"254 119 CURVE SMOOTH",
"222 119 OFFCURVE",
"202 133 OFFCURVE",
"202 157 CURVE SMOOTH",
"202 190 OFFCURVE",
"241 201 OFFCURVE",
"356 201 CURVE",
"356 305 LINE",
"157 305 OFFCURVE",
"28 234 OFFCURVE",
"28 123 CURVE SMOOTH",
"28 44 OFFCURVE",
"94 -10 OFFCURVE",
"194 -10 CURVE SMOOTH"
);
},
{
closed = 1;
nodes = (
"648 -10 OFFCURVE",
"711 1 OFFCURVE",
"773 22 CURVE",
"734 141 LINE",
"694 127 OFFCURVE",
"654 120 OFFCURVE",
"617 120 CURVE SMOOTH",
"521 120 OFFCURVE",
"478 165 OFFCURVE",
"478 264 CURVE SMOOTH",
"478 336 OFFCURVE",
"501 369 OFFCURVE",
"551 369 CURVE SMOOTH",
"591 369 OFFCURVE",
"612 348 OFFCURVE",
"612 303 CURVE",
"452 303 LINE",
"452 183 LINE",
"775 183 LINE",
"779 209 OFFCURVE",
"782 245 OFFCURVE",
"782 273 CURVE SMOOTH",
"782 417 OFFCURVE",
"701 500 OFFCURVE",
"561 500 CURVE SMOOTH",
"414 500 OFFCURVE",
"332 408 OFFCURVE",
"332 245 CURVE SMOOTH",
"332 77 OFFCURVE",
"419 -10 OFFCURVE",
"588 -10 CURVE SMOOTH"
);
}
);
width = 821;
},
{
anchors = (
{
name = bottom;
position = "{423, 0}";
},
{
name = top;
position = "{423, 480}";
}
);
layerId = "0B2E441B-685E-400D-9B9B-E078DEED62EF";
paths = (
{
closed = 1;
nodes = (
"406 239 LINE",
"406 327 LINE SMOOTH",
"406 429 OFFCURVE",
"349 486 OFFCURVE",
"247 486 CURVE SMOOTH",
"181 486 OFFCURVE",
"112 463 OFFCURVE",
"66 426 CURVE",
"71 412 LINE",
"116 447 OFFCURVE",
"179 468 OFFCURVE",
"241 468 CURVE SMOOTH",
"338 468 OFFCURVE",
"391 416 OFFCURVE",
"391 322 CURVE SMOOTH",
"391 239 LINE"
);
},
{
closed = 1;
nodes = (
"313 -10 OFFCURVE",
"397 55 OFFCURVE",
"414 154 CURVE",
"403 162 LINE",
"389 73 OFFCURVE",
"314 8 OFFCURVE",
"214 8 CURVE SMOOTH",
"136 8 OFFCURVE",
"84 48 OFFCURVE",
"84 112 CURVE SMOOTH",
"84 202 OFFCURVE",
"187 244 OFFCURVE",
"399 244 CURVE",
"399 262 LINE",
"183 262 OFFCURVE",
"63 210 OFFCURVE",
"63 109 CURVE SMOOTH",
"63 37 OFFCURVE",
"123 -10 OFFCURVE",
"210 -10 CURVE SMOOTH"
);
},
{
closed = 1;
nodes = (
"673 -10 OFFCURVE",
"720 5 OFFCURVE",
"761 37 CURVE",
"756 51 LINE",
"714 21 OFFCURVE",
"670 6 OFFCURVE",
"618 6 CURVE SMOOTH",
"493 6 OFFCURVE",
"411 93 OFFCURVE",
"411 241 CURVE SMOOTH",
"411 376 OFFCURVE",
"480 468 OFFCURVE",
"590 468 CURVE SMOOTH",
"698 468 OFFCURVE",
"761 380 OFFCURVE",
"761 261 CURVE",
"400 261 LINE",
"400 244 LINE",
"781 244 LINE",
"782 251 OFFCURVE",
"782 256 OFFCURVE",
"782 264 CURVE SMOOTH",
"782 388 OFFCURVE",
"709 486 OFFCURVE",
"592 486 CURVE SMOOTH",
"474 486 OFFCURVE",
"391 386 OFFCURVE",
"391 239 CURVE SMOOTH",
"391 87 OFFCURVE",
"479 -10 OFFCURVE",
"618 -10 CURVE SMOOTH"
);
}
);
width = 845;
},
{
anchors = (
{
name = bottom;
position = "{425, 0}";
},
{
name = top;
position = "{425, 490}";
}
);
associatedMasterId = "51C2DFEF-3776-4D13-9284-96485B799B57";
layerId = "9718BF40-5236-49D5-BDC0-A9723EBFF883";
name = "Nov 9 17, 19:44";
paths = (
{
closed = 1;
nodes = (
"447 249 LINE",
"447 282 LINE SMOOTH",
"447 437 OFFCURVE",
"394 500 OFFCURVE",
"266 500 CURVE SMOOTH",
"186 500 OFFCURVE",
"102 475 OFFCURVE",
"39 433 CURVE",
"78 317 LINE",
"123 342 OFFCURVE",
"178 356 OFFCURVE",
"227 356 CURVE SMOOTH",
"291 356 OFFCURVE",
"324 331 OFFCURVE",
"324 282 CURVE SMOOTH",
"324 249 LINE"
);
},
{
closed = 1;
nodes = (
"294 -10 OFFCURVE",
"367 38 OFFCURVE",
"424 145 CURVE",
"371 168 LINE",
"338 130 OFFCURVE",
"295 119 OFFCURVE",
"261 119 CURVE SMOOTH",
"222 119 OFFCURVE",
"202 133 OFFCURVE",
"202 154 CURVE SMOOTH",
"202 184 OFFCURVE",
"243 195 OFFCURVE",
"359 195 CURVE",
"359 299 LINE",
"155 299 OFFCURVE",
"28 232 OFFCURVE",
"28 124 CURVE SMOOTH",
"28 45 OFFCURVE",
"95 -10 OFFCURVE",
"198 -10 CURVE SMOOTH"
);
},
{
closed = 1;
nodes = (
"675 -10 OFFCURVE",
"741 4 OFFCURVE",
"805 30 CURVE",
"771 149 LINE",
"722 136 OFFCURVE",
"677 129 OFFCURVE",
"635 129 CURVE SMOOTH",
"533 129 OFFCURVE",
"486 171 OFFCURVE",
"486 259 CURVE SMOOTH",
"486 330 OFFCURVE",
"517 370 OFFCURVE",
"572 370 CURVE SMOOTH",
"616 370 OFFCURVE",
"641 344 OFFCURVE",
"641 298 CURVE",
"472 298 LINE",
"472 195 LINE",
"804 195 LINE",
"809 220 OFFCURVE",
"811 248 OFFCURVE",
"811 271 CURVE SMOOTH",
"811 418 OFFCURVE",
"728 500 OFFCURVE",
"586 500 CURVE SMOOTH",
"427 500 OFFCURVE",
"322 398 OFFCURVE",
"322 243 CURVE SMOOTH",
"322 85 OFFCURVE",
"431 -10 OFFCURVE",
"607 -10 CURVE SMOOTH"
);
}
);
width = 850;
},
{
anchors = (
{
name = bottom;
position = "{425, 0}";
},
{
name = top;
position = "{425, 490}";
}
);
associatedMasterId = "51C2DFEF-3776-4D13-9284-96485B799B57";
layerId = "E0A0E3FB-D013-4737-A87E-7AC687215C1D";
name = "Nov 10 17, 22:58";
paths = (
{
closed = 1;
nodes = (
"447 249 LINE",
"447 282 LINE SMOOTH",
"447 437 OFFCURVE",
"394 500 OFFCURVE",
"266 500 CURVE SMOOTH",
"186 500 OFFCURVE",
"102 475 OFFCURVE",
"39 433 CURVE",
"78 317 LINE",
"123 342 OFFCURVE",
"178 356 OFFCURVE",
"227 356 CURVE SMOOTH",
"291 356 OFFCURVE",
"324 331 OFFCURVE",
"324 282 CURVE SMOOTH",
"324 249 LINE"
);
},
{
closed = 1;
nodes = (
"294 -10 OFFCURVE",
"367 38 OFFCURVE",
"424 145 CURVE",
"371 168 LINE",
"338 130 OFFCURVE",
"295 119 OFFCURVE",
"261 119 CURVE SMOOTH",
"226 119 OFFCURVE",
"202 131 OFFCURVE",
"202 149 CURVE SMOOTH",
"202 174 OFFCURVE",
"244 183 OFFCURVE",
"359 183 CURVE",
"359 303 LINE",
"157 303 OFFCURVE",
"28 233 OFFCURVE",
"28 124 CURVE SMOOTH",
"28 45 OFFCURVE",
"95 -10 OFFCURVE",
"198 -10 CURVE SMOOTH"
);
},
{
closed = 1;
nodes = (
"683 -10 OFFCURVE",
"744 3 OFFCURVE",
"806 30 CURVE",
"769 143 LINE",
"734 129 OFFCURVE",
"688 120 OFFCURVE",
"644 120 CURVE SMOOTH",
"544 120 OFFCURVE",
"502 167 OFFCURVE",
"502 263 CURVE SMOOTH",
"502 334 OFFCURVE",
"525 369 OFFCURVE",
"578 369 CURVE SMOOTH",
"619 369 OFFCURVE",
"641 348 OFFCURVE",
"641 303 CURVE",
"476 303 LINE",
"476 183 LINE",
"804 183 LINE",
"808 207 OFFCURVE",
"811 247 OFFCURVE",
"811 274 CURVE SMOOTH",
"811 417 OFFCURVE",
"728 500 OFFCURVE",
"587 500 CURVE SMOOTH",
"430 500 OFFCURVE",
"326 398 OFFCURVE",
"326 244 CURVE SMOOTH",
"326 84 OFFCURVE",
"438 -10 OFFCURVE",
"617 -10 CURVE SMOOTH"
);
}
);
width = 850;
}
);
leftMetricsKey = a;
rightMetricsKey = e;
unicode = 00E6;
},
{
glyphname = c;
layers = (
{
anchors = (
{
name = bottom;
position = "{255, 0}";
},
{
name = top;
position = "{275, 482}";
}
);
layerId = "F333AEC5-BB61-4D5E-9EDD-6124322D28F2";
paths = (
{
closed = 1;
nodes = (
"339 -10 OFFCURVE",
"400 4 OFFCURVE",
"441 28 CURVE",
"423 86 LINE",
"382 67 OFFCURVE",
"335 56 OFFCURVE",
"297 56 CURVE SMOOTH",
"194 56 OFFCURVE",
"135 125 OFFCURVE",
"135 243 CURVE SMOOTH",
"135 359 OFFCURVE",
"193 422 OFFCURVE",
"297 422 CURVE SMOOTH",
"337 422 OFFCURVE",
"380 413 OFFCURVE",
"422 395 CURVE",
"441 460 LINE",
"396 481 OFFCURVE",
"347 492 OFFCURVE",
"298 492 CURVE SMOOTH",
"151 492 OFFCURVE",
"53 386 OFFCURVE",
"53 227 CURVE SMOOTH",
"53 78 OFFCURVE",
"137 -10 OFFCURVE",
"278 -10 CURVE SMOOTH"
);
}
);
width = 481;
},
{
anchors = (
{
name = bottom;
position = "{240, 0}";
},
{
name = top;
position = "{257, 490}";
}
);
layerId = "51C2DFEF-3776-4D13-9284-96485B799B57";
paths = (
{
closed = 1;
nodes = (
"362 -10 OFFCURVE",
"414 2 OFFCURVE",
"466 28 CURVE",
"428 145 LINE",
"400 134 OFFCURVE",
"369 128 OFFCURVE",
"337 128 CURVE SMOOTH",
"252 128 OFFCURVE",
"204 171 OFFCURVE",
"204 248 CURVE SMOOTH",
"204 317 OFFCURVE",
"244 356 OFFCURVE",
"317 356 CURVE SMOOTH",
"350 356 OFFCURVE",
"392 348 OFFCURVE",
"427 335 CURVE",
"464 472 LINE",
"413 491 OFFCURVE",
"366 500 OFFCURVE",
"314 500 CURVE SMOOTH",
"138 500 OFFCURVE",
"28 398 OFFCURVE",
"28 236 CURVE SMOOTH",
"28 81 OFFCURVE",
"129 -10 OFFCURVE",
"300 -10 CURVE SMOOTH"
);
}
);
width = 489;
},
{
anchors = (
{
name = bottom;
position = "{237, 0}";
},
{
name = top;
position = "{253, 480}";
}
);
layerId = "0B2E441B-685E-400D-9B9B-E078DEED62EF";
paths = (
{
closed = 1;
nodes = (
"331 -10 OFFCURVE",
"383 4 OFFCURVE",
"425 28 CURVE",
"420 42 LINE",
"375 18 OFFCURVE",
"328 6 OFFCURVE",
"286 6 CURVE SMOOTH",
"169 6 OFFCURVE",
"93 98 OFFCURVE",
"93 241 CURVE SMOOTH",
"93 384 OFFCURVE",
"168 468 OFFCURVE",
"294 468 CURVE SMOOTH",
"340 468 OFFCURVE",
"381 457 OFFCURVE",
"420 436 CURVE",
"427 452 LINE",
"385 475 OFFCURVE",
"343 486 OFFCURVE",
"296 486 CURVE SMOOTH",
"157 486 OFFCURVE",
"72 391 OFFCURVE",
"72 236 CURVE SMOOTH",
"72 85 OFFCURVE",
"153 -10 OFFCURVE",
"282 -10 CURVE SMOOTH"
);
}
);
width = 476;
}
);
note = c;
unicode = 0063;
},
{
glyphname = eth;
layers = (
{
layerId = "F333AEC5-BB61-4D5E-9EDD-6124322D28F2";
paths = (
{
closed = 1;
nodes = (
"413 -9 OFFCURVE",
"496 94 OFFCURVE",
"496 273 CURVE SMOOTH",
"496 499 OFFCURVE",
"378 662 OFFCURVE",
"152 748 CURVE",
"132 688 LINE",
"316 609 OFFCURVE",
"424 467 OFFCURVE",
"424 305 CURVE",
"446 327 LINE",
"414 404 OFFCURVE",
"347 449 OFFCURVE",
"262 449 CURVE SMOOTH",
"138 449 OFFCURVE",
"51 354 OFFCURVE",
"51 215 CURVE SMOOTH",
"51 78 OFFCURVE",
"136 -9 OFFCURVE",
"268 -9 CURVE SMOOTH"
);
},
{
closed = 1;
nodes = (
"187 61 OFFCURVE",
"131 126 OFFCURVE",
"131 230 CURVE SMOOTH",
"131 325 OFFCURVE",
"178 379 OFFCURVE",
"261 379 CURVE SMOOTH",
"353 379 OFFCURVE",
"418 311 OFFCURVE",
"418 213 CURVE SMOOTH",
"418 121 OFFCURVE",
"361 61 OFFCURVE",
"276 61 CURVE SMOOTH"
);
},
{
closed = 1;
nodes = (
"423 681 LINE",
"396 730 LINE",
"136 594 LINE",
"163 546 LINE"
);
}
);
width = 558;
},
{
layerId = "51C2DFEF-3776-4D13-9284-96485B799B57";
paths = (
{
closed = 1;
nodes = (
"442 -9 OFFCURVE",
"531 94 OFFCURVE",
"531 274 CURVE SMOOTH",
"531 514 OFFCURVE",
"391 678 OFFCURVE",
"149 750 CURVE",
"105 615 LINE",
"261 561 OFFCURVE",
"354 469 OFFCURVE",
"354 367 CURVE",
"461 282 LINE",
"461 382 OFFCURVE",
"397 447 OFFCURVE",
"275 447 CURVE SMOOTH",
"125 447 OFFCURVE",
"25 354 OFFCURVE",
"25 215 CURVE SMOOTH",
"25 78 OFFCURVE",
"125 -9 OFFCURVE",
"277 -9 CURVE SMOOTH"
);
},
{
closed = 1;
nodes = (
"235 131 OFFCURVE",
"202 168 OFFCURVE",
"202 224 CURVE SMOOTH",
"202 275 OFFCURVE",
"231 307 OFFCURVE",
"279 307 CURVE SMOOTH",
"328 307 OFFCURVE",
"361 270 OFFCURVE",
"361 215 CURVE SMOOTH",
"361 164 OFFCURVE",
"331 131 OFFCURVE",
"285 131 CURVE SMOOTH"
);
},
{
closed = 1;
nodes = (
"490 653 LINE",
"438 745 LINE",
"105 548 LINE",
"157 457 LINE"
);
}
);
width = 569;
},
{
layerId = "0B2E441B-685E-400D-9B9B-E078DEED62EF";
paths = (
{
closed = 1;
nodes = (
"393 -9 OFFCURVE",
"466 86 OFFCURVE",
"466 249 CURVE SMOOTH",
"466 489 OFFCURVE",
"344 687 OFFCURVE",
"159 744 CURVE",
"153 728 LINE",
"335 667 OFFCURVE",
"453 471 OFFCURVE",
"447 237 CURVE",
"449 317 LINE",
"424 400 OFFCURVE",
"357 449 OFFCURVE",
"269 449 CURVE SMOOTH",
"149 449 OFFCURVE",
"69 358 OFFCURVE",
"69 221 CURVE SMOOTH",
"69 83 OFFCURVE",
"154 -9 OFFCURVE",
"273 -9 CURVE SMOOTH"
);
},
{
closed = 1;
nodes = (
"167 9 OFFCURVE",
"90 94 OFFCURVE",
"90 226 CURVE SMOOTH",
"90 351 OFFCURVE",
"158 431 OFFCURVE",
"267 431 CURVE SMOOTH",
"373 431 OFFCURVE",
"446 356 OFFCURVE",
"446 221 CURVE SMOOTH",
"446 94 OFFCURVE",
"377 9 OFFCURVE",
"274 9 CURVE SMOOTH"
);
},
{
closed = 1;
nodes = (
"384 710 LINE",
"377 724 LINE",
"155 612 LINE",
"163 598 LINE"
);
}
);
width = 546;
}
);
unicode = 00F0;
},
{
glyphname = e;
layers = (
{
anchors = (
{
name = "#entry";
position = "{92, 236}";
},
{
name = bottom;
position = "{287, 0}";
},
{
name = ogonek;
position = "{430, 10}";
},
{
name = top;
position = "{272, 482}";
}
);
associatedMasterId = "F333AEC5-BB61-4D5E-9EDD-6124322D28F2";
layerId = "91DE0B1C-30D9-4C38-87F3-02620E7556DE";
name = "Aug 19 17, 13:53";
paths = (
{
closed = 1;
nodes = (
"351 -10 OFFCURVE",
"410 5 OFFCURVE",
"459 27 CURVE",
"445 83 LINE",
"403 66 OFFCURVE",
"358 55 OFFCURVE",
"317 55 CURVE SMOOTH",
"207 55 OFFCURVE",
"136 133 OFFCURVE",
"136 251 CURVE SMOOTH",
"136 353 OFFCURVE",
"188 422 OFFCURVE",
"273 422 CURVE SMOOTH",
"348 422 OFFCURVE",
"397 369 OFFCURVE",
"397 279 CURVE",
"121 279 LINE",
"121 219 LINE",
"473 219 LINE",
"475 234 OFFCURVE",
"477 269 OFFCURVE",
"477 289 CURVE SMOOTH",
"477 413 OFFCURVE",
"397 492 OFFCURVE",
"279 492 CURVE SMOOTH",
"145 492 OFFCURVE",
"53 391 OFFCURVE",
"53 236 CURVE SMOOTH",
"53 82 OFFCURVE",
"144 -10 OFFCURVE",
"291 -10 CURVE SMOOTH"
);
}
);
width = 533;
},
{
anchors = (
{
name = "#entry";
position = "{92, 236}";
},
{
name = bottom;
position = "{287, 0}";
},
{
name = ogonek;
position = "{430, 10}";
},
{
name = top;
position = "{272, 482}";
}
);
background = {
paths = (
{
closed = 1;
nodes = (
"419 -10 OFFCURVE",
"516 92 OFFCURVE",
"516 247 CURVE SMOOTH",
"516 394 OFFCURVE",
"429 492 OFFCURVE",
"290 492 CURVE SMOOTH",
"148 492 OFFCURVE",
"53 390 OFFCURVE",
"53 236 CURVE SMOOTH",
"53 89 OFFCURVE",
"139 -10 OFFCURVE",
"278 -10 CURVE SMOOTH"
);
},
{
closed = 1;
nodes = (
"197 60 OFFCURVE",
"133 134 OFFCURVE",
"133 246 CURVE SMOOTH",
"133 352 OFFCURVE",
"189 422 OFFCURVE",
"279 422 CURVE SMOOTH",
"371 422 OFFCURVE",
"436 348 OFFCURVE",
"436 236 CURVE SMOOTH",
"436 131 OFFCURVE",
"379 60 OFFCURVE",
"289 60 CURVE SMOOTH"
);
}
);
};
layerId = "F333AEC5-BB61-4D5E-9EDD-6124322D28F2";
paths = (
{
closed = 1;
nodes = (
"356 -10 OFFCURVE",
"416 3 OFFCURVE",
"459 26 CURVE",
"441 84 LINE",
"404 66 OFFCURVE",
"357 55 OFFCURVE",
"315 55 CURVE SMOOTH",
"202 55 OFFCURVE",
"135 130 OFFCURVE",
"135 255 CURVE SMOOTH",
"135 364 OFFCURVE",
"184 424 OFFCURVE",
"272 424 CURVE SMOOTH",
"354 424 OFFCURVE",
"402 371 OFFCURVE",
"402 279 CURVE",
"121 279 LINE",
"121 219 LINE",
"473 219 LINE",
"475 234 OFFCURVE",
"477 269 OFFCURVE",
"477 288 CURVE SMOOTH",
"477 409 OFFCURVE",
"397 492 OFFCURVE",
"278 492 CURVE SMOOTH",
"144 492 OFFCURVE",
"53 388 OFFCURVE",
"53 236 CURVE SMOOTH",
"53 82 OFFCURVE",
"146 -10 OFFCURVE",
"298 -10 CURVE SMOOTH"
);
}
);
width = 530;
},
{
anchors = (
{
name = "#entry";
position = "{109, 236}";
},
{
name = bottom;
position = "{274, 0}";
},
{
name = ogonek;
position = "{441, 10}";
},
{
name = top;
position = "{276, 490}";
}
);
layerId = "51C2DFEF-3776-4D13-9284-96485B799B57";
paths = (
{
closed = 1;
nodes = (
"373 -10 OFFCURVE",
"436 1 OFFCURVE",
"498 22 CURVE",
"459 141 LINE",
"419 127 OFFCURVE",
"379 120 OFFCURVE",
"342 120 CURVE SMOOTH",
"246 120 OFFCURVE",
"203 165 OFFCURVE",
"203 264 CURVE SMOOTH",
"203 337 OFFCURVE",
"227 369 OFFCURVE",
"277 369 CURVE SMOOTH",
"316 369 OFFCURVE",
"337 348 OFFCURVE",
"337 303 CURVE",
"177 303 LINE",
"177 183 LINE",
"500 183 LINE",
"504 209 OFFCURVE",
"507 245 OFFCURVE",
"507 273 CURVE SMOOTH",
"507 417 OFFCURVE",
"426 500 OFFCURVE",
"286 500 CURVE SMOOTH",
"130 500 OFFCURVE",
"27 398 OFFCURVE",
"27 244 CURVE SMOOTH",
"27 86 OFFCURVE",
"135 -10 OFFCURVE",
"313 -10 CURVE SMOOTH"
);
}
);
width = 546;
},
{
anchors = (
{
name = "#entry";
position = "{82, 245}";
},
{
name = bottom;
position = "{263, 0}";
},
{
name = ogonek;
position = "{435, 10}";
},
{
name = top;
position = "{267, 480}";
}
);
layerId = "0B2E441B-685E-400D-9B9B-E078DEED62EF";
paths = (
{
closed = 1;
nodes = (
"348 -10 OFFCURVE",
"397 3 OFFCURVE",
"437 30 CURVE",
"432 44 LINE",
"389 19 OFFCURVE",
"344 6 OFFCURVE",
"298 6 CURVE SMOOTH",
"171 6 OFFCURVE",
"93 95 OFFCURVE",
"93 241 CURVE SMOOTH",
"93 381 OFFCURVE",
"160 468 OFFCURVE",
"270 468 CURVE SMOOTH",
"375 468 OFFCURVE",
"439 387 OFFCURVE",
"439 256 CURVE",
"81 256 LINE",
"81 239 LINE",
"459 239 LINE",
"460 246 OFFCURVE",
"460 251 OFFCURVE",
"460 259 CURVE SMOOTH",
"460 395 OFFCURVE",
"385 486 OFFCURVE",
"272 486 CURVE SMOOTH",
"151 486 OFFCURVE",
"71 387 OFFCURVE",
"71 239 CURVE SMOOTH",
"71 87 OFFCURVE",
"159 -10 OFFCURVE",
"296 -10 CURVE SMOOTH"
);
}
);
width = 523;
}
);
note = e;
unicode = 0065;
},
{
glyphname = f;
layers = (
{
anchors = (
{
name = "#hook";
position = "{141, 0}";
},
{
name = bottom;
position = "{140, 0}";
},
{
name = top;
position = "{267, 739}";
}
);
layerId = "F333AEC5-BB61-4D5E-9EDD-6124322D28F2";
paths = (
{
closed = 1;
nodes = (
"180 0 LINE",
"180 587 LINE SMOOTH",
"180 649 OFFCURVE",
"209 681 OFFCURVE",
"264 681 CURVE SMOOTH",
"290 681 OFFCURVE",
"323 674 OFFCURVE",
"348 662 CURVE",
"367 726 LINE",
"336 741 OFFCURVE",
"304 749 OFFCURVE",
"270 749 CURVE SMOOTH",
"168 749 OFFCURVE",
"100 680 OFFCURVE",
"100 577 CURVE SMOOTH",
"100 0 LINE"
);
},
{
closed = 1;
nodes = (
"330 415 LINE",
"330 482 LINE",
"28 482 LINE",
"28 415 LINE"
);
}
);
width = 358;
},
{
anchors = (
{
name = "#hook";
position = "{178, 0}";
},
{
name = bottom;
position = "{173, 0}";
},
{
name = top;
position = "{321, 739}";
}
);
layerId = "51C2DFEF-3776-4D13-9284-96485B799B57";
paths = (
{
closed = 1;
nodes = (
"266 0 LINE",
"266 534 LINE SMOOTH",
"266 581 OFFCURVE",
"293 607 OFFCURVE",
"340 607 CURVE SMOOTH",
"362 607 OFFCURVE",
"390 601 OFFCURVE",
"417 589 CURVE",
"453 723 LINE",
"422 740 OFFCURVE",
"376 749 OFFCURVE",
"328 749 CURVE SMOOTH",
"182 749 OFFCURVE",
"93 662 OFFCURVE",
"93 518 CURVE SMOOTH",
"93 0 LINE"
);
},
{
closed = 1;
nodes = (
"403 355 LINE",
"403 490 LINE",
"14 490 LINE",
"14 355 LINE"
);
}
);
width = 417;
},
{
anchors = (
{
name = "#hook";
position = "{123, 0}";
},
{
name = bottom;
position = "{122, 0}";
},
{
name = top;
position = "{223, 739}";
}
);
layerId = "0B2E441B-685E-400D-9B9B-E078DEED62EF";
paths = (
{
closed = 1;
nodes = (
"134 0 LINE",
"134 636 LINE SMOOTH",
"134 695 OFFCURVE",
"168 731 OFFCURVE",
"225 731 CURVE SMOOTH",
"252 731 OFFCURVE",
"281 723 OFFCURVE",
"300 711 CURVE",
"306 727 LINE",
"285 741 OFFCURVE",
"257 749 OFFCURVE",
"228 749 CURVE SMOOTH",
"161 749 OFFCURVE",
"114 702 OFFCURVE",
"114 631 CURVE SMOOTH",
"114 0 LINE"
);
},
{
closed = 1;
nodes = (
"288 463 LINE",
"288 480 LINE",
"37 480 LINE",
"37 463 LINE"
);
}
);
width = 325;
}
);
note = f;
unicode = 0066;
},
{
glyphname = h;
layers = (
{
anchors = (
{
name = "#entry";
position = "{153, 401}";
},
{
name = "#exit";
position = "{153, 401}";
},
{
name = "#hook";
position = "{459, 0}";
},
{
name = bottom;
position = "{285, 0}";
},
{
name = center;
position = "{163, 608}";
},
{
name = top;
position = "{291, 739}";
}
);
background = {
components = (
{
name = _stem.d;
transform = "{1, 0, 0, 1, 309, 0}";
},
{
name = _bowl.d;
transform = "{1, 0, 0, 1, -9, 0}";
}
);
};
layerId = "F333AEC5-BB61-4D5E-9EDD-6124322D28F2";
paths = (
{
closed = 1;
nodes = (
"165 0 LINE",
"165 739 LINE",
"85 739 LINE",
"85 0 LINE"
);
},
{
closed = 1;
nodes = (
"498 0 LINE",
"498 316 LINE SMOOTH",
"498 423 OFFCURVE",
"427 492 OFFCURVE",
"319 492 CURVE SMOOTH",
"249 492 OFFCURVE",
"180 462 OFFCURVE",
"129 403 CURVE",
"148 352 LINE",
"188 399 OFFCURVE",
"241 422 OFFCURVE",
"297 422 CURVE SMOOTH",
"375 422 OFFCURVE",
"418 378 OFFCURVE",
"418 300 CURVE SMOOTH",
"418 0 LINE"
);
}
);
width = 574;
},
{
anchors = (
{
name = "#entry";
position = "{219, 401}";
},
{
name = "#exit";
position = "{219, 401}";
},
{
name = "#hook";
position = "{465, 0}";
},
{
name = bottom;
position = "{304, 0}";
},
{
name = center;
position = "{185, 600}";
},
{
name = top;
position = "{324, 739}";
}
);
layerId = "51C2DFEF-3776-4D13-9284-96485B799B57";
paths = (
{
closed = 1;
nodes = (
"235 0 LINE",
"235 739 LINE",
"62 739 LINE",
"62 0 LINE"
);
},
{
closed = 1;
nodes = (
"549 0 LINE",
"549 304 LINE SMOOTH",
"549 422 OFFCURVE",
"481 496 OFFCURVE",
"370 496 CURVE SMOOTH",
"300 496 OFFCURVE",
"240 465 OFFCURVE",
"200 398 CURVE",
"219 295 LINE",
"244 332 OFFCURVE",
"271 346 OFFCURVE",
"305 346 CURVE SMOOTH",
"355 346 OFFCURVE",
"376 320 OFFCURVE",
"376 265 CURVE SMOOTH",
"376 0 LINE"
);
}
);
width = 600;
},
{
anchors = (
{
name = "#entry";
position = "{129, 401}";
},
{
name = "#exit";
position = "{129, 401}";
},
{
name = "#hook";
position = "{452, 0}";
},
{
name = bottom;
position = "{280, 0}";
},
{
name = center;
position = "{179, 607}";
},
{
name = top;
position = "{300, 739}";
}
);
layerId = "0B2E441B-685E-400D-9B9B-E078DEED62EF";
paths = (
{
closed = 1;
nodes = (
"122 0 LINE",
"122 739 LINE",
"102 739 LINE",
"102 0 LINE"
);
},
{
closed = 1;
nodes = (
"461 0 LINE",
"461 314 LINE SMOOTH",
"461 421 OFFCURVE",
"400 486 OFFCURVE",
"298 486 CURVE SMOOTH",
"225 486 OFFCURVE",
"155 452 OFFCURVE",
"108 394 CURVE",
"117 383 LINE",
"160 436 OFFCURVE",
"226 468 OFFCURVE",
"294 468 CURVE SMOOTH",
"386 468 OFFCURVE",
"440 411 OFFCURVE",
"440 314 CURVE SMOOTH",
"440 0 LINE"
);
}
);
width = 554;
},
{
associatedMasterId = "0B2E441B-685E-400D-9B9B-E078DEED62EF";
layerId = "D8BCD29D-2EC0-41B9-85E4-32E264350C95";
name = "Sep 11 17, 19:08";
paths = (
{
closed = 1;
nodes = (
"120 0 LINE",
"120 739 LINE",
"100 739 LINE",
"100 0 LINE"
);
},
{
closed = 1;
nodes = (
"478 0 LINE",
"478 338 LINE SMOOTH",
"478 429 OFFCURVE",
"410 490 OFFCURVE",
"308 490 CURVE SMOOTH",
"238 490 OFFCURVE",
"170 462 OFFCURVE",
"112 407 CURVE",
"112 391 LINE",
"173 444 OFFCURVE",
"239 471 OFFCURVE",
"303 471 CURVE SMOOTH",
"396 471 OFFCURVE",
"458 414 OFFCURVE",
"458 328 CURVE SMOOTH",
"458 0 LINE"
);
}
);
width = 541;
}
);
note = h;
unicode = 0068;
},
{
glyphname = idotless;
layers = (
{
anchors = (
{
name = bottom;
position = "{125, 0}";
},
{
name = ogonek;
position = "{153, 10}";
},
{
name = top;
position = "{125, 482}";
}
);
layerId = "F333AEC5-BB61-4D5E-9EDD-6124322D28F2";
paths = (
{
closed = 1;
nodes = (
"165 0 LINE",
"165 482 LINE",
"85 482 LINE",
"85 0 LINE"
);
}
);
width = 250;
},
{
anchors = (
{
name = bottom;
position = "{149, 0}";
},
{
name = ogonek;
position = "{197, 10}";
},
{
name = top;
position = "{149, 490}";
}
);
layerId = "51C2DFEF-3776-4D13-9284-96485B799B57";
paths = (
{
closed = 1;
nodes = (
"235 0 LINE",
"235 490 LINE",
"62 490 LINE",
"62 0 LINE"
);
}
);
width = 297;
},
{
anchors = (
{
name = bottom;
position = "{112, 0}";
},
{
name = ogonek;
position = "{121, 10}";
},
{
name = top;
position = "{112, 480}";
}
);
layerId = "0B2E441B-685E-400D-9B9B-E078DEED62EF";
paths = (
{
closed = 1;
nodes = (
"123 0 LINE",
"123 480 LINE",
"102 480 LINE",
"102 0 LINE"
);
}
);
width = 225;
}
);
note = dotlessi;
unicode = 0131;
},
{
glyphname = jdotless;
layers = (
{
anchors = (
{
name = bottom;
position = "{126, 0}";
},
{
name = top;
position = "{126, 482}";
}
);
layerId = "F333AEC5-BB61-4D5E-9EDD-6124322D28F2";
paths = (
{
closed = 1;
nodes = (
"113 -187 OFFCURVE",
"166 -111 OFFCURVE",
"166 -23 CURVE SMOOTH",
"166 482 LINE",
"86 482 LINE",
"86 -35 LINE SMOOTH",
"86 -91 OFFCURVE",
"50 -148 OFFCURVE",
"-4 -179 CURVE",
"22 -227 LINE"
);
}
);
width = 251;
},
{
anchors = (
{
name = bottom;
position = "{139, 0}";
},
{
name = top;
position = "{149, 490}";
}
);
layerId = "51C2DFEF-3776-4D13-9284-96485B799B57";
paths = (
{
closed = 1;
nodes = (
"153 -186 OFFCURVE",
"235 -83 OFFCURVE",
"235 31 CURVE SMOOTH",
"235 490 LINE",
"62 490 LINE",
"62 31 LINE SMOOTH",
"62 -32 OFFCURVE",
"30 -93 OFFCURVE",
"-24 -132 CURVE",
"29 -227 LINE"
);
}
);
width = 297;
},
{
anchors = (
{
name = bottom;
position = "{113, 0}";
},
{
name = top;
position = "{113, 480}";
}
);
layerId = "0B2E441B-685E-400D-9B9B-E078DEED62EF";
paths = (
{
closed = 1;
nodes = (
"81 -194 OFFCURVE",
"124 -132 OFFCURVE",
"124 -67 CURVE SMOOTH",
"124 480 LINE",
"103 480 LINE",
"103 -67 LINE SMOOTH",
"103 -125 OFFCURVE",
"66 -181 OFFCURVE",
"10 -209 CURVE",
"17 -222 LINE"
);
}
);
width = 226;
}
);
note = uni0237;
unicode = 0237;
},
{
glyphname = l;
layers = (
{
anchors = (
{
name = "#periodcentered";
position = "{295, 353}";
},
{
name = bottom;
position = "{165, 0}";
},
{
name = center;
position = "{144, 381}";
},
{
name = top;
position = "{122, 739}";
},
{
name = topright;
position = "{252, 482}";
}
);
layerId = "F333AEC5-BB61-4D5E-9EDD-6124322D28F2";
paths = (
{
closed = 1;
nodes = (
"228 -6 OFFCURVE",
"253 1 OFFCURVE",
"276 14 CURVE",
"258 69 LINE",
"247 62 OFFCURVE",
"230 57 OFFCURVE",
"214 57 CURVE SMOOTH",
"182 57 OFFCURVE",
"161 81 OFFCURVE",
"161 118 CURVE SMOOTH",
"161 739 LINE",
"81 739 LINE",
"81 108 LINE SMOOTH",
"81 41 OFFCURVE",
"131 -6 OFFCURVE",
"201 -6 CURVE SMOOTH"
);
}
);
width = 283;
},
{
anchors = (
{
name = "#periodcentered";
position = "{326, 363}";
},
{
name = bottom;
position = "{183, 0}";
},
{
name = center;
position = "{135, 377}";
},
{
name = top;
position = "{132, 739}";
},
{
name = topright;
position = "{306, 490}";
}
);
layerId = "51C2DFEF-3776-4D13-9284-96485B799B57";
paths = (
{
closed = 1;
nodes = (
"288 -8 OFFCURVE",
"329 2 OFFCURVE",
"356 21 CURVE",
"317 137 LINE",
"308 132 OFFCURVE",
"297 129 OFFCURVE",
"286 129 CURVE SMOOTH",
"246 129 OFFCURVE",
"220 158 OFFCURVE",
"220 201 CURVE SMOOTH",
"220 739 LINE",
"50 739 LINE",
"50 182 LINE SMOOTH",
"50 68 OFFCURVE",
"129 -8 OFFCURVE",
"244 -8 CURVE SMOOTH"
);
}
);
width = 349;
},
{
anchors = (
{
name = "#periodcentered";
position = "{280, 353}";
},
{
name = bottom;
position = "{150, 0}";
},
{
name = center;
position = "{133, 393}";
},
{
name = top;
position = "{111, 739}";
},
{
name = topright;
position = "{188, 480}";
}
);
layerId = "0B2E441B-685E-400D-9B9B-E078DEED62EF";
paths = (
{
closed = 1;
nodes = (
"194 -2 OFFCURVE",
"213 3 OFFCURVE",
"226 11 CURVE",
"221 25 LINE",
"210 18 OFFCURVE",
"195 14 OFFCURVE",
"181 14 CURVE SMOOTH",
"143 14 OFFCURVE",
"120 43 OFFCURVE",
"120 87 CURVE SMOOTH",
"120 739 LINE",
"100 739 LINE",
"100 83 LINE SMOOTH",
"100 32 OFFCURVE",
"130 -2 OFFCURVE",
"176 -2 CURVE SMOOTH"
);
}
);
width = 246;
}
);
note = l;
unicode = 006C;
},
{
glyphname = m;
layers = (
{
anchors = (
{
name = "#entry";
position = "{148.529, 401}";
},
{
name = "#exit";
position = "{149, 401}";
},
{
name = "#hook";
position = "{450.286, 0}";
},
{
name = bottom;
position = "{445, 0}";
},
{
name = top;
position = "{445, 482}";
}
);
layerId = "F333AEC5-BB61-4D5E-9EDD-6124322D28F2";
paths = (
{
closed = 1;
nodes = (
"165 0 LINE",
"165 426 LINE",
"141 482 LINE",
"85 482 LINE",
"85 0 LINE"
);
},
{
closed = 1;
nodes = (
"489 0 LINE",
"489 316 LINE SMOOTH",
"489 423 OFFCURVE",
"419 492 OFFCURVE",
"313 492 CURVE SMOOTH",
"243 492 OFFCURVE",
"175 462 OFFCURVE",
"125 409 CURVE",
"144 358 LINE",
"183 399 OFFCURVE",
"235 422 OFFCURVE",
"290 422 CURVE SMOOTH",
"367 422 OFFCURVE",
"409 378 OFFCURVE",
"409 300 CURVE SMOOTH",
"409 0 LINE"
);
},
{
closed = 1;
nodes = (
"814 0 LINE",
"814 316 LINE SMOOTH",
"814 423 OFFCURVE",
"744 492 OFFCURVE",
"637 492 CURVE SMOOTH",
"568 492 OFFCURVE",
"500 462 OFFCURVE",
"450 409 CURVE",
"469 358 LINE",
"508 399 OFFCURVE",
"560 422 OFFCURVE",
"615 422 CURVE SMOOTH",
"692 422 OFFCURVE",
"734 378 OFFCURVE",
"734 300 CURVE SMOOTH",
"734 0 LINE"
);
}
);
width = 890;
},
{
anchors = (
{
name = "#entry";
position = "{218.882, 401}";
},
{
name = "#exit";
position = "{219, 401}";
},
{
name = "#hook";
position = "{461.472, 0}";
},
{
name = bottom;
position = "{465, 0}";
},
{
name = top;
position = "{465, 490}";
}
);
layerId = "51C2DFEF-3776-4D13-9284-96485B799B57";
paths = (
{
closed = 1;
nodes = (
"235 0 LINE",
"235 376 LINE",
"187 490 LINE",
"62 490 LINE",
"62 0 LINE"
);
},
{
closed = 1;
nodes = (
"547 0 LINE",
"547 304 LINE SMOOTH",
"547 422 OFFCURVE",
"479 496 OFFCURVE",
"371 496 CURVE SMOOTH",
"301 496 OFFCURVE",
"240 465 OFFCURVE",
"200 408 CURVE",
"219 305 LINE",
"244 332 OFFCURVE",
"272 346 OFFCURVE",
"306 346 CURVE SMOOTH",
"353 346 OFFCURVE",
"374 320 OFFCURVE",
"374 265 CURVE SMOOTH",
"374 0 LINE"
);
},
{
closed = 1;
nodes = (
"859 0 LINE",
"859 304 LINE SMOOTH",
"859 422 OFFCURVE",
"791 496 OFFCURVE",
"683 496 CURVE SMOOTH",
"613 496 OFFCURVE",
"552 465 OFFCURVE",
"512 408 CURVE",
"531 305 LINE",
"556 332 OFFCURVE",
"584 346 OFFCURVE",
"618 346 CURVE SMOOTH",
"665 346 OFFCURVE",
"686 320 OFFCURVE",
"686 265 CURVE SMOOTH",
"686 0 LINE"
);
}
);
width = 910;
},
{
anchors = (
{
name = "#entry";
position = "{127.87, 401}";
},
{
name = "#exit";
position = "{128, 401}";
},
{
name = "#hook";
position = "{447.741, 0}";
},
{
name = bottom;
position = "{450, 0}";
},
{
name = top;
position = "{450, 480}";
}
);
layerId = "0B2E441B-685E-400D-9B9B-E078DEED62EF";
paths = (
{
closed = 1;
nodes = (
"123 0 LINE",
"123 404 LINE",
"119 480 LINE",
"102 480 LINE",
"102 0 LINE"
);
},
{
closed = 1;
nodes = (
"455 0 LINE",
"455 314 LINE SMOOTH",
"455 424 OFFCURVE",
"394 486 OFFCURVE",
"294 486 CURVE SMOOTH",
"224 486 OFFCURVE",
"155 456 OFFCURVE",
"108 404 CURVE",
"116 393 LINE",
"161 440 OFFCURVE",
"226 468 OFFCURVE",
"290 468 CURVE SMOOTH",
"380 468 OFFCURVE",
"434 411 OFFCURVE",
"434 314 CURVE SMOOTH",
"434 0 LINE"
);
},
{
closed = 1;
nodes = (
"783 0 LINE",
"783 314 LINE SMOOTH",
"783 424 OFFCURVE",
"722 486 OFFCURVE",
"622 486 CURVE SMOOTH",
"550 486 OFFCURVE",
"483 454 OFFCURVE",
"434 399 CURVE",
"440 386 LINE",
"487 437 OFFCURVE",
"552 468 OFFCURVE",
"618 468 CURVE SMOOTH",
"708 468 OFFCURVE",
"762 411 OFFCURVE",
"762 314 CURVE SMOOTH",
"762 0 LINE"
);
}
);
width = 876;
}
);
note = m;
unicode = 006D;
},
{
glyphname = n;
layers = (
{
anchors = (
{
name = "#hook";
position = "{455, 0}";
},
{
name = bottom;
position = "{288, 0}";
},
{
name = top;
position = "{288, 482}";
}
);
layerId = "F333AEC5-BB61-4D5E-9EDD-6124322D28F2";
paths = (
{
closed = 1;
nodes = (
"165 0 LINE",
"165 426 LINE",
"141 482 LINE",
"85 482 LINE",
"85 0 LINE"
);
},
{
closed = 1;
nodes = (
"494 0 LINE",
"494 316 LINE SMOOTH",
"494 423 OFFCURVE",
"423 492 OFFCURVE",
"315 492 CURVE SMOOTH",
"245 492 OFFCURVE",
"176 462 OFFCURVE",
"125 409 CURVE",
"144 358 LINE",
"184 399 OFFCURVE",
"237 422 OFFCURVE",
"293 422 CURVE SMOOTH",
"371 422 OFFCURVE",
"414 378 OFFCURVE",
"414 300 CURVE SMOOTH",
"414 0 LINE"
);
}
);
width = 570;
},
{
anchors = (
{
name = "#hook";
position = "{461, 0}";
},
{
name = bottom;
position = "{304, 0}";
},
{
name = top;
position = "{304, 490}";
}
);
layerId = "51C2DFEF-3776-4D13-9284-96485B799B57";
paths = (
{
closed = 1;
nodes = (
"235 0 LINE",
"235 376 LINE",
"187 490 LINE",
"62 490 LINE",
"62 0 LINE"
);
},
{
closed = 1;
nodes = (
"547 0 LINE",
"547 304 LINE SMOOTH",
"547 422 OFFCURVE",
"479 496 OFFCURVE",
"371 496 CURVE SMOOTH",
"301 496 OFFCURVE",
"240 465 OFFCURVE",
"200 408 CURVE",
"219 305 LINE",
"244 332 OFFCURVE",
"272 346 OFFCURVE",
"306 346 CURVE SMOOTH",
"353 346 OFFCURVE",
"374 320 OFFCURVE",
"374 265 CURVE SMOOTH",
"374 0 LINE"
);
}
);
width = 599;
},
{
anchors = (
{
name = "#hook";
position = "{451, 0}";
},
{
name = bottom;
position = "{280, 0}";
},
{
name = top;
position = "{276, 480}";
}
);
layerId = "0B2E441B-685E-400D-9B9B-E078DEED62EF";
paths = (
{
closed = 1;
nodes = (
"123 0 LINE",
"123 399 LINE",
"119 480 LINE",
"102 480 LINE",
"102 0 LINE"
);
},
{
closed = 1;
nodes = (
"460 0 LINE",
"460 314 LINE SMOOTH",
"460 421 OFFCURVE",
"400 486 OFFCURVE",
"294 486 CURVE SMOOTH",
"218 486 OFFCURVE",
"148 454 OFFCURVE",
"107 399 CURVE",
"116 388 LINE",
"150 436 OFFCURVE",
"220 468 OFFCURVE",
"291 468 CURVE SMOOTH",
"386 468 OFFCURVE",
"439 411 OFFCURVE",
"439 314 CURVE SMOOTH",
"439 0 LINE"
);
}
);
width = 553;
},
{
associatedMasterId = "0B2E441B-685E-400D-9B9B-E078DEED62EF";
layerId = "C61958B6-84F7-4994-9D37-EADF52FA5068";
name = "Sep 11 17, 18:57";
paths = (
{
closed = 1;
nodes = (
"482 0 LINE",
"482 338 LINE SMOOTH",
"482 429 OFFCURVE",
"414 490 OFFCURVE",
"312 490 CURVE SMOOTH",
"242 490 OFFCURVE",
"174 462 OFFCURVE",
"116 407 CURVE",
"116 391 LINE",
"177 444 OFFCURVE",
"243 471 OFFCURVE",
"307 471 CURVE SMOOTH",
"400 471 OFFCURVE",
"462 414 OFFCURVE",
"462 328 CURVE SMOOTH",
"462 0 LINE"
);
},
{
closed = 1;
nodes = (
"120 0 LINE",
"120 404 LINE",
"116 480 LINE",
"100 480 LINE",
"100 0 LINE"
);
}
);
width = 574;
},
{
anchors = (
{
name = "#entry";
position = "{128, 401}";
},
{
name = "#exit";
position = "{128, 401}";
},
{
name = "#hook";
position = "{451, 0}";
},
{
name = bottom;
position = "{280, 0}";
},
{
name = top;
position = "{276, 480}";
}
);
associatedMasterId = "0B2E441B-685E-400D-9B9B-E078DEED62EF";
layerId = "568FC106-D3D5-4880-9E2A-8B9C2BA2CB88";
name = "Nov 4 17, 15:32";
paths = (
{
closed = 1;
nodes = (
"123 0 LINE",
"123 404 LINE",
"119 480 LINE",
"102 480 LINE",
"102 0 LINE"
);
},
{
closed = 1;
nodes = (
"460 0 LINE",
"460 314 LINE SMOOTH",
"460 421 OFFCURVE",
"399 486 OFFCURVE",
"297 486 CURVE SMOOTH",
"220 486 OFFCURVE",
"152 449 OFFCURVE",
"107 384 CURVE",
"116 373 LINE",
"157 434 OFFCURVE",
"222 468 OFFCURVE",
"293 468 CURVE SMOOTH",
"385 468 OFFCURVE",
"439 411 OFFCURVE",
"439 314 CURVE SMOOTH",
"439 0 LINE"
);
}
);
width = 553;
}
);
note = n;
unicode = 006E;
},
{
glyphname = o;
layers = (
{
anchors = (
{
name = "#exit";
position = "{475, 236}";
},
{
name = bottom;
position = "{285, 0}";
},
{
name = center;
position = "{285, 241}";
},
{
name = ogonek;
position = "{375, 10}";
},
{
name = top;
position = "{285, 482}";
},
{
name = topright;
position = "{459, 482}";
}
);
background = {
components = (
{
name = _stem.d;
transform = "{1, 0, 0, 1, 299, 0}";
},
{
name = _bowl.d;
transform = "{1, 0, 0, 1, -19, 0}";
}
);
};
layerId = "F333AEC5-BB61-4D5E-9EDD-6124322D28F2";
paths = (
{
closed = 1;
nodes = (
"420 -10 OFFCURVE",
"516 93 OFFCURVE",
"516 247 CURVE SMOOTH",
"516 396 OFFCURVE",
"427 492 OFFCURVE",
"290 492 CURVE SMOOTH",
"148 492 OFFCURVE",
"53 390 OFFCURVE",
"53 236 CURVE SMOOTH",
"53 87 OFFCURVE",
"141 -10 OFFCURVE",
"278 -10 CURVE SMOOTH"
);
},
{
closed = 1;
nodes = (
"196 60 OFFCURVE",
"133 135 OFFCURVE",
"133 246 CURVE SMOOTH",
"133 353 OFFCURVE",
"190 422 OFFCURVE",
"279 422 CURVE SMOOTH",
"372 422 OFFCURVE",
"436 346 OFFCURVE",
"436 236 CURVE SMOOTH",
"436 130 OFFCURVE",
"378 60 OFFCURVE",
"289 60 CURVE SMOOTH"
);
}
);
width = 569;
},
{
anchors = (
{
name = "#exit";
position = "{470, 236}";
},
{
name = bottom;
position = "{291, 0}";
},
{
name = center;
position = "{291, 245}";
},
{
name = ogonek;
position = "{358, 10}";
},
{
name = top;
position = "{291, 490}";
},
{
name = topright;
position = "{473, 490}";
}
);
layerId = "51C2DFEF-3776-4D13-9284-96485B799B57";
paths = (
{
closed = 1;
nodes = (
"448 -10 OFFCURVE",
"558 96 OFFCURVE",
"558 254 CURVE SMOOTH",
"558 403 OFFCURVE",
"458 500 OFFCURVE",
"302 500 CURVE SMOOTH",
"137 500 OFFCURVE",
"27 394 OFFCURVE",
"27 235 CURVE SMOOTH",
"27 87 OFFCURVE",
"127 -10 OFFCURVE",
"284 -10 CURVE SMOOTH"
);
},
{
closed = 1;
nodes = (
"240 134 OFFCURVE",
"203 179 OFFCURVE",
"203 246 CURVE SMOOTH",
"203 312 OFFCURVE",
"237 356 OFFCURVE",
"290 356 CURVE SMOOTH",
"345 356 OFFCURVE",
"382 310 OFFCURVE",
"382 240 CURVE SMOOTH",
"382 176 OFFCURVE",
"348 134 OFFCURVE",
"295 134 CURVE SMOOTH"
);
}
);
width = 585;
},
{
anchors = (
{
name = "#exit";
position = "{481, 236}";
},
{
name = bottom;
position = "{283, 0}";
},
{
name = center;
position = "{283, 240}";
},
{
name = ogonek;
position = "{357, 10}";
},
{
name = top;
position = "{273, 480}";
},
{
name = topright;
position = "{446, 480}";
}
);
layerId = "0B2E441B-685E-400D-9B9B-E078DEED62EF";
paths = (
{
closed = 1;
nodes = (
"407 -10 OFFCURVE",
"492 90 OFFCURVE",
"492 240 CURVE SMOOTH",
"492 389 OFFCURVE",
"408 486 OFFCURVE",
"284 486 CURVE SMOOTH",
"156 486 OFFCURVE",
"71 386 OFFCURVE",
"71 237 CURVE SMOOTH",
"71 89 OFFCURVE",
"155 -10 OFFCURVE",
"282 -10 CURVE SMOOTH"
);
},
{
closed = 1;
nodes = (
"167 8 OFFCURVE",
"92 101 OFFCURVE",
"92 239 CURVE SMOOTH",
"92 374 OFFCURVE",
"164 468 OFFCURVE",
"279 468 CURVE SMOOTH",
"395 468 OFFCURVE",
"471 378 OFFCURVE",
"471 237 CURVE SMOOTH",
"471 97 OFFCURVE",
"396 8 OFFCURVE",
"284 8 CURVE SMOOTH"
);
}
);
width = 563;
}
);
note = o;
unicode = 006F;
},
{
glyphname = oe;
layers = (
{
anchors = (
{
name = bottom;
position = "{457, 0}";
},
{
name = top;
position = "{457, 482}";
}
);
layerId = "F333AEC5-BB61-4D5E-9EDD-6124322D28F2";
paths = (
{
closed = 1;
nodes = (
"420 -10 OFFCURVE",
"506 93 OFFCURVE",
"506 247 CURVE SMOOTH",
"506 396 OFFCURVE",
"427 492 OFFCURVE",
"290 492 CURVE SMOOTH",
"148 492 OFFCURVE",
"53 390 OFFCURVE",
"53 236 CURVE SMOOTH",
"53 87 OFFCURVE",
"141 -10 OFFCURVE",
"278 -10 CURVE SMOOTH"
);
},
{
closed = 1;
nodes = (
"196 60 OFFCURVE",
"133 135 OFFCURVE",
"133 246 CURVE SMOOTH",
"133 353 OFFCURVE",
"190 422 OFFCURVE",
"279 422 CURVE SMOOTH",
"372 422 OFFCURVE",
"436 346 OFFCURVE",
"436 236 CURVE SMOOTH",
"436 130 OFFCURVE",
"378 60 OFFCURVE",
"289 60 CURVE SMOOTH"
);
},
{
closed = 1;
nodes = (
"737 -10 OFFCURVE",
"784 1 OFFCURVE",
"842 27 CURVE",
"825 83 LINE",
"780 64 OFFCURVE",
"738 55 OFFCURVE",
"699 55 CURVE SMOOTH",
"585 55 OFFCURVE",
"518 130 OFFCURVE",
"518 255 CURVE SMOOTH",
"518 364 OFFCURVE",
"567 424 OFFCURVE",
"655 424 CURVE SMOOTH",
"737 424 OFFCURVE",
"785 371 OFFCURVE",
"785 279 CURVE",
"504 279 LINE",
"504 219 LINE",
"856 219 LINE",
"858 234 OFFCURVE",
"860 269 OFFCURVE",
"860 288 CURVE SMOOTH",
"860 409 OFFCURVE",
"780 492 OFFCURVE",
"661 492 CURVE SMOOTH",
"527 492 OFFCURVE",
"436 388 OFFCURVE",
"436 236 CURVE SMOOTH",
"436 82 OFFCURVE",
"529 -10 OFFCURVE",
"684 -10 CURVE SMOOTH"
);
}
);
width = 913;
},
{
anchors = (
{
name = bottom;
position = "{460, 0}";
},
{
name = top;
position = "{460, 490}";
}
);
layerId = "51C2DFEF-3776-4D13-9284-96485B799B57";
paths = (
{
closed = 1;
nodes = (
"442 -10 OFFCURVE",
"506 104 OFFCURVE",
"506 256 CURVE SMOOTH",
"506 397 OFFCURVE",
"453 500 OFFCURVE",
"303 500 CURVE SMOOTH",
"144 500 OFFCURVE",
"27 384 OFFCURVE",
"27 232 CURVE SMOOTH",
"27 88 OFFCURVE",
"132 -10 OFFCURVE",
"281 -10 CURVE SMOOTH"
);
},
{
closed = 1;
nodes = (
"245 134 OFFCURVE",
"203 176 OFFCURVE",
"203 246 CURVE SMOOTH",
"203 307 OFFCURVE",
"235 356 OFFCURVE",
"288 356 CURVE SMOOTH",
"340 356 OFFCURVE",
"380 310 OFFCURVE",
"380 240 CURVE SMOOTH",
"380 178 OFFCURVE",
"349 134 OFFCURVE",
"296 134 CURVE SMOOTH"
);
},
{
closed = 1;
nodes = (
"716 -10 OFFCURVE",
"779 1 OFFCURVE",
"841 22 CURVE",
"802 141 LINE",
"762 127 OFFCURVE",
"722 120 OFFCURVE",
"685 120 CURVE SMOOTH",
"589 120 OFFCURVE",
"546 165 OFFCURVE",
"546 264 CURVE SMOOTH",
"546 337 OFFCURVE",
"570 369 OFFCURVE",
"620 369 CURVE SMOOTH",
"659 369 OFFCURVE",
"680 348 OFFCURVE",
"680 303 CURVE",
"520 303 LINE",
"520 183 LINE",
"843 183 LINE",
"847 209 OFFCURVE",
"850 245 OFFCURVE",
"850 273 CURVE SMOOTH",
"850 417 OFFCURVE",
"769 500 OFFCURVE",
"629 500 CURVE SMOOTH",
"473 500 OFFCURVE",
"405 398 OFFCURVE",
"405 244 CURVE SMOOTH",
"405 86 OFFCURVE",
"478 -10 OFFCURVE",
"656 -10 CURVE SMOOTH"
);
}
);
width = 889;
},
{
anchors = (
{
name = bottom;
position = "{462, 0}";
},
{
name = top;
position = "{462, 480}";
}
);
layerId = "0B2E441B-685E-400D-9B9B-E078DEED62EF";
paths = (
{
closed = 1;
nodes = (
"404 -10 OFFCURVE",
"486 90 OFFCURVE",
"486 240 CURVE SMOOTH",
"486 389 OFFCURVE",
"405 486 OFFCURVE",
"281 486 CURVE SMOOTH",
"155 486 OFFCURVE",
"71 386 OFFCURVE",
"71 237 CURVE SMOOTH",
"71 89 OFFCURVE",
"154 -10 OFFCURVE",
"279 -10 CURVE SMOOTH"
);
},
{
closed = 1;
nodes = (
"166 8 OFFCURVE",
"92 101 OFFCURVE",
"92 239 CURVE SMOOTH",
"92 374 OFFCURVE",
"163 468 OFFCURVE",
"279 468 CURVE SMOOTH",
"392 468 OFFCURVE",
"467 378 OFFCURVE",
"467 237 CURVE SMOOTH",
"467 97 OFFCURVE",
"393 8 OFFCURVE",
"281 8 CURVE SMOOTH"
);
},
{
closed = 1;
nodes = (
"747 -9 OFFCURVE",
"796 6 OFFCURVE",
"843 39 CURVE",
"835 51 LINE",
"787 20 OFFCURVE",
"743 7 OFFCURVE",
"696 7 CURVE SMOOTH",
"572 7 OFFCURVE",
"486 97 OFFCURVE",
"486 244 CURVE SMOOTH",
"486 377 OFFCURVE",
"556 469 OFFCURVE",
"668 469 CURVE SMOOTH",
"774 469 OFFCURVE",
"837 385 OFFCURVE",
"837 257 CURVE",
"476 257 LINE",
"476 240 LINE",
"857 240 LINE",
"858 247 OFFCURVE",
"858 252 OFFCURVE",
"858 260 CURVE SMOOTH",
"858 393 OFFCURVE",
"785 487 OFFCURVE",
"669 487 CURVE SMOOTH",
"550 487 OFFCURVE",
"467 387 OFFCURVE",
"467 240 CURVE SMOOTH",
"467 88 OFFCURVE",
"555 -9 OFFCURVE",
"693 -9 CURVE SMOOTH"
);
}
);
width = 921;
},
{
anchors = (
{
name = bottom;
position = "{460, 0}";
},
{
name = top;
position = "{460, 490}";
}
);
associatedMasterId = "51C2DFEF-3776-4D13-9284-96485B799B57";
layerId = "381B16FE-097F-4A36-A2C1-36D79D0E2B1C";
name = "Nov 9 17, 19:49";
paths = (
{
closed = 1;
nodes = (
"442 -10 OFFCURVE",
"516 104 OFFCURVE",
"516 256 CURVE SMOOTH",
"516 397 OFFCURVE",
"453 500 OFFCURVE",
"303 500 CURVE SMOOTH",
"144 500 OFFCURVE",
"27 384 OFFCURVE",
"27 232 CURVE SMOOTH",
"27 88 OFFCURVE",
"132 -10 OFFCURVE",
"281 -10 CURVE SMOOTH"
);
},
{
closed = 1;
nodes = (
"245 134 OFFCURVE",
"203 176 OFFCURVE",
"203 246 CURVE SMOOTH",
"203 307 OFFCURVE",
"235 356 OFFCURVE",
"288 356 CURVE SMOOTH",
"340 356 OFFCURVE",
"380 310 OFFCURVE",
"380 240 CURVE SMOOTH",
"380 178 OFFCURVE",
"349 134 OFFCURVE",
"296 134 CURVE SMOOTH"
);
},
{
closed = 1;
nodes = (
"715 -10 OFFCURVE",
"782 4 OFFCURVE",
"844 30 CURVE",
"810 149 LINE",
"763 136 OFFCURVE",
"717 129 OFFCURVE",
"675 129 CURVE SMOOTH",
"576 129 OFFCURVE",
"535 166 OFFCURVE",
"535 260 CURVE SMOOTH",
"535 334 OFFCURVE",
"560 370 OFFCURVE",
"611 370 CURVE SMOOTH",
"655 370 OFFCURVE",
"680 344 OFFCURVE",
"680 298 CURVE",
"511 298 LINE",
"511 195 LINE",
"843 195 LINE",
"847 219 OFFCURVE",
"850 247 OFFCURVE",
"850 274 CURVE SMOOTH",
"850 416 OFFCURVE",
"768 500 OFFCURVE",
"624 500 CURVE SMOOTH",
"465 500 OFFCURVE",
"401 397 OFFCURVE",
"401 243 CURVE SMOOTH",
"401 86 OFFCURVE",
"468 -10 OFFCURVE",
"647 -10 CURVE SMOOTH"
);
}
);
width = 889;
},
{
anchors = (
{
name = bottom;
position = "{460, 0}";
},
{
name = top;
position = "{460, 490}";
}
);
associatedMasterId = "51C2DFEF-3776-4D13-9284-96485B799B57";
layerId = "F93EF1FE-8163-4ED0-848D-46D7E078061A";
name = "Nov 10 17, 23:08";
paths = (
{
closed = 1;
nodes = (
"442 -10 OFFCURVE",
"506 104 OFFCURVE",
"506 256 CURVE SMOOTH",
"506 397 OFFCURVE",
"453 500 OFFCURVE",
"303 500 CURVE SMOOTH",
"144 500 OFFCURVE",
"27 384 OFFCURVE",
"27 232 CURVE SMOOTH",
"27 88 OFFCURVE",
"132 -10 OFFCURVE",
"281 -10 CURVE SMOOTH"
);
},
{
closed = 1;
nodes = (
"245 134 OFFCURVE",
"203 176 OFFCURVE",
"203 246 CURVE SMOOTH",
"203 307 OFFCURVE",
"235 356 OFFCURVE",
"288 356 CURVE SMOOTH",
"340 356 OFFCURVE",
"380 310 OFFCURVE",
"380 240 CURVE SMOOTH",
"380 178 OFFCURVE",
"349 134 OFFCURVE",
"296 134 CURVE SMOOTH"
);
},
{
closed = 1;
nodes = (
"722 -10 OFFCURVE",
"783 3 OFFCURVE",
"845 30 CURVE",
"808 143 LINE",
"773 129 OFFCURVE",
"726 120 OFFCURVE",
"685 120 CURVE SMOOTH",
"583 120 OFFCURVE",
"541 167 OFFCURVE",
"541 261 CURVE SMOOTH",
"541 335 OFFCURVE",
"564 369 OFFCURVE",
"616 369 CURVE SMOOTH",
"658 369 OFFCURVE",
"680 348 OFFCURVE",
"680 303 CURVE",
"515 303 LINE",
"515 183 LINE",
"843 183 LINE",
"847 207 OFFCURVE",
"850 247 OFFCURVE",
"850 274 CURVE SMOOTH",
"850 417 OFFCURVE",
"767 500 OFFCURVE",
"627 500 CURVE SMOOTH",
"469 500 OFFCURVE",
"405 398 OFFCURVE",
"405 244 CURVE SMOOTH",
"405 84 OFFCURVE",
"477 -10 OFFCURVE",
"654 -10 CURVE SMOOTH"
);
}
);
width = 889;
}
);
leftMetricsKey = o;
rightMetricsKey = e;
unicode = 0153;
},
{
glyphname = r;
layers = (
{
anchors = (
{
name = bottom;
position = "{124, 0}";
},
{
name = top;
position = "{229, 482}";
}
);
layerId = "F333AEC5-BB61-4D5E-9EDD-6124322D28F2";
paths = (
{
closed = 1;
nodes = (
"165 0 LINE",
"165 370 LINE",
"151 482 LINE",
"85 482 LINE",
"85 0 LINE"
);
},
{
closed = 1;
nodes = (
"176 356 OFFCURVE",
"241 409 OFFCURVE",
"301 409 CURVE SMOOTH",
"318 409 OFFCURVE",
"337 405 OFFCURVE",
"351 400 CURVE",
"372 477 LINE",
"353 483 OFFCURVE",
"330 487 OFFCURVE",
"310 487 CURVE SMOOTH",
"244 487 OFFCURVE",
"181 443 OFFCURVE",
"147 374 CURVE",
"147 283 LINE"
);
}
);
width = 395;
},
{
anchors = (
{
name = bottom;
position = "{127, 0}";
},
{
name = top;
position = "{212, 482}";
}
);
associatedMasterId = "F333AEC5-BB61-4D5E-9EDD-6124322D28F2";
layerId = "198C3889-C046-4B23-B5BC-3ACCF485BAE2";
name = "Aug 11 17, 19:31";
paths = (
{
closed = 1;
nodes = (
"168 0 LINE",
"168 370 LINE",
"154 482 LINE",
"88 482 LINE",
"88 0 LINE"
);
},
{
closed = 1;
nodes = (
"182 381 OFFCURVE",
"238 419 OFFCURVE",
"293 419 CURVE SMOOTH",
"315 419 OFFCURVE",
"345 413 OFFCURVE",
"365 405 CURVE",
"382 480 LINE",
"362 487 OFFCURVE",
"329 492 OFFCURVE",
"304 492 CURVE SMOOTH",
"242 492 OFFCURVE",
"185 461 OFFCURVE",
"150 399 CURVE",
"150 313 LINE"
);
}
);
width = 394;
},
{
anchors = (
{
name = bottom;
position = "{149, 0}";
},
{
name = top;
position = "{219, 490}";
}
);
layerId = "51C2DFEF-3776-4D13-9284-96485B799B57";
paths = (
{
closed = 1;
nodes = (
"235 0 LINE",
"235 299 LINE",
"197 490 LINE",
"62 490 LINE",
"62 0 LINE"
);
},
{
closed = 1;
nodes = (
"232 298 OFFCURVE",
"285 342 OFFCURVE",
"340 342 CURVE SMOOTH",
"360 342 OFFCURVE",
"388 335 OFFCURVE",
"409 325 CURVE",
"446 474 LINE",
"423 487 OFFCURVE",
"391 494 OFFCURVE",
"360 494 CURVE SMOOTH",
"295 494 OFFCURVE",
"238 457 OFFCURVE",
"204 392 CURVE",
"204 232 LINE"
);
}
);
width = 452;
},
{
anchors = (
{
name = bottom;
position = "{111, 0}";
},
{
name = top;
position = "{196, 480}";
}
);
layerId = "0B2E441B-685E-400D-9B9B-E078DEED62EF";
paths = (
{
closed = 1;
nodes = (
"123 0 LINE",
"123 378 LINE",
"119 480 LINE",
"102 480 LINE",
"102 0 LINE"
);
},
{
closed = 1;
nodes = (
"150 422 OFFCURVE",
"200 462 OFFCURVE",
"255 462 CURVE SMOOTH",
"269 462 OFFCURVE",
"285 460 OFFCURVE",
"301 453 CURVE",
"307 469 LINE",
"294 475 OFFCURVE",
"275 480 OFFCURVE",
"257 480 CURVE SMOOTH",
"198 480 OFFCURVE",
"148 442 OFFCURVE",
"115 374 CURVE",
"115 351 LINE"
);
}
);
width = 345;
}
);
note = r;
unicode = 0072;
},
{
glyphname = s;
layers = (
{
anchors = (
{
name = bottom;
position = "{239, 0}";
},
{
name = top;
position = "{234, 482}";
}
);
layerId = "F333AEC5-BB61-4D5E-9EDD-6124322D28F2";
paths = (
{
closed = 1;
nodes = (
"351 -10 OFFCURVE",
"424 46 OFFCURVE",
"424 135 CURVE SMOOTH",
"424 312 OFFCURVE",
"136 246 OFFCURVE",
"136 355 CURVE SMOOTH",
"136 397 OFFCURVE",
"181 424 OFFCURVE",
"253 424 CURVE SMOOTH",
"294 424 OFFCURVE",
"342 415 OFFCURVE",
"383 401 CURVE",
"402 466 LINE",
"361 483 OFFCURVE",
"312 492 OFFCURVE",
"261 492 CURVE SMOOTH",
"136 492 OFFCURVE",
"56 437 OFFCURVE",
"56 346 CURVE SMOOTH",
"56 173 OFFCURVE",
"343 245 OFFCURVE",
"343 127 CURVE SMOOTH",
"343 83 OFFCURVE",
"304 58 OFFCURVE",
"238 58 CURVE SMOOTH",
"188 58 OFFCURVE",
"126 72 OFFCURVE",
"68 95 CURVE",
"49 28 LINE",
"105 4 OFFCURVE",
"172 -10 OFFCURVE",
"232 -10 CURVE SMOOTH"
);
}
);
width = 470;
},
{
associatedMasterId = "F333AEC5-BB61-4D5E-9EDD-6124322D28F2";
layerId = "8AF66680-1C48-45CA-BDE5-584DAE6DFAE0";
name = "Aug 3 17, 22:25";
paths = (
{
closed = 1;
nodes = (
"126 492 OFFCURVE",
"47 434 OFFCURVE",
"47 342 CURVE SMOOTH",
"47 168 OFFCURVE",
"327 237 OFFCURVE",
"327 123 CURVE SMOOTH",
"327 82 OFFCURVE",
"291 60 OFFCURVE",
"230 60 CURVE SMOOTH",
"185 60 OFFCURVE",
"132 72 OFFCURVE",
"91 89 CURVE",
"74 14 LINE",
"115 0 OFFCURVE",
"166 -10 OFFCURVE",
"216 -10 CURVE SMOOTH",
"334 -10 OFFCURVE",
"410 46 OFFCURVE",
"410 137 CURVE SMOOTH",
"410 309 OFFCURVE",
"135 233 OFFCURVE",
"135 355 CURVE SMOOTH",
"135 401 OFFCURVE",
"175 422 OFFCURVE",
"236 422 CURVE SMOOTH",
"284 422 OFFCURVE",
"350 409 OFFCURVE",
"405 384 CURVE",
"422 459 LINE",
"369 479 OFFCURVE",
"305 492 OFFCURVE",
"247 492 CURVE SMOOTH"
);
}
);
width = 466;
},
{
anchors = (
{
name = bottom;
position = "{249, 0}";
},
{
name = top;
position = "{247, 490}";
}
);
layerId = "51C2DFEF-3776-4D13-9284-96485B799B57";
paths = (
{
closed = 1;
nodes = (
"378 -10 OFFCURVE",
"466 52 OFFCURVE",
"466 156 CURVE SMOOTH",
"466 350 OFFCURVE",
"204 289 OFFCURVE",
"204 345 CURVE SMOOTH",
"204 360 OFFCURVE",
"224 367 OFFCURVE",
"268 367 CURVE SMOOTH",
"316 367 OFFCURVE",
"366 358 OFFCURVE",
"412 342 CURVE",
"449 470 LINE",
"394 490 OFFCURVE",
"336 500 OFFCURVE",
"275 500 CURVE SMOOTH",
"122 500 OFFCURVE",
"39 436 OFFCURVE",
"39 328 CURVE SMOOTH",
"39 140 OFFCURVE",
"295 205 OFFCURVE",
"295 147 CURVE SMOOTH",
"295 132 OFFCURVE",
"279 123 OFFCURVE",
"235 123 CURVE SMOOTH",
"183 123 OFFCURVE",
"125 134 OFFCURVE",
"69 158 CURVE",
"32 30 LINE",
"85 5 OFFCURVE",
"159 -10 OFFCURVE",
"231 -10 CURVE SMOOTH"
);
}
);
width = 495;
},
{
anchors = (
{
name = bottom;
position = "{221, 0}";
},
{
name = top;
position = "{230, 480}";
}
);
layerId = "0B2E441B-685E-400D-9B9B-E078DEED62EF";
paths = (
{
closed = 1;
nodes = (
"338 -10 OFFCURVE",
"399 38 OFFCURVE",
"399 116 CURVE SMOOTH",
"399 291 OFFCURVE",
"91 205 OFFCURVE",
"91 360 CURVE SMOOTH",
"91 426 OFFCURVE",
"148 468 OFFCURVE",
"237 468 CURVE SMOOTH",
"285 468 OFFCURVE",
"335 457 OFFCURVE",
"376 436 CURVE",
"383 452 LINE",
"344 473 OFFCURVE",
"289 486 OFFCURVE",
"239 486 CURVE SMOOTH",
"136 486 OFFCURVE",
"70 435 OFFCURVE",
"70 356 CURVE SMOOTH",
"70 186 OFFCURVE",
"378 273 OFFCURVE",
"378 113 CURVE SMOOTH",
"378 47 OFFCURVE",
"326 8 OFFCURVE",
"238 8 CURVE SMOOTH",
"184 8 OFFCURVE",
"122 23 OFFCURVE",
"66 50 CURVE",
"59 33 LINE",
"116 5 OFFCURVE",
"180 -10 OFFCURVE",
"238 -10 CURVE SMOOTH"
);
}
);
width = 459;
}
);
note = s;
unicode = 0073;
},
{
glyphname = germandbls;
layers = (
{
layerId = "F333AEC5-BB61-4D5E-9EDD-6124322D28F2";
paths = (
{
closed = 1;
nodes = (
"480 -10 OFFCURVE",
"560 58 OFFCURVE",
"560 154 CURVE SMOOTH",
"560 302 OFFCURVE",
"370 304 OFFCURVE",
"370 387 CURVE SMOOTH",
"370 451 OFFCURVE",
"484 469 OFFCURVE",
"484 582 CURVE SMOOTH",
"484 679 OFFCURVE",
"401 749 OFFCURVE",
"287 749 CURVE SMOOTH",
"164 749 OFFCURVE",
"85 666 OFFCURVE",
"85 539 CURVE SMOOTH",
"85 0 LINE",
"165 0 LINE",
"165 548 LINE SMOOTH",
"165 633 OFFCURVE",
"205 679 OFFCURVE",
"277 679 CURVE SMOOTH",
"350 679 OFFCURVE",
"404 633 OFFCURVE",
"404 572 CURVE SMOOTH",
"404 483 OFFCURVE",
"291 468 OFFCURVE",
"291 374 CURVE SMOOTH",
"291 253 OFFCURVE",
"480 250 OFFCURVE",
"480 141 CURVE SMOOTH",
"480 94 OFFCURVE",
"436 60 OFFCURVE",
"374 60 CURVE SMOOTH",
"338 60 OFFCURVE",
"292 72 OFFCURVE",
"248 93 CURVE",
"229 26 LINE",
"270 3 OFFCURVE",
"320 -10 OFFCURVE",
"368 -10 CURVE SMOOTH"
);
}
);
width = 600;
},
{
layerId = "51C2DFEF-3776-4D13-9284-96485B799B57";
paths = (
{
closed = 1;
nodes = (
"561 -10 OFFCURVE",
"656 64 OFFCURVE",
"656 176 CURVE SMOOTH",
"656 325 OFFCURVE",
"490 339 OFFCURVE",
"490 395 CURVE SMOOTH",
"490 435 OFFCURVE",
"574 457 OFFCURVE",
"574 557 CURVE SMOOTH",
"574 669 OFFCURVE",
"468 749 OFFCURVE",
"320 749 CURVE SMOOTH",
"165 749 OFFCURVE",
"62 661 OFFCURVE",
"62 531 CURVE SMOOTH",
"62 0 LINE",
"235 0 LINE",
"235 530 LINE SMOOTH",
"235 576 OFFCURVE",
"263 605 OFFCURVE",
"313 605 CURVE SMOOTH",
"362 605 OFFCURVE",
"399 578 OFFCURVE",
"399 540 CURVE SMOOTH",
"399 483 OFFCURVE",
"314 457 OFFCURVE",
"314 374 CURVE SMOOTH",
"314 257 OFFCURVE",
"480 231 OFFCURVE",
"480 170 CURVE SMOOTH",
"480 145 OFFCURVE",
"453 130 OFFCURVE",
"408 130 CURVE SMOOTH",
"373 130 OFFCURVE",
"337 139 OFFCURVE",
"303 156 CURVE",
"264 22 LINE",
"314 0 OFFCURVE",
"362 -10 OFFCURVE",
"416 -10 CURVE SMOOTH"
);
}
);
width = 673;
},
{
layerId = "0B2E441B-685E-400D-9B9B-E078DEED62EF";
paths = (
{
closed = 1;
nodes = (
"448 -10 OFFCURVE",
"513 44 OFFCURVE",
"513 133 CURVE SMOOTH",
"513 291 OFFCURVE",
"305 292 OFFCURVE",
"305 384 CURVE SMOOTH",
"305 457 OFFCURVE",
"438 463 OFFCURVE",
"438 593 CURVE SMOOTH",
"438 685 OFFCURVE",
"371 749 OFFCURVE",
"277 749 CURVE SMOOTH",
"169 749 OFFCURVE",
"102 664 OFFCURVE",
"102 539 CURVE SMOOTH",
"102 0 LINE",
"123 0 LINE",
"123 548 LINE SMOOTH",
"123 659 OFFCURVE",
"181 731 OFFCURVE",
"274 731 CURVE SMOOTH",
"357 731 OFFCURVE",
"418 673 OFFCURVE",
"418 590 CURVE SMOOTH",
"418 467 OFFCURVE",
"284 466 OFFCURVE",
"284 381 CURVE SMOOTH",
"284 275 OFFCURVE",
"492 281 OFFCURVE",
"492 131 CURVE SMOOTH",
"492 54 OFFCURVE",
"438 8 OFFCURVE",
"359 8 CURVE SMOOTH",
"316 8 OFFCURVE",
"266 21 OFFCURVE",
"225 43 CURVE",
"219 26 LINE",
"257 4 OFFCURVE",
"311 -10 OFFCURVE",
"357 -10 CURVE SMOOTH"
);
}
);
width = 570;
}
);
unicode = 00DF;
},
{
glyphname = t;
layers = (
{
anchors = (
{
name = bottom;
position = "{205, 5}";
},
{
name = center;
position = "{176, 246}";
},
{
name = top;
position = "{133, 621}";
},
{
name = topright;
position = "{290, 482}";
}
);
layerId = "F333AEC5-BB61-4D5E-9EDD-6124322D28F2";
paths = (
{
closed = 1;
nodes = (
"270 -5 OFFCURVE",
"303 3 OFFCURVE",
"326 16 CURVE",
"308 74 LINE",
"291 65 OFFCURVE",
"270 60 OFFCURVE",
"251 60 CURVE SMOOTH",
"206 60 OFFCURVE",
"176 92 OFFCURVE",
"176 140 CURVE SMOOTH",
"176 621 LINE",
"96 621 LINE",
"96 129 LINE SMOOTH",
"96 49 OFFCURVE",
"152 -5 OFFCURVE",
"237 -5 CURVE SMOOTH"
);
},
{
closed = 1;
nodes = (
"323 415 LINE",
"323 482 LINE",
"31 482 LINE",
"31 415 LINE"
);
}
);
width = 365;
},
{
associatedMasterId = "F333AEC5-BB61-4D5E-9EDD-6124322D28F2";
layerId = "8DD4D7B4-764D-4C4A-81DC-EA5BCD364777";
name = "Aug 3 17, 20:24";
paths = (
{
closed = 1;
nodes = (
"269 -10 OFFCURVE",
"312 -2 OFFCURVE",
"342 12 CURVE",
"331 69 LINE",
"312 60 OFFCURVE",
"284 55 OFFCURVE",
"261 55 CURVE SMOOTH",
"211 55 OFFCURVE",
"177 79 OFFCURVE",
"177 145 CURVE SMOOTH",
"177 621 LINE",
"97 621 LINE",
"97 134 LINE SMOOTH",
"97 36 OFFCURVE",
"153 -10 OFFCURVE",
"235 -10 CURVE SMOOTH"
);
},
{
closed = 1;
nodes = (
"324 415 LINE",
"324 482 LINE",
"32 482 LINE",
"32 415 LINE"
);
}
);
width = 371;
},
{
anchors = (
{
name = bottom;
position = "{218, 0}";
},
{
name = center;
position = "{203, 247}";
},
{
name = top;
position = "{178, 617}";
},
{
name = topright;
position = "{332, 490}";
}
);
layerId = "51C2DFEF-3776-4D13-9284-96485B799B57";
paths = (
{
closed = 1;
nodes = (
"341 -8 OFFCURVE",
"385 2 OFFCURVE",
"421 20 CURVE",
"381 141 LINE",
"368 134 OFFCURVE",
"351 130 OFFCURVE",
"334 130 CURVE SMOOTH",
"290 130 OFFCURVE",
"261 158 OFFCURVE",
"261 201 CURVE SMOOTH",
"261 617 LINE",
"91 617 LINE",
"91 176 LINE SMOOTH",
"91 66 OFFCURVE",
"173 -8 OFFCURVE",
"295 -8 CURVE SMOOTH"
);
},
{
closed = 1;
nodes = (
"401 355 LINE",
"401 490 LINE",
"14 490 LINE",
"14 355 LINE"
);
}
);
width = 443;
},
{
anchors = (
{
name = bottom;
position = "{183, 0}";
},
{
name = center;
position = "{154, 250}";
},
{
name = top;
position = "{120, 617}";
},
{
name = topright;
position = "{210, 480}";
}
);
layerId = "0B2E441B-685E-400D-9B9B-E078DEED62EF";
paths = (
{
closed = 1;
nodes = (
"235 -3 OFFCURVE",
"258 3 OFFCURVE",
"278 18 CURVE",
"273 32 LINE",
"256 19 OFFCURVE",
"235 14 OFFCURVE",
"216 14 CURVE SMOOTH",
"164 14 OFFCURVE",
"130 51 OFFCURVE",
"130 108 CURVE SMOOTH",
"130 617 LINE",
"109 617 LINE",
"109 103 LINE SMOOTH",
"109 38 OFFCURVE",
"149 -3 OFFCURVE",
"210 -3 CURVE SMOOTH"
);
},
{
closed = 1;
nodes = (
"273 463 LINE",
"273 480 LINE",
"37 480 LINE",
"37 463 LINE"
);
}
);
width = 324;
}
);
note = t;
unicode = 0074;
},
{
glyphname = u;
layers = (
{
anchors = (
{
name = bottom;
position = "{275, 0}";
},
{
name = ogonek;
position = "{459, 10}";
},
{
name = top;
position = "{275, 482}";
},
{
name = topright;
position = "{515, 482}";
}
);
layerId = "F333AEC5-BB61-4D5E-9EDD-6124322D28F2";
paths = (
{
closed = 1;
nodes = (
"397 482 LINE",
"397 56 LINE",
"421 0 LINE",
"477 0 LINE",
"477 482 LINE"
);
},
{
closed = 1;
nodes = (
"76 482 LINE",
"76 166 LINE SMOOTH",
"76 59 OFFCURVE",
"146 -10 OFFCURVE",
"251 -10 CURVE SMOOTH",
"320 -10 OFFCURVE",
"388 20 OFFCURVE",
"437 73 CURVE",
"418 124 LINE",
"380 83 OFFCURVE",
"328 60 OFFCURVE",
"274 60 CURVE SMOOTH",
"198 60 OFFCURVE",
"156 104 OFFCURVE",
"156 182 CURVE SMOOTH",
"156 482 LINE"
);
}
);
width = 562;
},
{
anchors = (
{
name = bottom;
position = "{292, 0}";
},
{
name = ogonek;
position = "{486, 10}";
},
{
name = top;
position = "{292, 490}";
},
{
name = topright;
position = "{584, 490}";
}
);
layerId = "51C2DFEF-3776-4D13-9284-96485B799B57";
paths = (
{
closed = 1;
nodes = (
"363 490 LINE",
"363 114 LINE",
"411 0 LINE",
"536 0 LINE",
"536 490 LINE"
);
},
{
closed = 1;
nodes = (
"52 490 LINE",
"52 186 LINE SMOOTH",
"52 68 OFFCURVE",
"119 -6 OFFCURVE",
"227 -6 CURVE SMOOTH",
"297 -6 OFFCURVE",
"358 25 OFFCURVE",
"398 82 CURVE",
"379 185 LINE",
"355 158 OFFCURVE",
"326 144 OFFCURVE",
"292 144 CURVE SMOOTH",
"246 144 OFFCURVE",
"225 170 OFFCURVE",
"225 225 CURVE SMOOTH",
"225 490 LINE"
);
}
);
width = 598;
},
{
anchors = (
{
name = bottom;
position = "{263, 0}";
},
{
name = ogonek;
position = "{442, 10}";
},
{
name = top;
position = "{263, 480}";
},
{
name = topright;
position = "{523, 480}";
}
);
layerId = "0B2E441B-685E-400D-9B9B-E078DEED62EF";
paths = (
{
closed = 1;
nodes = (
"423 480 LINE",
"423 76 LINE",
"427 0 LINE",
"444 0 LINE",
"444 480 LINE"
);
},
{
closed = 1;
nodes = (
"94 480 LINE",
"94 166 LINE SMOOTH",
"94 57 OFFCURVE",
"155 -6 OFFCURVE",
"255 -6 CURVE SMOOTH",
"322 -6 OFFCURVE",
"392 25 OFFCURVE",
"441 76 CURVE",
"432 87 LINE",
"386 40 OFFCURVE",
"321 12 OFFCURVE",
"259 12 CURVE SMOOTH",
"168 12 OFFCURVE",
"115 69 OFFCURVE",
"115 166 CURVE SMOOTH",
"115 480 LINE"
);
}
);
width = 546;
}
);
note = u;
unicode = 0075;
},
{
glyphname = v;
layers = (
{
anchors = (
{
name = "#ytail";
position = "{251, 0}";
},
{
name = bottom;
position = "{254, 0}";
},
{
name = top;
position = "{254, 482}";
}
);
layerId = "F333AEC5-BB61-4D5E-9EDD-6124322D28F2";
paths = (
{
closed = 1;
nodes = (
"294 0 LINE",
"482 482 LINE",
"402 482 LINE",
"235 16 LINE",
"279 16 LINE",
"115 482 LINE",
"26 482 LINE",
"216 0 LINE"
);
}
);
width = 508;
},
{
anchors = (
{
name = "#ytail";
position = "{280, 0}";
},
{
name = bottom;
position = "{289, 0}";
},
{
name = top;
position = "{289, 490}";
}
);
layerId = "51C2DFEF-3776-4D13-9284-96485B799B57";
paths = (
{
closed = 1;
nodes = (
"384 0 LINE",
"578 490 LINE",
"399 490 LINE",
"281 124 LINE",
"306 124 LINE",
"188 490 LINE",
"2 490 LINE",
"196 0 LINE"
);
}
);
width = 580;
},
{
anchors = (
{
name = "#ytail";
position = "{249, 0}";
},
{
name = bottom;
position = "{248, 0}";
},
{
name = top;
position = "{248, 480}";
}
);
layerId = "0B2E441B-685E-400D-9B9B-E078DEED62EF";
paths = (
{
closed = 1;
nodes = (
"258 0 LINE",
"452 480 LINE",
"431 480 LINE",
"245 14 LINE",
"254 14 LINE",
"66 480 LINE",
"43 480 LINE",
"240 0 LINE"
);
}
);
width = 495;
}
);
note = v;
unicode = 0076;
},
{
glyphname = w;
layers = (
{
anchors = (
{
name = bottom;
position = "{409, 0}";
},
{
name = top;
position = "{409, 482}";
}
);
layerId = "F333AEC5-BB61-4D5E-9EDD-6124322D28F2";
paths = (
{
closed = 1;
nodes = (
"279 0 LINE",
"425 442 LINE",
"392 442 LINE",
"534 0 LINE",
"615 0 LINE",
"791 482 LINE",
"711 482 LINE",
"562 35 LINE",
"595 35 LINE",
"460 482 LINE",
"369 482 LINE",
"228 35 LINE",
"260 35 LINE",
"118 482 LINE",
"27 482 LINE",
"203 0 LINE"
);
}
);
width = 818;
},
{
anchors = (
{
name = bottom;
position = "{435, 0}";
},
{
name = top;
position = "{435, 490}";
}
);
layerId = "51C2DFEF-3776-4D13-9284-96485B799B57";
paths = (
{
closed = 1;
nodes = (
"361 0 LINE",
"461 337 LINE",
"403 337 LINE",
"512 0 LINE",
"701 0 LINE",
"867 490 LINE",
"702 490 LINE",
"582 86 LINE",
"638 86 LINE",
"509 490 LINE",
"366 490 LINE",
"246 76 LINE",
"301 76 LINE",
"181 490 LINE",
"3 490 LINE",
"180 0 LINE"
);
}
);
width = 871;
},
{
anchors = (
{
name = bottom;
position = "{394, 0}";
},
{
name = top;
position = "{394, 480}";
}
);
layerId = "0B2E441B-685E-400D-9B9B-E078DEED62EF";
paths = (
{
closed = 1;
nodes = (
"233 0 LINE",
"396 460 LINE",
"389 460 LINE",
"558 0 LINE",
"572 0 LINE",
"742 480 LINE",
"722 480 LINE",
"563 25 LINE",
"570 25 LINE",
"404 480 LINE",
"383 480 LINE",
"224 25 LINE",
"229 25 LINE",
"67 480 LINE",
"45 480 LINE",
"218 0 LINE"
);
}
);
width = 787;
}
);
note = w;
unicode = 0077;
},
{
glyphname = x;
layers = (
{
anchors = (
{
name = bottom;
position = "{248, 0}";
},
{
name = top;
position = "{248, 482}";
}
);
layerId = "F333AEC5-BB61-4D5E-9EDD-6124322D28F2";
paths = (
{
closed = 1;
nodes = (
"119 0 LINE",
"269 214 LINE",
"472 482 LINE",
"381 482 LINE",
"228 264 LINE",
"28 0 LINE"
);
},
{
closed = 1;
nodes = (
"463 0 LINE",
"265 272 LINE",
"119 482 LINE",
"27 482 LINE",
"222 211 LINE",
"371 0 LINE"
);
}
);
width = 498;
},
{
anchors = (
{
name = bottom;
position = "{279, 0}";
},
{
name = top;
position = "{278, 490}";
}
);
layerId = "51C2DFEF-3776-4D13-9284-96485B799B57";
paths = (
{
closed = 1;
nodes = (
"187 0 LINE",
"327 209 LINE",
"549 490 LINE",
"367 490 LINE",
"228 297 LINE",
"5 0 LINE"
);
},
{
closed = 1;
nodes = (
"552 0 LINE",
"349 268 LINE",
"202 490 LINE",
"3 490 LINE",
"194 228 LINE",
"354 0 LINE"
);
}
);
width = 554;
},
{
anchors = (
{
name = bottom;
position = "{233, 0}";
},
{
name = top;
position = "{231, 480}";
}
);
layerId = "0B2E441B-685E-400D-9B9B-E078DEED62EF";
paths = (
{
closed = 1;
nodes = (
"66 0 LINE",
"234 235 LINE",
"406 480 LINE",
"384 480 LINE",
"224 248 LINE",
"44 0 LINE"
);
},
{
closed = 1;
nodes = (
"413 0 LINE",
"236 244 LINE",
"75 480 LINE",
"51 480 LINE",
"224 229 LINE",
"389 0 LINE"
);
}
);
width = 456;
}
);
note = x;
unicode = 0078;
},
{
glyphname = z;
layers = (
{
anchors = (
{
name = bottom;
position = "{235, 0}";
},
{
name = top;
position = "{235, 482}";
}
);
layerId = "F333AEC5-BB61-4D5E-9EDD-6124322D28F2";
paths = (
{
closed = 1;
nodes = (
"432 0 LINE",
"432 67 LINE",
"120 67 LINE",
"132 49 LINE",
"420 433 LINE",
"420 482 LINE",
"42 482 LINE",
"42 415 LINE",
"341 415 LINE",
"329 433 LINE",
"42 49 LINE",
"42 0 LINE"
);
}
);
width = 471;
},
{
anchors = (
{
name = bottom;
position = "{256, 0}";
},
{
name = top;
position = "{256, 490}";
}
);
layerId = "51C2DFEF-3776-4D13-9284-96485B799B57";
paths = (
{
closed = 1;
nodes = (
"480 0 LINE",
"480 135 LINE",
"178 135 LINE",
"206 80 LINE",
"467 386 LINE",
"467 490 LINE",
"36 490 LINE",
"36 355 LINE",
"325 355 LINE",
"297 411 LINE",
"36 103 LINE",
"36 0 LINE"
);
}
);
width = 511;
},
{
anchors = (
{
name = bottom;
position = "{219, 0}";
},
{
name = top;
position = "{219, 480}";
}
);
layerId = "0B2E441B-685E-400D-9B9B-E078DEED62EF";
paths = (
{
closed = 1;
nodes = (
"395 0 LINE",
"395 17 LINE",
"66 17 LINE",
"68 13 LINE",
"385 464 LINE",
"385 480 LINE",
"47 480 LINE",
"47 463 LINE",
"366 463 LINE",
"364 467 LINE",
"47 15 LINE",
"47 0 LINE"
);
}
);
width = 440;
}
);
note = z;
unicode = 007A;
},
{
glyphname = ordfeminine;
layers = (
{
anchors = (
{
name = bottom;
position = "{157, 412}";
},
{
name = ogonek;
position = "{254, 418}";
},
{
name = top;
position = "{149, 703}";
}
);
layerId = "F333AEC5-BB61-4D5E-9EDD-6124322D28F2";
paths = (
{
closed = 1;
nodes = (
"272 412 LINE",
"272 593 LINE SMOOTH",
"272 667 OFFCURVE",
"229 708 OFFCURVE",
"153 708 CURVE SMOOTH",
"111 708 OFFCURVE",
"67 695 OFFCURVE",
"33 674 CURVE",
"47 631 LINE",
"75 647 OFFCURVE",
"109 657 OFFCURVE",
"139 657 CURVE SMOOTH",
"184 657 OFFCURVE",
"208 633 OFFCURVE",
"208 592 CURVE SMOOTH",
"208 476 LINE",
"225 412 LINE"
);
},
{
closed = 1;
nodes = (
"168 406 OFFCURVE",
"208 430 OFFCURVE",
"242 478 CURVE",
"225 491 LINE",
"198 466 OFFCURVE",
"172 453 OFFCURVE",
"142 453 CURVE SMOOTH",
"109 453 OFFCURVE",
"90 469 OFFCURVE",
"90 494 CURVE SMOOTH",
"90 528 OFFCURVE",
"127 542 OFFCURVE",
"223 542 CURVE",
"223 581 LINE",
"99 581 OFFCURVE",
"26 545 OFFCURVE",
"26 482 CURVE SMOOTH",
"26 436 OFFCURVE",
"63 406 OFFCURVE",
"120 406 CURVE SMOOTH"
);
}
);
userData = {
RMXScaler = {
height = 60;
verticalShift = 412;
weight = -18;
width = 60;
};
};
width = 313;
},
{
anchors = (
{
name = bottom;
position = "{167, 412}";
},
{
name = ogonek;
position = "{270, 418}";
},
{
name = top;
position = "{162, 705}";
}
);
layerId = "51C2DFEF-3776-4D13-9284-96485B799B57";
paths = (
{
closed = 1;
nodes = (
"298 412 LINE",
"298 583 LINE SMOOTH",
"298 667 OFFCURVE",
"248 713 OFFCURVE",
"157 713 CURVE SMOOTH",
"108 713 OFFCURVE",
"65 701 OFFCURVE",
"20 675 CURVE",
"43 601 LINE",
"80 616 OFFCURVE",
"108 622 OFFCURVE",
"134 622 CURVE SMOOTH",
"172 622 OFFCURVE",
"193 610 OFFCURVE",
"193 585 CURVE SMOOTH",
"193 463 LINE",
"224 412 LINE"
);
},
{
closed = 1;
nodes = (
"203 406 OFFCURVE",
"261 462 OFFCURVE",
"272 555 CURVE",
"234 564 LINE",
"235 520 OFFCURVE",
"198 491 OFFCURVE",
"156 491 CURVE SMOOTH",
"136 491 OFFCURVE",
"122 499 OFFCURVE",
"122 510 CURVE SMOOTH",
"122 526 OFFCURVE",
"147 532 OFFCURVE",
"209 532 CURVE",
"209 602 LINE",
"92 602 OFFCURVE",
"16 559 OFFCURVE",
"16 491 CURVE SMOOTH",
"16 440 OFFCURVE",
"58 406 OFFCURVE",
"121 406 CURVE SMOOTH"
);
}
);
userData = {
RMXScaler = {
height = 60;
verticalShift = 412;
weight = -65;
width = 60;
};
};
width = 327;
},
{
anchors = (
{
name = bottom;
position = "{150, 412}";
},
{
name = ogonek;
position = "{242, 418}";
},
{
name = top;
position = "{139, 700}";
}
);
layerId = "0B2E441B-685E-400D-9B9B-E078DEED62EF";
paths = (
{
closed = 1;
nodes = (
"245 412 LINE",
"245 607 LINE SMOOTH",
"245 669 OFFCURVE",
"209 704 OFFCURVE",
"147 704 CURVE SMOOTH",
"113 704 OFFCURVE",
"76 693 OFFCURVE",
"46 673 CURVE",
"51 660 LINE",
"77 678 OFFCURVE",
"110 688 OFFCURVE",
"142 688 CURVE SMOOTH",
"198 688 OFFCURVE",
"226 659 OFFCURVE",
"226 605 CURVE SMOOTH",
"226 453 LINE",
"230 412 LINE"
);
},
{
closed = 1;
nodes = (
"172 406 OFFCURVE",
"212 428 OFFCURVE",
"237 463 CURVE",
"234 473 LINE",
"206 440 OFFCURVE",
"173 422 OFFCURVE",
"130 422 CURVE SMOOTH",
"83 422 OFFCURVE",
"55 445 OFFCURVE",
"55 481 CURVE SMOOTH",
"55 531 OFFCURVE",
"108 553 OFFCURVE",
"231 553 CURVE",
"231 568 LINE",
"103 568 OFFCURVE",
"36 538 OFFCURVE",
"36 478 CURVE SMOOTH",
"36 435 OFFCURVE",
"71 406 OFFCURVE",
"125 406 CURVE SMOOTH"
);
}
);
userData = {
RMXScaler = {
height = 60;
verticalShift = 412;
weight = -2;
width = 60;
};
};
width = 300;
}
);
unicode = 00AA;
userData = {
RMXScaler = {
source = a;
};
};
},
{
glyphname = ordmasculine;
layers = (
{
anchors = (
{
name = "#exit";
position = "{316, 554}";
},
{
name = bottom;
position = "{203, 412}";
},
{
name = center;
position = "{203, 558}";
},
{
name = ogonek;
position = "{224, 418}";
},
{
name = top;
position = "{201, 703}";
},
{
name = topright;
position = "{339, 703}";
}
);
layerId = "F333AEC5-BB61-4D5E-9EDD-6124322D28F2";
paths = (
{
closed = 1;
nodes = (
"286 406 OFFCURVE",
"346 471 OFFCURVE",
"346 561 CURVE SMOOTH",
"346 648 OFFCURVE",
"290 708 OFFCURVE",
"207 708 CURVE SMOOTH",
"121 708 OFFCURVE",
"59 643 OFFCURVE",
"59 552 CURVE SMOOTH",
"59 465 OFFCURVE",
"116 406 OFFCURVE",
"199 406 CURVE SMOOTH"
);
},
{
closed = 1;
nodes = (
"157 459 OFFCURVE",
"123 497 OFFCURVE",
"123 558 CURVE SMOOTH",
"123 614 OFFCURVE",
"153 656 OFFCURVE",
"201 656 CURVE SMOOTH",
"249 656 OFFCURVE",
"282 616 OFFCURVE",
"282 555 CURVE SMOOTH",
"282 497 OFFCURVE",
"252 459 OFFCURVE",
"205 459 CURVE SMOOTH"
);
}
);
userData = {
RMXScaler = {
height = 60;
verticalShift = 412;
weight = -18;
width = 60;
};
};
width = 405;
},
{
anchors = (
{
name = "#exit";
position = "{339, 554}";
},
{
name = bottom;
position = "{231, 412}";
},
{
name = center;
position = "{231, 558}";
},
{
name = ogonek;
position = "{272, 418}";
},
{
name = top;
position = "{235, 705}";
},
{
name = topright;
position = "{373, 705}";
}
);
layerId = "51C2DFEF-3776-4D13-9284-96485B799B57";
paths = (
{
closed = 1;
nodes = (
"322 406 OFFCURVE",
"391 473 OFFCURVE",
"391 566 CURVE SMOOTH",
"391 653 OFFCURVE",
"330 712 OFFCURVE",
"238 712 CURVE SMOOTH",
"140 712 OFFCURVE",
"71 646 OFFCURVE",
"71 552 CURVE SMOOTH",
"71 464 OFFCURVE",
"132 406 OFFCURVE",
"223 406 CURVE SMOOTH"
);
},
{
closed = 1;
nodes = (
"203 495 OFFCURVE",
"176 522 OFFCURVE",
"176 563 CURVE SMOOTH",
"176 600 OFFCURVE",
"196 623 OFFCURVE",
"226 623 CURVE SMOOTH",
"260 623 OFFCURVE",
"285 594 OFFCURVE",
"285 554 CURVE SMOOTH",
"285 520 OFFCURVE",
"266 495 OFFCURVE",
"235 495 CURVE SMOOTH"
);
}
);
userData = {
RMXScaler = {
height = 60;
verticalShift = 412;
weight = -66;
width = 60;
};
};
width = 462;
},
{
anchors = (
{
name = "#exit";
position = "{324, 554}";
},
{
name = bottom;
position = "{207, 412}";
},
{
name = center;
position = "{207, 556}";
},
{
name = ogonek;
position = "{248, 418}";
},
{
name = top;
position = "{203, 700}";
},
{
name = topright;
position = "{305, 700}";
}
);
layerId = "0B2E441B-685E-400D-9B9B-E078DEED62EF";
paths = (
{
closed = 1;
nodes = (
"282 406 OFFCURVE",
"334 466 OFFCURVE",
"334 557 CURVE SMOOTH",
"334 646 OFFCURVE",
"283 704 OFFCURVE",
"208 704 CURVE SMOOTH",
"131 704 OFFCURVE",
"79 644 OFFCURVE",
"79 554 CURVE SMOOTH",
"79 465 OFFCURVE",
"129 406 OFFCURVE",
"206 406 CURVE SMOOTH"
);
},
{
closed = 1;
nodes = (
"141 422 OFFCURVE",
"98 476 OFFCURVE",
"98 556 CURVE SMOOTH",
"98 634 OFFCURVE",
"139 688 OFFCURVE",
"205 688 CURVE SMOOTH",
"271 688 OFFCURVE",
"315 636 OFFCURVE",
"315 554 CURVE SMOOTH",
"315 474 OFFCURVE",
"273 422 OFFCURVE",
"208 422 CURVE SMOOTH"
);
}
);
userData = {
RMXScaler = {
height = 60;
verticalShift = 412;
weight = -2;
width = 60;
};
};
width = 413;
}
);
unicode = 00BA;
userData = {
RMXScaler = {
source = o;
};
};
},
{
glyphname = pi;
layers = (
{
layerId = "F333AEC5-BB61-4D5E-9EDD-6124322D28F2";
paths = (
{
closed = 1;
nodes = (
"535 -10 OFFCURVE",
"561 -2 OFFCURVE",
"580 7 CURVE",
"566 63 LINE",
"557 59 OFFCURVE",
"545 55 OFFCURVE",
"532 55 CURVE SMOOTH",
"501 55 OFFCURVE",
"484 77 OFFCURVE",
"484 124 CURVE SMOOTH",
"484 425 LINE",
"404 425 LINE",
"404 114 LINE SMOOTH",
"404 34 OFFCURVE",
"445 -10 OFFCURVE",
"508 -10 CURVE SMOOTH"
);
},
{
closed = 1;
nodes = (
"188 0 LINE",
"188 425 LINE",
"108 425 LINE",
"108 0 LINE"
);
},
{
closed = 1;
nodes = (
"563 415 LINE",
"563 482 LINE",
"28 482 LINE",
"28 415 LINE"
);
}
);
width = 615;
},
{
layerId = "51C2DFEF-3776-4D13-9284-96485B799B57";
paths = (
{
closed = 1;
nodes = (
"614 -8 OFFCURVE",
"650 1 OFFCURVE",
"691 21 CURVE",
"662 139 LINE",
"644 134 OFFCURVE",
"628 130 OFFCURVE",
"615 130 CURVE SMOOTH",
"582 130 OFFCURVE",
"564 157 OFFCURVE",
"564 201 CURVE SMOOTH",
"564 425 LINE",
"391 425 LINE",
"391 182 LINE SMOOTH",
"391 63 OFFCURVE",
"457 -8 OFFCURVE",
"573 -8 CURVE SMOOTH"
);
},
{
closed = 1;
nodes = (
"281 0 LINE",
"281 425 LINE",
"108 425 LINE",
"108 0 LINE"
);
},
{
closed = 1;
nodes = (
"669 355 LINE",
"669 490 LINE",
"14 490 LINE",
"14 355 LINE"
);
}
);
width = 715;
},
{
layerId = "0B2E441B-685E-400D-9B9B-E078DEED62EF";
paths = (
{
closed = 1;
nodes = (
"490 -10 OFFCURVE",
"508 -5 OFFCURVE",
"523 4 CURVE",
"520 17 LINE",
"506 11 OFFCURVE",
"488 7 OFFCURVE",
"474 7 CURVE SMOOTH",
"450 7 OFFCURVE",
"434 30 OFFCURVE",
"434 64 CURVE SMOOTH",
"434 471 LINE",
"413 471 LINE",
"413 64 LINE SMOOTH",
"413 20 OFFCURVE",
"437 -10 OFFCURVE",
"472 -10 CURVE SMOOTH"
);
},
{
closed = 1;
nodes = (
"138 0 LINE",
"138 471 LINE",
"117 471 LINE",
"117 0 LINE"
);
},
{
closed = 1;
nodes = (
"512 463 LINE",
"512 480 LINE",
"37 480 LINE",
"37 463 LINE"
);
}
);
width = 566;
}
);
unicode = 03C0;
},
{
glyphname = zero;
layers = (
{
anchors = (
{
name = slash;
position = "{319, 350}";
}
);
layerId = "F333AEC5-BB61-4D5E-9EDD-6124322D28F2";
paths = (
{
closed = 1;
nodes = (
"474 -10 OFFCURVE",
"568 125 OFFCURVE",
"568 352 CURVE SMOOTH",
"568 573 OFFCURVE",
"477 704 OFFCURVE",
"324 704 CURVE SMOOTH",
"164 704 OFFCURVE",
"69 570 OFFCURVE",
"69 342 CURVE SMOOTH",
"69 121 OFFCURVE",
"161 -10 OFFCURVE",
"316 -10 CURVE SMOOTH"
);
},
{
closed = 1;
nodes = (
"217 62 OFFCURVE",
"154 170 OFFCURVE",
"154 352 CURVE SMOOTH",
"154 528 OFFCURVE",
"215 632 OFFCURVE",
"317 632 CURVE SMOOTH",
"421 632 OFFCURVE",
"483 524 OFFCURVE",
"483 342 CURVE SMOOTH",
"483 166 OFFCURVE",
"424 62 OFFCURVE",
"323 62 CURVE SMOOTH"
);
}
);
width = 638;
},
{
anchors = (
{
name = slash;
position = "{333, 345}";
}
);
layerId = "51C2DFEF-3776-4D13-9284-96485B799B57";
paths = (
{
closed = 1;
nodes = (
"505 -10 OFFCURVE",
"624 134 OFFCURVE",
"624 351 CURVE SMOOTH",
"624 563 OFFCURVE",
"507 704 OFFCURVE",
"334 704 CURVE SMOOTH",
"157 704 OFFCURVE",
"38 560 OFFCURVE",
"38 344 CURVE SMOOTH",
"38 132 OFFCURVE",
"155 -10 OFFCURVE",
"329 -10 CURVE SMOOTH"
);
},
{
closed = 1;
nodes = (
"262 138 OFFCURVE",
"216 223 OFFCURVE",
"216 350 CURVE SMOOTH",
"216 474 OFFCURVE",
"262 556 OFFCURVE",
"330 556 CURVE SMOOTH",
"399 556 OFFCURVE",
"446 471 OFFCURVE",
"446 343 CURVE SMOOTH",
"446 220 OFFCURVE",
"400 138 OFFCURVE",
"333 138 CURVE SMOOTH"
);
}
);
width = 662;
},
{
anchors = (
{
name = slash;
position = "{317, 350}";
}
);
layerId = "0B2E441B-685E-400D-9B9B-E078DEED62EF";
paths = (
{
closed = 1;
nodes = (
"439 -10 OFFCURVE",
"526 131 OFFCURVE",
"526 343 CURVE SMOOTH",
"526 556 OFFCURVE",
"440 699 OFFCURVE",
"312 699 CURVE SMOOTH",
"179 699 OFFCURVE",
"91 555 OFFCURVE",
"91 340 CURVE SMOOTH",
"91 130 OFFCURVE",
"178 -10 OFFCURVE",
"308 -10 CURVE SMOOTH"
);
},
{
closed = 1;
nodes = (
"192 8 OFFCURVE",
"112 142 OFFCURVE",
"112 343 CURVE SMOOTH",
"112 546 OFFCURVE",
"191 681 OFFCURVE",
"309 681 CURVE SMOOTH",
"427 681 OFFCURVE",
"505 544 OFFCURVE",
"505 340 CURVE SMOOTH",
"505 141 OFFCURVE",
"427 8 OFFCURVE",
"311 8 CURVE SMOOTH"
);
}
);
width = 617;
}
);
note = zero;
unicode = 0030;
},
{
glyphname = one;
layers = (
{
layerId = "F333AEC5-BB61-4D5E-9EDD-6124322D28F2";
paths = (
{
closed = 1;
nodes = (
"320 55 LINE",
"320 694 LINE",
"268 694 LINE",
"48 565 LINE",
"78 508 LINE",
"265 608 LINE",
"235 635 LINE",
"235 55 LINE"
);
},
{
closed = 1;
nodes = (
"472 0 LINE",
"472 71 LINE",
"59 71 LINE",
"59 0 LINE"
);
}
);
width = 512;
},
{
layerId = "51C2DFEF-3776-4D13-9284-96485B799B57";
paths = (
{
closed = 1;
nodes = (
"401 131 LINE",
"401 694 LINE",
"274 694 LINE",
"21 545 LINE",
"83 426 LINE",
"274 525 LINE",
"227 569 LINE",
"227 131 LINE"
);
},
{
closed = 1;
nodes = (
"557 0 LINE",
"557 148 LINE",
"55 148 LINE",
"55 0 LINE"
);
}
);
width = 577;
},
{
layerId = "0B2E441B-685E-400D-9B9B-E078DEED62EF";
paths = (
{
closed = 1;
nodes = (
"270 7 LINE",
"270 694 LINE",
"259 694 LINE",
"70 581 LINE",
"78 567 LINE",
"259 673 LINE",
"251 677 LINE",
"251 7 LINE"
);
},
{
closed = 1;
nodes = (
"431 0 LINE",
"431 17 LINE",
"72 17 LINE",
"72 0 LINE"
);
}
);
width = 487;
}
);
note = one;
unicode = 0031;
},
{
glyphname = two;
layers = (
{
layerId = "F333AEC5-BB61-4D5E-9EDD-6124322D28F2";
paths = (
{
closed = 1;
nodes = (
"505 0 LINE",
"505 72 LINE",
"144 72 LINE",
"152 48 LINE",
"384 266 OFFCURVE",
"475 383 OFFCURVE",
"475 510 CURVE SMOOTH",
"475 630 OFFCURVE",
"395 704 OFFCURVE",
"260 704 CURVE SMOOTH",
"187 704 OFFCURVE",
"110 682 OFFCURVE",
"48 644 CURVE",
"67 583 LINE",
"127 614 OFFCURVE",
"188 631 OFFCURVE",
"240 631 CURVE SMOOTH",
"330 631 OFFCURVE",
"390 579 OFFCURVE",
"390 495 CURVE SMOOTH",
"390 397 OFFCURVE",
"311 291 OFFCURVE",
"60 55 CURVE",
"60 0 LINE"
);
}
);
width = 557;
},
{
layerId = "51C2DFEF-3776-4D13-9284-96485B799B57";
paths = (
{
closed = 1;
nodes = (
"552 0 LINE",
"552 150 LINE",
"256 150 LINE",
"257 109 LINE",
"431 215 OFFCURVE",
"533 341 OFFCURVE",
"533 481 CURVE SMOOTH",
"533 621 OFFCURVE",
"433 704 OFFCURVE",
"265 704 CURVE SMOOTH",
"180 704 OFFCURVE",
"98 683 OFFCURVE",
"26 644 CURVE",
"65 513 LINE",
"131 543 OFFCURVE",
"181 556 OFFCURVE",
"229 556 CURVE SMOOTH",
"308 556 OFFCURVE",
"353 521 OFFCURVE",
"353 458 CURVE SMOOTH",
"353 378 OFFCURVE",
"283 289 OFFCURVE",
"52 109 CURVE",
"52 0 LINE"
);
}
);
width = 590;
},
{
layerId = "0B2E441B-685E-400D-9B9B-E078DEED62EF";
paths = (
{
closed = 1;
nodes = (
"470 0 LINE",
"470 17 LINE",
"84 17 LINE",
"88 10 LINE",
"386 310 OFFCURVE",
"443 405 OFFCURVE",
"443 509 CURVE SMOOTH",
"443 630 OFFCURVE",
"367 704 OFFCURVE",
"245 704 CURVE SMOOTH",
"182 704 OFFCURVE",
"118 685 OFFCURVE",
"64 649 CURVE",
"69 633 LINE",
"131 669 OFFCURVE",
"185 686 OFFCURVE",
"241 686 CURVE SMOOTH",
"352 686 OFFCURVE",
"422 617 OFFCURVE",
"422 507 CURVE SMOOTH",
"422 406 OFFCURVE",
"364 311 OFFCURVE",
"64 8 CURVE",
"64 0 LINE"
);
}
);
width = 538;
}
);
note = two;
unicode = 0032;
},
{
glyphname = three;
layers = (
{
layerId = "F333AEC5-BB61-4D5E-9EDD-6124322D28F2";
paths = (
{
closed = 1;
nodes = (
"413 -10 OFFCURVE",
"516 68 OFFCURVE",
"516 182 CURVE SMOOTH",
"516 284 OFFCURVE",
"436 361 OFFCURVE",
"318 373 CURVE",
"317 358 LINE",
"413 361 OFFCURVE",
"479 436 OFFCURVE",
"479 527 CURVE SMOOTH",
"479 632 OFFCURVE",
"393 704 OFFCURVE",
"268 704 CURVE SMOOTH",
"200 704 OFFCURVE",
"125 683 OFFCURVE",
"64 647 CURVE",
"83 586 LINE",
"141 614 OFFCURVE",
"201 631 OFFCURVE",
"251 631 CURVE SMOOTH",
"338 631 OFFCURVE",
"394 585 OFFCURVE",
"394 514 CURVE SMOOTH",
"394 432 OFFCURVE",
"318 386 OFFCURVE",
"181 386 CURVE",
"181 318 LINE",
"338 318 OFFCURVE",
"431 265 OFFCURVE",
"431 175 CURVE SMOOTH",
"431 105 OFFCURVE",
"372 63 OFFCURVE",
"271 63 CURVE SMOOTH",
"206 63 OFFCURVE",
"131 81 OFFCURVE",
"69 112 CURVE",
"50 43 LINE",
"115 9 OFFCURVE",
"189 -10 OFFCURVE",
"263 -10 CURVE SMOOTH"
);
}
);
width = 573;
},
{
layerId = "51C2DFEF-3776-4D13-9284-96485B799B57";
paths = (
{
closed = 1;
nodes = (
"434 -10 OFFCURVE",
"551 67 OFFCURVE",
"551 193 CURVE SMOOTH",
"551 290 OFFCURVE",
"483 360 OFFCURVE",
"378 370 CURVE",
"352 353 LINE",
"451 359 OFFCURVE",
"513 422 OFFCURVE",
"513 518 CURVE SMOOTH",
"513 634 OFFCURVE",
"423 704 OFFCURVE",
"270 704 CURVE SMOOTH",
"191 704 OFFCURVE",
"110 685 OFFCURVE",
"36 644 CURVE",
"75 513 LINE",
"135 540 OFFCURVE",
"188 556 OFFCURVE",
"236 556 CURVE SMOOTH",
"294 556 OFFCURVE",
"333 532 OFFCURVE",
"333 494 CURVE SMOOTH",
"333 444 OFFCURVE",
"270 415 OFFCURVE",
"164 415 CURVE",
"164 277 LINE",
"294 277 OFFCURVE",
"371 247 OFFCURVE",
"371 197 CURVE SMOOTH",
"371 160 OFFCURVE",
"328 138 OFFCURVE",
"253 138 CURVE SMOOTH",
"194 138 OFFCURVE",
"127 152 OFFCURVE",
"71 176 CURVE",
"26 39 LINE",
"92 5 OFFCURVE",
"159 -10 OFFCURVE",
"243 -10 CURVE SMOOTH"
);
}
);
width = 581;
},
{
layerId = "0B2E441B-685E-400D-9B9B-E078DEED62EF";
paths = (
{
closed = 1;
nodes = (
"408 -10 OFFCURVE",
"495 60 OFFCURVE",
"495 170 CURVE SMOOTH",
"495 273 OFFCURVE",
"418 337 OFFCURVE",
"271 356 CURVE",
"271 352 LINE",
"384 359 OFFCURVE",
"458 429 OFFCURVE",
"458 528 CURVE SMOOTH",
"458 632 OFFCURVE",
"378 704 OFFCURVE",
"261 704 CURVE SMOOTH",
"197 704 OFFCURVE",
"133 683 OFFCURVE",
"81 645 CURVE",
"86 629 LINE",
"146 668 OFFCURVE",
"200 686 OFFCURVE",
"257 686 CURVE SMOOTH",
"365 686 OFFCURVE",
"437 624 OFFCURVE",
"437 524 CURVE SMOOTH",
"437 416 OFFCURVE",
"355 361 OFFCURVE",
"194 361 CURVE",
"194 344 LINE",
"374 344 OFFCURVE",
"475 281 OFFCURVE",
"475 168 CURVE SMOOTH",
"475 69 OFFCURVE",
"398 9 OFFCURVE",
"273 9 CURVE SMOOTH",
"202 9 OFFCURVE",
"127 29 OFFCURVE",
"67 63 CURVE",
"62 45 LINE",
"120 11 OFFCURVE",
"199 -10 OFFCURVE",
"272 -10 CURVE SMOOTH"
);
}
);
width = 573;
}
);
note = three;
unicode = 0033;
},
{
glyphname = four;
layers = (
{
layerId = "F333AEC5-BB61-4D5E-9EDD-6124322D28F2";
paths = (
{
closed = 1;
nodes = (
"464 -10 LINE",
"464 694 LINE",
"402 694 LINE",
"42 206 LINE",
"42 161 LINE",
"589 161 LINE",
"589 236 LINE",
"128 236 LINE",
"128 214 LINE",
"389 567 LINE",
"381 567 LINE",
"381 -10 LINE"
);
}
);
width = 633;
},
{
layerId = "51C2DFEF-3776-4D13-9284-96485B799B57";
paths = (
{
closed = 1;
nodes = (
"514 -5 LINE",
"514 694 LINE",
"348 694 LINE",
"25 281 LINE",
"25 131 LINE",
"608 131 LINE",
"608 281 LINE",
"98 283 LINE",
"138 224 LINE",
"384 546 LINE",
"340 583 LINE",
"340 -5 LINE"
);
}
);
width = 632;
},
{
layerId = "0B2E441B-685E-400D-9B9B-E078DEED62EF";
paths = (
{
closed = 1;
nodes = (
"430 -10 LINE",
"430 694 LINE",
"417 694 LINE",
"60 200 LINE",
"60 190 LINE",
"551 190 LINE",
"551 207 LINE",
"82 207 LINE",
"82 202 LINE",
"415 662 LINE",
"412 665 LINE",
"412 -10 LINE"
);
}
);
width = 610;
}
);
note = four;
unicode = 0034;
},
{
glyphname = five;
layers = (
{
layerId = "F333AEC5-BB61-4D5E-9EDD-6124322D28F2";
paths = (
{
closed = 1;
nodes = (
"408 -10 OFFCURVE",
"511 77 OFFCURVE",
"511 215 CURVE SMOOTH",
"511 346 OFFCURVE",
"418 427 OFFCURVE",
"262 427 CURVE SMOOTH",
"227 427 OFFCURVE",
"189 423 OFFCURVE",
"151 415 CURVE",
"170 389 LINE",
"181 622 LINE",
"478 622 LINE",
"478 694 LINE",
"106 694 LINE",
"89 338 LINE",
"140 349 OFFCURVE",
"195 355 OFFCURVE",
"234 355 CURVE SMOOTH",
"356 355 OFFCURVE",
"426 298 OFFCURVE",
"426 205 CURVE SMOOTH",
"426 116 OFFCURVE",
"362 63 OFFCURVE",
"260 63 CURVE SMOOTH",
"200 63 OFFCURVE",
"135 80 OFFCURVE",
"80 108 CURVE",
"56 41 LINE",
"119 8 OFFCURVE",
"183 -10 OFFCURVE",
"252 -10 CURVE SMOOTH"
);
}
);
width = 569;
},
{
layerId = "51C2DFEF-3776-4D13-9284-96485B799B57";
paths = (
{
closed = 1;
nodes = (
"437 -10 OFFCURVE",
"554 81 OFFCURVE",
"554 226 CURVE SMOOTH",
"554 362 OFFCURVE",
"453 441 OFFCURVE",
"279 441 CURVE SMOOTH",
"238 441 OFFCURVE",
"199 437 OFFCURVE",
"170 429 CURVE",
"250 365 LINE",
"258 543 LINE",
"517 543 LINE",
"517 694 LINE",
"89 694 LINE",
"71 287 LINE",
"114 295 OFFCURVE",
"169 301 OFFCURVE",
"210 301 CURVE SMOOTH",
"314 301 OFFCURVE",
"374 268 OFFCURVE",
"374 212 CURVE SMOOTH",
"374 165 OFFCURVE",
"331 140 OFFCURVE",
"253 140 CURVE SMOOTH",
"193 140 OFFCURVE",
"126 155 OFFCURVE",
"76 179 CURVE",
"29 41 LINE",
"96 7 OFFCURVE",
"172 -10 OFFCURVE",
"252 -10 CURVE SMOOTH"
);
}
);
width = 589;
},
{
layerId = "0B2E441B-685E-400D-9B9B-E078DEED62EF";
paths = (
{
closed = 1;
nodes = (
"400 -10 OFFCURVE",
"486 80 OFFCURVE",
"486 203 CURVE SMOOTH",
"486 326 OFFCURVE",
"399 403 OFFCURVE",
"254 403 CURVE SMOOTH",
"217 403 OFFCURVE",
"167 398 OFFCURVE",
"117 388 CURVE",
"129 384 LINE",
"142 677 LINE",
"457 677 LINE",
"457 694 LINE",
"124 694 LINE",
"108 369 LINE",
"154 379 OFFCURVE",
"206 385 OFFCURVE",
"247 385 CURVE SMOOTH",
"391 385 OFFCURVE",
"465 310 OFFCURVE",
"465 201 CURVE SMOOTH",
"465 88 OFFCURVE",
"387 9 OFFCURVE",
"266 9 CURVE SMOOTH",
"204 9 OFFCURVE",
"132 29 OFFCURVE",
"87 58 CURVE",
"81 41 LINE",
"131 9 OFFCURVE",
"198 -10 OFFCURVE",
"262 -10 CURVE SMOOTH"
);
}
);
width = 562;
}
);
note = five;
unicode = 0035;
},
{
glyphname = six;
layers = (
{
layerId = "F333AEC5-BB61-4D5E-9EDD-6124322D28F2";
paths = (
{
closed = 1;
nodes = (
"449 -10 OFFCURVE",
"542 80 OFFCURVE",
"542 213 CURVE SMOOTH",
"542 338 OFFCURVE",
"460 424 OFFCURVE",
"340 424 CURVE SMOOTH",
"239 424 OFFCURVE",
"159 364 OFFCURVE",
"113 256 CURVE",
"135 213 LINE",
"169 302 OFFCURVE",
"232 352 OFFCURVE",
"311 352 CURVE SMOOTH",
"398 352 OFFCURVE",
"457 291 OFFCURVE",
"457 199 CURVE SMOOTH",
"457 115 OFFCURVE",
"408 63 OFFCURVE",
"327 63 CURVE SMOOTH",
"218 63 OFFCURVE",
"158 159 OFFCURVE",
"158 334 CURVE SMOOTH",
"158 535 OFFCURVE",
"235 631 OFFCURVE",
"364 631 CURVE SMOOTH",
"415 631 OFFCURVE",
"471 618 OFFCURVE",
"508 595 CURVE",
"532 660 LINE",
"497 687 OFFCURVE",
"438 704 OFFCURVE",
"373 704 CURVE SMOOTH",
"184 704 OFFCURVE",
"68 567 OFFCURVE",
"68 328 CURVE SMOOTH",
"68 110 OFFCURVE",
"165 -10 OFFCURVE",
"317 -10 CURVE SMOOTH"
);
}
);
width = 603;
},
{
layerId = "51C2DFEF-3776-4D13-9284-96485B799B57";
paths = (
{
closed = 1;
nodes = (
"477 -10 OFFCURVE",
"583 87 OFFCURVE",
"583 232 CURVE SMOOTH",
"583 362 OFFCURVE",
"500 449 OFFCURVE",
"376 449 CURVE SMOOTH",
"282 449 OFFCURVE",
"210 399 OFFCURVE",
"168 315 CURVE",
"211 255 LINE",
"238 280 OFFCURVE",
"279 301 OFFCURVE",
"322 301 CURVE SMOOTH",
"373 301 OFFCURVE",
"407 268 OFFCURVE",
"407 219 CURVE SMOOTH",
"407 170 OFFCURVE",
"375 138 OFFCURVE",
"330 138 CURVE SMOOTH",
"260 138 OFFCURVE",
"221 211 OFFCURVE",
"221 338 CURVE SMOOTH",
"221 491 OFFCURVE",
"272 556 OFFCURVE",
"386 556 CURVE SMOOTH",
"434 556 OFFCURVE",
"481 545 OFFCURVE",
"526 523 CURVE",
"572 663 LINE",
"515 690 OFFCURVE",
"449 704 OFFCURVE",
"379 704 CURVE SMOOTH",
"157 704 OFFCURVE",
"40 573 OFFCURVE",
"40 322 CURVE SMOOTH",
"40 110 OFFCURVE",
"141 -10 OFFCURVE",
"318 -10 CURVE SMOOTH"
);
}
);
width = 620;
},
{
layerId = "0B2E441B-685E-400D-9B9B-E078DEED62EF";
paths = (
{
closed = 1;
nodes = (
"439 -10 OFFCURVE",
"521 77 OFFCURVE",
"521 206 CURVE SMOOTH",
"521 333 OFFCURVE",
"441 410 OFFCURVE",
"322 410 CURVE SMOOTH",
"225 410 OFFCURVE",
"149 361 OFFCURVE",
"103 270 CURVE",
"103 239 LINE",
"147 337 OFFCURVE",
"224 392 OFFCURVE",
"320 392 CURVE SMOOTH",
"426 392 OFFCURVE",
"500 322 OFFCURVE",
"500 203 CURVE SMOOTH",
"500 86 OFFCURVE",
"428 8 OFFCURVE",
"320 8 CURVE SMOOTH",
"188 8 OFFCURVE",
"112 125 OFFCURVE",
"112 322 CURVE SMOOTH",
"112 560 OFFCURVE",
"199 686 OFFCURVE",
"363 686 CURVE SMOOTH",
"414 686 OFFCURVE",
"464 673 OFFCURVE",
"502 650 CURVE",
"509 667 LINE",
"468 691 OFFCURVE",
"419 704 OFFCURVE",
"365 704 CURVE SMOOTH",
"186 704 OFFCURVE",
"91 570 OFFCURVE",
"91 319 CURVE SMOOTH",
"91 113 OFFCURVE",
"175 -10 OFFCURVE",
"319 -10 CURVE SMOOTH"
);
}
);
width = 600;
}
);
note = six;
unicode = 0036;
},
{
glyphname = seven;
layers = (
{
layerId = "F333AEC5-BB61-4D5E-9EDD-6124322D28F2";
paths = (
{
closed = 1;
nodes = (
"217 0 LINE",
"505 654 LINE",
"505 694 LINE",
"40 694 LINE",
"40 622 LINE",
"440 622 LINE",
"419 652 LINE",
"130 0 LINE"
);
}
);
width = 547;
},
{
layerId = "51C2DFEF-3776-4D13-9284-96485B799B57";
paths = (
{
closed = 1;
nodes = (
"255 0 LINE",
"537 590 LINE",
"537 694 LINE",
"22 694 LINE",
"22 540 LINE",
"383 540 LINE",
"352 587 LINE",
"68 0 LINE"
);
}
);
width = 557;
},
{
layerId = "0B2E441B-685E-400D-9B9B-E078DEED62EF";
paths = (
{
closed = 1;
nodes = (
"187 0 LINE",
"482 682 LINE",
"482 694 LINE",
"55 694 LINE",
"55 676 LINE",
"465 676 LINE",
"462 685 LINE",
"164 0 LINE"
);
}
);
width = 542;
}
);
note = seven;
unicode = 0037;
},
{
glyphname = eight;
layers = (
{
layerId = "F333AEC5-BB61-4D5E-9EDD-6124322D28F2";
paths = (
{
closed = 1;
nodes = (
"449 -10 OFFCURVE",
"544 63 OFFCURVE",
"544 176 CURVE SMOOTH",
"544 401 OFFCURVE",
"169 359 OFFCURVE",
"169 534 CURVE SMOOTH",
"169 595 OFFCURVE",
"216 633 OFFCURVE",
"293 633 CURVE SMOOTH",
"377 633 OFFCURVE",
"434 589 OFFCURVE",
"434 523 CURVE SMOOTH",
"434 458 OFFCURVE",
"379 402 OFFCURVE",
"298 387 CURVE",
"361 356 LINE",
"455 384 OFFCURVE",
"513 453 OFFCURVE",
"513 537 CURVE SMOOTH",
"513 637 OFFCURVE",
"430 704 OFFCURVE",
"305 704 CURVE SMOOTH",
"173 704 OFFCURVE",
"86 631 OFFCURVE",
"86 521 CURVE SMOOTH",
"86 290 OFFCURVE",
"459 344 OFFCURVE",
"459 169 CURVE SMOOTH",
"459 102 OFFCURVE",
"408 63 OFFCURVE",
"317 63 CURVE SMOOTH",
"215 63 OFFCURVE",
"147 112 OFFCURVE",
"147 185 CURVE SMOOTH",
"147 257 OFFCURVE",
"210 315 OFFCURVE",
"302 328 CURVE",
"248 361 LINE",
"136 346 OFFCURVE",
"62 271 OFFCURVE",
"62 174 CURVE SMOOTH",
"62 64 OFFCURVE",
"158 -10 OFFCURVE",
"303 -10 CURVE SMOOTH"
);
}
);
width = 603;
},
{
layerId = "51C2DFEF-3776-4D13-9284-96485B799B57";
paths = (
{
closed = 1;
nodes = (
"479 -10 OFFCURVE",
"591 76 OFFCURVE",
"591 206 CURVE SMOOTH",
"591 429 OFFCURVE",
"233 385 OFFCURVE",
"233 498 CURVE SMOOTH",
"233 533 OFFCURVE",
"264 556 OFFCURVE",
"312 556 CURVE SMOOTH",
"359 556 OFFCURVE",
"390 533 OFFCURVE",
"390 497 CURVE SMOOTH",
"390 456 OFFCURVE",
"356 424 OFFCURVE",
"306 419 CURVE",
"423 359 LINE",
"516 393 OFFCURVE",
"568 455 OFFCURVE",
"568 529 CURVE SMOOTH",
"568 634 OFFCURVE",
"467 704 OFFCURVE",
"318 704 CURVE SMOOTH",
"160 704 OFFCURVE",
"55 619 OFFCURVE",
"55 492 CURVE SMOOTH",
"55 260 OFFCURVE",
"413 306 OFFCURVE",
"413 197 CURVE SMOOTH",
"413 162 OFFCURVE",
"375 138 OFFCURVE",
"320 138 CURVE SMOOTH",
"256 138 OFFCURVE",
"214 169 OFFCURVE",
"214 215 CURVE SMOOTH",
"214 260 OFFCURVE",
"254 292 OFFCURVE",
"314 294 CURVE",
"215 357 LINE",
"103 337 OFFCURVE",
"36 273 OFFCURVE",
"36 185 CURVE SMOOTH",
"36 68 OFFCURVE",
"146 -10 OFFCURVE",
"311 -10 CURVE SMOOTH"
);
}
);
width = 625;
},
{
layerId = "0B2E441B-685E-400D-9B9B-E078DEED62EF";
paths = (
{
closed = 1;
nodes = (
"433 -10 OFFCURVE",
"520 57 OFFCURVE",
"520 163 CURVE SMOOTH",
"520 389 OFFCURVE",
"125 324 OFFCURVE",
"125 540 CURVE SMOOTH",
"125 629 OFFCURVE",
"192 687 OFFCURVE",
"290 687 CURVE SMOOTH",
"388 687 OFFCURVE",
"463 628 OFFCURVE",
"463 543 CURVE SMOOTH",
"463 460 OFFCURVE",
"391 397 OFFCURVE",
"282 369 CURVE",
"298 358 LINE",
"411 385 OFFCURVE",
"482 454 OFFCURVE",
"482 543 CURVE SMOOTH",
"482 639 OFFCURVE",
"401 704 OFFCURVE",
"292 704 CURVE SMOOTH",
"182 704 OFFCURVE",
"106 639 OFFCURVE",
"106 538 CURVE SMOOTH",
"106 307 OFFCURVE",
"500 372 OFFCURVE",
"500 161 CURVE SMOOTH",
"500 67 OFFCURVE",
"423 7 OFFCURVE",
"305 7 CURVE SMOOTH",
"184 7 OFFCURVE",
"101 71 OFFCURVE",
"101 166 CURVE SMOOTH",
"101 254 OFFCURVE",
"173 325 OFFCURVE",
"282 352 CURVE",
"266 363 LINE",
"155 338 OFFCURVE",
"81 260 OFFCURVE",
"81 164 CURVE SMOOTH",
"81 60 OFFCURVE",
"170 -10 OFFCURVE",
"303 -10 CURVE SMOOTH"
);
}
);
width = 597;
}
);
note = eight;
unicode = 0038;
},
{
glyphname = zero.osf;
layers = (
{
anchors = (
{
name = slash;
position = "{314, 250}";
}
);
layerId = "F333AEC5-BB61-4D5E-9EDD-6124322D28F2";
paths = (
{
closed = 1;
nodes = (
"449 -10 OFFCURVE",
"550 95 OFFCURVE",
"550 243 CURVE SMOOTH",
"550 389 OFFCURVE",
"452 492 OFFCURVE",
"313 492 CURVE SMOOTH",
"168 492 OFFCURVE",
"66 385 OFFCURVE",
"66 234 CURVE SMOOTH",
"66 91 OFFCURVE",
"165 -10 OFFCURVE",
"305 -10 CURVE SMOOTH"
);
},
{
closed = 1;
nodes = (
"215 60 OFFCURVE",
"146 136 OFFCURVE",
"146 243 CURVE SMOOTH",
"146 348 OFFCURVE",
"212 422 OFFCURVE",
"305 422 CURVE SMOOTH",
"402 422 OFFCURVE",
"470 344 OFFCURVE",
"470 234 CURVE SMOOTH",
"470 132 OFFCURVE",
"405 60 OFFCURVE",
"313 60 CURVE SMOOTH"
);
}
);
width = 617;
},
{
anchors = (
{
name = slash;
position = "{308, 245}";
}
);
layerId = "51C2DFEF-3776-4D13-9284-96485B799B57";
paths = (
{
closed = 1;
nodes = (
"469 -6 OFFCURVE",
"579 97 OFFCURVE",
"579 250 CURVE SMOOTH",
"579 401 OFFCURVE",
"472 500 OFFCURVE",
"310 500 CURVE SMOOTH",
"147 500 OFFCURVE",
"38 398 OFFCURVE",
"38 246 CURVE SMOOTH",
"38 95 OFFCURVE",
"145 -6 OFFCURVE",
"306 -6 CURVE SMOOTH"
);
},
{
closed = 1;
nodes = (
"252 138 OFFCURVE",
"213 183 OFFCURVE",
"213 250 CURVE SMOOTH",
"213 314 OFFCURVE",
"250 356 OFFCURVE",
"307 356 CURVE SMOOTH",
"365 356 OFFCURVE",
"403 312 OFFCURVE",
"403 247 CURVE SMOOTH",
"403 182 OFFCURVE",
"365 138 OFFCURVE",
"309 138 CURVE SMOOTH"
);
}
);
width = 617;
},
{
anchors = (
{
name = slash;
position = "{313, 250}";
}
);
layerId = "0B2E441B-685E-400D-9B9B-E078DEED62EF";
paths = (
{
closed = 1;
nodes = (
"446 -10 OFFCURVE",
"535 89 OFFCURVE",
"535 238 CURVE SMOOTH",
"535 387 OFFCURVE",
"447 487 OFFCURVE",
"315 487 CURVE SMOOTH",
"180 487 OFFCURVE",
"90 386 OFFCURVE",
"90 235 CURVE SMOOTH",
"90 88 OFFCURVE",
"179 -10 OFFCURVE",
"312 -10 CURVE SMOOTH"
);
},
{
closed = 1;
nodes = (
"193 8 OFFCURVE",
"111 100 OFFCURVE",
"111 238 CURVE SMOOTH",
"111 376 OFFCURVE",
"191 469 OFFCURVE",
"312 469 CURVE SMOOTH",
"433 469 OFFCURVE",
"514 375 OFFCURVE",
"514 235 CURVE SMOOTH",
"514 99 OFFCURVE",
"434 8 OFFCURVE",
"315 8 CURVE SMOOTH"
);
}
);
width = 625;
}
);
},
{
glyphname = one.osf;
layers = (
{
layerId = "F333AEC5-BB61-4D5E-9EDD-6124322D28F2";
paths = (
{
closed = 1;
nodes = (
"330 30 LINE",
"330 482 LINE",
"270 482 LINE",
"53 363 LINE",
"83 306 LINE",
"277 405 LINE",
"250 424 LINE",
"250 30 LINE"
);
},
{
closed = 1;
nodes = (
"480 0 LINE",
"480 70 LINE",
"77 70 LINE",
"77 0 LINE"
);
}
);
width = 526;
},
{
layerId = "51C2DFEF-3776-4D13-9284-96485B799B57";
paths = (
{
closed = 1;
nodes = (
"391 81 LINE",
"391 490 LINE",
"279 490 LINE",
"31 354 LINE",
"87 236 LINE",
"270 323 LINE",
"220 365 LINE",
"220 81 LINE"
);
},
{
closed = 1;
nodes = (
"535 0 LINE",
"535 132 LINE",
"61 132 LINE",
"61 0 LINE"
);
}
);
width = 561;
},
{
layerId = "0B2E441B-685E-400D-9B9B-E078DEED62EF";
paths = (
{
closed = 1;
nodes = (
"279 7 LINE",
"279 480 LINE",
"267 480 LINE",
"69 371 LINE",
"77 357 LINE",
"267 459 LINE",
"259 463 LINE",
"259 7 LINE"
);
},
{
closed = 1;
nodes = (
"442 0 LINE",
"442 16 LINE",
"78 16 LINE",
"78 0 LINE"
);
}
);
width = 501;
}
);
},
{
glyphname = two.osf;
layers = (
{
layerId = "F333AEC5-BB61-4D5E-9EDD-6124322D28F2";
paths = (
{
closed = 1;
nodes = (
"488 0 LINE",
"488 71 LINE",
"152 71 LINE",
"160 38 LINE",
"374 130 OFFCURVE",
"458 212 OFFCURVE",
"458 319 CURVE SMOOTH",
"458 425 OFFCURVE",
"378 492 OFFCURVE",
"250 492 CURVE SMOOTH",
"186 492 OFFCURVE",
"124 476 OFFCURVE",
"57 441 CURVE",
"75 383 LINE",
"138 410 OFFCURVE",
"189 422 OFFCURVE",
"233 422 CURVE SMOOTH",
"317 422 OFFCURVE",
"373 377 OFFCURVE",
"373 310 CURVE SMOOTH",
"373 231 OFFCURVE",
"291 166 OFFCURVE",
"68 55 CURVE",
"68 0 LINE"
);
}
);
width = 547;
},
{
layerId = "51C2DFEF-3776-4D13-9284-96485B799B57";
paths = (
{
closed = 1;
nodes = (
"515 0 LINE",
"515 133 LINE",
"268 133 LINE",
"215 66 LINE",
"392 116 OFFCURVE",
"495 211 OFFCURVE",
"495 324 CURVE SMOOTH",
"495 432 OFFCURVE",
"404 500 OFFCURVE",
"260 500 CURVE SMOOTH",
"183 500 OFFCURVE",
"105 481 OFFCURVE",
"27 446 CURVE",
"66 326 LINE",
"116 345 OFFCURVE",
"172 356 OFFCURVE",
"216 356 CURVE SMOOTH",
"278 356 OFFCURVE",
"315 334 OFFCURVE",
"315 298 CURVE SMOOTH",
"315 245 OFFCURVE",
"240 189 OFFCURVE",
"60 104 CURVE",
"60 0 LINE"
);
}
);
width = 559;
},
{
layerId = "0B2E441B-685E-400D-9B9B-E078DEED62EF";
paths = (
{
closed = 1;
nodes = (
"460 0 LINE",
"460 17 LINE",
"116 17 LINE",
"120 10 LINE",
"329 118 OFFCURVE",
"434 227 OFFCURVE",
"434 335 CURVE SMOOTH",
"434 427 OFFCURVE",
"358 490 OFFCURVE",
"247 490 CURVE SMOOTH",
"182 490 OFFCURVE",
"119 469 OFFCURVE",
"69 439 CURVE",
"74 425 LINE",
"130 454 OFFCURVE",
"186 472 OFFCURVE",
"243 472 CURVE SMOOTH",
"345 472 OFFCURVE",
"414 416 OFFCURVE",
"414 333 CURVE SMOOTH",
"414 229 OFFCURVE",
"304 122 OFFCURVE",
"79 8 CURVE",
"79 0 LINE"
);
}
);
width = 534;
}
);
},
{
glyphname = three.osf;
layers = (
{
layerId = "F333AEC5-BB61-4D5E-9EDD-6124322D28F2";
paths = (
{
closed = 1;
nodes = (
"390 -222 OFFCURVE",
"490 -143 OFFCURVE",
"490 -28 CURVE SMOOTH",
"490 74 OFFCURVE",
"412 149 OFFCURVE",
"294 161 CURVE",
"294 156 LINE",
"389 159 OFFCURVE",
"453 224 OFFCURVE",
"453 314 CURVE SMOOTH",
"453 419 OFFCURVE",
"365 492 OFFCURVE",
"243 492 CURVE SMOOTH",
"177 492 OFFCURVE",
"108 473 OFFCURVE",
"42 437 CURVE",
"63 382 LINE",
"124 408 OFFCURVE",
"180 422 OFFCURVE",
"225 422 CURVE SMOOTH",
"311 422 OFFCURVE",
"373 374 OFFCURVE",
"373 304 CURVE SMOOTH",
"373 227 OFFCURVE",
"292 174 OFFCURVE",
"172 174 CURVE",
"172 110 LINE",
"312 110 OFFCURVE",
"410 51 OFFCURVE",
"410 -36 CURVE SMOOTH",
"410 -105 OFFCURVE",
"347 -152 OFFCURVE",
"251 -152 CURVE SMOOTH",
"194 -152 OFFCURVE",
"131 -136 OFFCURVE",
"60 -106 CURVE",
"41 -172 LINE",
"101 -203 OFFCURVE",
"175 -222 OFFCURVE",
"244 -222 CURVE SMOOTH"
);
}
);
width = 540;
},
{
layerId = "51C2DFEF-3776-4D13-9284-96485B799B57";
paths = (
{
closed = 1;
nodes = (
"419 -214 OFFCURVE",
"526 -136 OFFCURVE",
"526 -7 CURVE SMOOTH",
"526 92 OFFCURVE",
"463 154 OFFCURVE",
"355 166 CURVE",
"334 149 LINE",
"427 155 OFFCURVE",
"489 221 OFFCURVE",
"489 317 CURVE SMOOTH",
"489 431 OFFCURVE",
"402 500 OFFCURVE",
"253 500 CURVE SMOOTH",
"174 500 OFFCURVE",
"95 480 OFFCURVE",
"24 442 CURVE",
"61 323 LINE",
"112 343 OFFCURVE",
"171 356 OFFCURVE",
"213 356 CURVE SMOOTH",
"274 356 OFFCURVE",
"313 330 OFFCURVE",
"313 288 CURVE SMOOTH",
"313 237 OFFCURVE",
"252 209 OFFCURVE",
"148 209 CURVE",
"148 75 LINE",
"275 75 OFFCURVE",
"350 44 OFFCURVE",
"350 -8 CURVE SMOOTH",
"350 -47 OFFCURVE",
"307 -70 OFFCURVE",
"239 -70 CURVE SMOOTH",
"182 -70 OFFCURVE",
"112 -54 OFFCURVE",
"55 -28 CURVE",
"18 -165 LINE",
"88 -199 OFFCURVE",
"166 -214 OFFCURVE",
"243 -214 CURVE SMOOTH"
);
}
);
width = 552;
},
{
layerId = "0B2E441B-685E-400D-9B9B-E078DEED62EF";
paths = (
{
closed = 1;
nodes = (
"386 -224 OFFCURVE",
"471 -153 OFFCURVE",
"471 -44 CURVE SMOOTH",
"471 63 OFFCURVE",
"395 127 OFFCURVE",
"250 143 CURVE",
"250 138 LINE",
"362 145 OFFCURVE",
"435 215 OFFCURVE",
"435 314 CURVE SMOOTH",
"435 418 OFFCURVE",
"356 490 OFFCURVE",
"240 490 CURVE SMOOTH",
"179 490 OFFCURVE",
"114 470 OFFCURVE",
"61 436 CURVE",
"66 422 LINE",
"124 455 OFFCURVE",
"184 472 OFFCURVE",
"239 472 CURVE SMOOTH",
"346 472 OFFCURVE",
"414 410 OFFCURVE",
"414 310 CURVE SMOOTH",
"414 202 OFFCURVE",
"333 147 OFFCURVE",
"174 147 CURVE",
"174 130 LINE",
"350 130 OFFCURVE",
"451 67 OFFCURVE",
"451 -46 CURVE SMOOTH",
"451 -144 OFFCURVE",
"376 -205 OFFCURVE",
"256 -205 CURVE SMOOTH",
"193 -205 OFFCURVE",
"119 -187 OFFCURVE",
"59 -158 CURVE",
"52 -174 LINE",
"114 -206 OFFCURVE",
"188 -224 OFFCURVE",
"255 -224 CURVE SMOOTH"
);
}
);
width = 539;
}
);
},
{
glyphname = four.osf;
layers = (
{
layerId = "F333AEC5-BB61-4D5E-9EDD-6124322D28F2";
paths = (
{
closed = 1;
nodes = (
"444 -217 LINE",
"444 482 LINE",
"380 482 LINE",
"45 50 LINE",
"45 0 LINE",
"569 0 LINE",
"569 71 LINE",
"124 71 LINE",
"124 42 LINE",
"375 367 LINE",
"364 367 LINE",
"364 -217 LINE"
);
}
);
width = 615;
},
{
layerId = "51C2DFEF-3776-4D13-9284-96485B799B57";
paths = (
{
closed = 1;
nodes = (
"501 -207 LINE",
"501 490 LINE",
"342 490 LINE",
"21 88 LINE",
"21 0 LINE",
"624 0 LINE",
"624 132 LINE",
"94 134 LINE",
"149 54 LINE",
"388 358 LINE",
"333 400 LINE",
"333 -207 LINE"
);
}
);
width = 649;
},
{
layerId = "0B2E441B-685E-400D-9B9B-E078DEED62EF";
paths = (
{
closed = 1;
nodes = (
"429 -227 LINE",
"429 480 LINE",
"414 480 LINE",
"60 10 LINE",
"60 0 LINE",
"546 0 LINE",
"546 17 LINE",
"82 17 LINE",
"82 12 LINE",
"412 448 LINE",
"409 451 LINE",
"409 -227 LINE"
);
}
);
width = 605;
}
);
},
{
glyphname = five.osf;
layers = (
{
layerId = "F333AEC5-BB61-4D5E-9EDD-6124322D28F2";
paths = (
{
closed = 1;
nodes = (
"391 -222 OFFCURVE",
"494 -135 OFFCURVE",
"494 3 CURVE SMOOTH",
"494 135 OFFCURVE",
"400 216 OFFCURVE",
"250 216 CURVE SMOOTH",
"216 216 OFFCURVE",
"178 212 OFFCURVE",
"138 204 CURVE",
"157 177 LINE",
"168 415 LINE",
"462 415 LINE",
"462 482 LINE",
"97 482 LINE",
"80 129 LINE",
"128 140 OFFCURVE",
"184 146 OFFCURVE",
"221 146 CURVE SMOOTH",
"337 146 OFFCURVE",
"414 86 OFFCURVE",
"414 -9 CURVE SMOOTH",
"414 -97 OFFCURVE",
"346 -152 OFFCURVE",
"250 -152 CURVE SMOOTH",
"198 -152 OFFCURVE",
"130 -136 OFFCURVE",
"68 -108 CURVE",
"49 -174 LINE",
"113 -207 OFFCURVE",
"172 -222 OFFCURVE",
"237 -222 CURVE SMOOTH"
);
}
);
width = 549;
},
{
layerId = "51C2DFEF-3776-4D13-9284-96485B799B57";
paths = (
{
closed = 1;
nodes = (
"423 -214 OFFCURVE",
"534 -125 OFFCURVE",
"534 20 CURVE SMOOTH",
"534 156 OFFCURVE",
"436 247 OFFCURVE",
"269 247 CURVE SMOOTH",
"234 247 OFFCURVE",
"193 243 OFFCURVE",
"159 235 CURVE",
"226 171 LINE",
"234 355 LINE",
"495 355 LINE",
"495 490 LINE",
"79 490 LINE",
"61 99 LINE",
"99 105 OFFCURVE",
"159 110 OFFCURVE",
"194 110 CURVE SMOOTH",
"299 110 OFFCURVE",
"358 64 OFFCURVE",
"358 9 CURVE SMOOTH",
"358 -40 OFFCURVE",
"311 -70 OFFCURVE",
"237 -70 CURVE SMOOTH",
"186 -70 OFFCURVE",
"120 -55 OFFCURVE",
"64 -33 CURVE",
"27 -170 LINE",
"100 -201 OFFCURVE",
"165 -214 OFFCURVE",
"236 -214 CURVE SMOOTH"
);
}
);
width = 566;
},
{
layerId = "0B2E441B-685E-400D-9B9B-E078DEED62EF";
paths = (
{
closed = 1;
nodes = (
"394 -224 OFFCURVE",
"481 -134 OFFCURVE",
"481 -11 CURVE SMOOTH",
"481 112 OFFCURVE",
"393 189 OFFCURVE",
"245 189 CURVE SMOOTH",
"208 189 OFFCURVE",
"158 184 OFFCURVE",
"108 174 CURVE",
"120 170 LINE",
"132 463 LINE",
"449 463 LINE",
"449 480 LINE",
"114 480 LINE",
"99 155 LINE",
"145 165 OFFCURVE",
"197 171 OFFCURVE",
"238 171 CURVE SMOOTH",
"385 171 OFFCURVE",
"460 96 OFFCURVE",
"460 -13 CURVE SMOOTH",
"460 -126 OFFCURVE",
"381 -205 OFFCURVE",
"259 -205 CURVE SMOOTH",
"199 -205 OFFCURVE",
"125 -187 OFFCURVE",
"74 -157 CURVE",
"67 -174 LINE",
"122 -206 OFFCURVE",
"191 -224 OFFCURVE",
"255 -224 CURVE SMOOTH"
);
}
);
width = 551;
}
);
},
{
glyphname = six.osf;
layers = (
{
layerId = "F333AEC5-BB61-4D5E-9EDD-6124322D28F2";
paths = (
{
closed = 1;
nodes = (
"449 -10 OFFCURVE",
"541 80 OFFCURVE",
"541 213 CURVE SMOOTH",
"541 338 OFFCURVE",
"459 423 OFFCURVE",
"339 423 CURVE SMOOTH",
"239 423 OFFCURVE",
"159 364 OFFCURVE",
"113 257 CURVE",
"133 215 LINE",
"168 304 OFFCURVE",
"232 355 OFFCURVE",
"312 355 CURVE SMOOTH",
"400 355 OFFCURVE",
"460 293 OFFCURVE",
"460 199 CURVE SMOOTH",
"460 113 OFFCURVE",
"410 59 OFFCURVE",
"327 59 CURVE SMOOTH",
"216 59 OFFCURVE",
"155 157 OFFCURVE",
"155 333 CURVE SMOOTH",
"155 537 OFFCURVE",
"233 635 OFFCURVE",
"364 635 CURVE SMOOTH",
"415 635 OFFCURVE",
"471 622 OFFCURVE",
"508 599 CURVE",
"531 660 LINE",
"496 687 OFFCURVE",
"437 704 OFFCURVE",
"373 704 CURVE SMOOTH",
"185 704 OFFCURVE",
"70 567 OFFCURVE",
"70 327 CURVE SMOOTH",
"70 110 OFFCURVE",
"166 -10 OFFCURVE",
"318 -10 CURVE SMOOTH"
);
}
);
userData = {
RMXScaler = {
weight = -4;
};
};
width = 603;
},
{
layerId = "51C2DFEF-3776-4D13-9284-96485B799B57";
paths = (
{
closed = 1;
nodes = (
"476 -10 OFFCURVE",
"582 87 OFFCURVE",
"582 232 CURVE SMOOTH",
"582 362 OFFCURVE",
"499 449 OFFCURVE",
"375 449 CURVE SMOOTH",
"281 449 OFFCURVE",
"209 399 OFFCURVE",
"167 314 CURVE",
"210 255 LINE",
"237 280 OFFCURVE",
"278 302 OFFCURVE",
"322 302 CURVE SMOOTH",
"373 302 OFFCURVE",
"407 268 OFFCURVE",
"407 219 CURVE SMOOTH",
"407 169 OFFCURVE",
"375 137 OFFCURVE",
"330 137 CURVE SMOOTH",
"259 137 OFFCURVE",
"220 210 OFFCURVE",
"220 338 CURVE SMOOTH",
"220 491 OFFCURVE",
"271 557 OFFCURVE",
"385 557 CURVE SMOOTH",
"433 557 OFFCURVE",
"481 546 OFFCURVE",
"525 524 CURVE",
"571 663 LINE",
"514 690 OFFCURVE",
"449 704 OFFCURVE",
"379 704 CURVE SMOOTH",
"157 704 OFFCURVE",
"40 573 OFFCURVE",
"40 322 CURVE SMOOTH",
"40 110 OFFCURVE",
"141 -10 OFFCURVE",
"318 -10 CURVE SMOOTH"
);
}
);
userData = {
RMXScaler = {
weight = -1;
};
};
width = 619;
},
{
layerId = "0B2E441B-685E-400D-9B9B-E078DEED62EF";
paths = (
{
closed = 1;
nodes = (
"439 -10 OFFCURVE",
"521 77 OFFCURVE",
"521 206 CURVE SMOOTH",
"521 333 OFFCURVE",
"441 410 OFFCURVE",
"322 410 CURVE SMOOTH",
"225 410 OFFCURVE",
"149 361 OFFCURVE",
"103 270 CURVE",
"103 239 LINE",
"147 337 OFFCURVE",
"224 392 OFFCURVE",
"320 392 CURVE SMOOTH",
"426 392 OFFCURVE",
"500 322 OFFCURVE",
"500 203 CURVE SMOOTH",
"500 86 OFFCURVE",
"428 8 OFFCURVE",
"320 8 CURVE SMOOTH",
"188 8 OFFCURVE",
"112 125 OFFCURVE",
"112 322 CURVE SMOOTH",
"112 560 OFFCURVE",
"199 686 OFFCURVE",
"363 686 CURVE SMOOTH",
"414 686 OFFCURVE",
"464 673 OFFCURVE",
"502 650 CURVE",
"509 667 LINE",
"468 691 OFFCURVE",
"419 704 OFFCURVE",
"365 704 CURVE SMOOTH",
"186 704 OFFCURVE",
"91 570 OFFCURVE",
"91 319 CURVE SMOOTH",
"91 113 OFFCURVE",
"175 -10 OFFCURVE",
"319 -10 CURVE SMOOTH"
);
}
);
width = 600;
}
);
userData = {
RMXScaler = {
source = six;
};
};
},
{
glyphname = seven.osf;
layers = (
{
layerId = "F333AEC5-BB61-4D5E-9EDD-6124322D28F2";
paths = (
{
closed = 1;
nodes = (
"221 -217 LINE",
"491 447 LINE",
"491 482 LINE",
"46 482 LINE",
"46 406 LINE",
"426 406 LINE",
"410 445 LINE",
"139 -217 LINE"
);
}
);
width = 539;
},
{
layerId = "51C2DFEF-3776-4D13-9284-96485B799B57";
paths = (
{
closed = 1;
nodes = (
"260 -204 LINE",
"542 397 LINE",
"542 490 LINE",
"27 490 LINE",
"27 351 LINE",
"388 351 LINE",
"362 383 LINE",
"78 -204 LINE"
);
}
);
width = 569;
},
{
layerId = "0B2E441B-685E-400D-9B9B-E078DEED62EF";
paths = (
{
closed = 1;
nodes = (
"190 -214 LINE",
"485 468 LINE",
"485 480 LINE",
"58 480 LINE",
"58 463 LINE",
"468 463 LINE",
"466 471 LINE",
"168 -214 LINE"
);
}
);
width = 550;
}
);
},
{
glyphname = eight.osf;
layers = (
{
layerId = "F333AEC5-BB61-4D5E-9EDD-6124322D28F2";
paths = (
{
closed = 1;
nodes = (
"438 -10 OFFCURVE",
"531 64 OFFCURVE",
"531 175 CURVE SMOOTH",
"531 402 OFFCURVE",
"163 359 OFFCURVE",
"163 533 CURVE SMOOTH",
"163 595 OFFCURVE",
"213 637 OFFCURVE",
"288 637 CURVE SMOOTH",
"372 637 OFFCURVE",
"428 591 OFFCURVE",
"428 523 CURVE SMOOTH",
"428 457 OFFCURVE",
"374 402 OFFCURVE",
"292 387 CURVE",
"355 356 LINE",
"443 382 OFFCURVE",
"502 454 OFFCURVE",
"502 536 CURVE SMOOTH",
"502 637 OFFCURVE",
"420 704 OFFCURVE",
"298 704 CURVE SMOOTH",
"170 704 OFFCURVE",
"85 631 OFFCURVE",
"85 521 CURVE SMOOTH",
"85 288 OFFCURVE",
"451 346 OFFCURVE",
"451 168 CURVE SMOOTH",
"451 103 OFFCURVE",
"395 60 OFFCURVE",
"310 60 CURVE SMOOTH",
"210 60 OFFCURVE",
"144 110 OFFCURVE",
"144 186 CURVE SMOOTH",
"144 259 OFFCURVE",
"205 316 OFFCURVE",
"296 328 CURVE",
"242 361 LINE",
"135 347 OFFCURVE",
"64 272 OFFCURVE",
"64 175 CURVE SMOOTH",
"64 64 OFFCURVE",
"158 -10 OFFCURVE",
"298 -10 CURVE SMOOTH"
);
}
);
width = 592;
},
{
layerId = "51C2DFEF-3776-4D13-9284-96485B799B57";
paths = (
{
closed = 1;
nodes = (
"470 -10 OFFCURVE",
"582 77 OFFCURVE",
"582 205 CURVE SMOOTH",
"582 430 OFFCURVE",
"233 385 OFFCURVE",
"233 501 CURVE SMOOTH",
"233 536 OFFCURVE",
"263 560 OFFCURVE",
"309 560 CURVE SMOOTH",
"354 560 OFFCURVE",
"384 535 OFFCURVE",
"384 497 CURVE SMOOTH",
"384 457 OFFCURVE",
"352 425 OFFCURVE",
"303 419 CURVE",
"420 359 LINE",
"511 394 OFFCURVE",
"560 455 OFFCURVE",
"560 527 CURVE SMOOTH",
"560 630 OFFCURVE",
"459 704 OFFCURVE",
"315 704 CURVE SMOOTH",
"160 704 OFFCURVE",
"57 619 OFFCURVE",
"57 492 CURVE SMOOTH",
"57 260 OFFCURVE",
"406 306 OFFCURVE",
"406 197 CURVE SMOOTH",
"406 159 OFFCURVE",
"370 134 OFFCURVE",
"315 134 CURVE SMOOTH",
"255 134 OFFCURVE",
"215 165 OFFCURVE",
"215 212 CURVE SMOOTH",
"215 259 OFFCURVE",
"253 292 OFFCURVE",
"311 294 CURVE",
"212 357 LINE",
"105 337 OFFCURVE",
"39 272 OFFCURVE",
"39 185 CURVE SMOOTH",
"39 71 OFFCURVE",
"150 -10 OFFCURVE",
"307 -10 CURVE SMOOTH"
);
}
);
width = 618;
},
{
layerId = "0B2E441B-685E-400D-9B9B-E078DEED62EF";
paths = (
{
closed = 1;
nodes = (
"426 -10 OFFCURVE",
"511 57 OFFCURVE",
"511 163 CURVE SMOOTH",
"511 389 OFFCURVE",
"125 324 OFFCURVE",
"125 540 CURVE SMOOTH",
"125 629 OFFCURVE",
"191 687 OFFCURVE",
"286 687 CURVE SMOOTH",
"382 687 OFFCURVE",
"455 628 OFFCURVE",
"455 543 CURVE SMOOTH",
"455 460 OFFCURVE",
"385 397 OFFCURVE",
"279 369 CURVE",
"295 358 LINE",
"405 385 OFFCURVE",
"474 454 OFFCURVE",
"474 543 CURVE SMOOTH",
"474 639 OFFCURVE",
"395 704 OFFCURVE",
"288 704 CURVE SMOOTH",
"181 704 OFFCURVE",
"106 639 OFFCURVE",
"106 538 CURVE SMOOTH",
"106 307 OFFCURVE",
"491 372 OFFCURVE",
"491 161 CURVE SMOOTH",
"491 67 OFFCURVE",
"416 7 OFFCURVE",
"301 7 CURVE SMOOTH",
"183 7 OFFCURVE",
"102 71 OFFCURVE",
"102 166 CURVE SMOOTH",
"102 254 OFFCURVE",
"172 325 OFFCURVE",
"279 352 CURVE",
"263 363 LINE",
"154 338 OFFCURVE",
"82 260 OFFCURVE",
"82 164 CURVE SMOOTH",
"82 60 OFFCURVE",
"169 -10 OFFCURVE",
"299 -10 CURVE SMOOTH"
);
}
);
width = 590;
}
);
},
{
glyphname = fraction;
layers = (
{
layerId = "F333AEC5-BB61-4D5E-9EDD-6124322D28F2";
paths = (
{
closed = 1;
nodes = (
"11 0 LINE",
"393 694 LINE",
"310 694 LINE",
"-66 0 LINE"
);
}
);
width = 324;
},
{
layerId = "51C2DFEF-3776-4D13-9284-96485B799B57";
paths = (
{
closed = 1;
nodes = (
"184 0 LINE",
"581 694 LINE",
"411 694 LINE",
"31 0 LINE"
);
}
);
width = 600;
},
{
layerId = "0B2E441B-685E-400D-9B9B-E078DEED62EF";
paths = (
{
closed = 1;
nodes = (
"-54 0 LINE",
"332 694 LINE",
"309 694 LINE",
"-70 0 LINE"
);
}
);
width = 260;
}
);
unicode = 2044;
},
{
glyphname = asterisk;
layers = (
{
layerId = "F333AEC5-BB61-4D5E-9EDD-6124322D28F2";
paths = (
{
closed = 1;
nodes = (
"429 566 LINE",
"392 627 LINE",
"225 506 LINE",
"246 471 LINE"
);
},
{
closed = 1;
nodes = (
"247 469 LINE",
"227 503 LINE",
"43 408 LINE",
"80 348 LINE"
);
},
{
closed = 1;
nodes = (
"271 282 LINE",
"257 488 LINE",
"217 488 LINE",
"200 282 LINE"
);
},
{
closed = 1;
nodes = (
"248 505 LINE",
"82 628 LINE",
"45 568 LINE",
"227 471 LINE"
);
},
{
closed = 1;
nodes = (
"429 406 LINE",
"247 503 LINE",
"226 468 LINE",
"392 346 LINE"
);
},
{
closed = 1;
nodes = (
"257 488 LINE",
"271 694 LINE",
"200 694 LINE",
"217 488 LINE"
);
}
);
width = 473;
},
{
layerId = "51C2DFEF-3776-4D13-9284-96485B799B57";
paths = (
{
closed = 1;
nodes = (
"465 526 LINE",
"400 643 LINE",
"228 511 LINE",
"252 467 LINE"
);
},
{
closed = 1;
nodes = (
"254 464 LINE",
"229 507 LINE",
"22 441 LINE",
"86 323 LINE"
);
},
{
closed = 1;
nodes = (
"315 272 LINE",
"267 488 LINE",
"217 488 LINE",
"166 272 LINE"
);
},
{
closed = 1;
nodes = (
"255 510 LINE",
"88 651 LINE",
"23 535 LINE",
"230 467 LINE"
);
},
{
closed = 1;
nodes = (
"460 437 LINE",
"255 507 LINE",
"228 463 LINE",
"394 320 LINE"
);
},
{
closed = 1;
nodes = (
"267 488 LINE",
"315 704 LINE",
"166 704 LINE",
"217 488 LINE"
);
}
);
width = 485;
},
{
layerId = "0B2E441B-685E-400D-9B9B-E078DEED62EF";
paths = (
{
closed = 1;
nodes = (
"416 585 LINE",
"404 603 LINE",
"233 497 LINE",
"239 488 LINE"
);
},
{
closed = 1;
nodes = (
"239 487 LINE",
"233 497 LINE",
"57 390 LINE",
"69 372 LINE"
);
},
{
closed = 1;
nodes = (
"244 283 LINE",
"241 487 LINE",
"227 487 LINE",
"223 283 LINE"
);
},
{
closed = 1;
nodes = (
"237 494 LINE",
"70 608 LINE",
"58 590 LINE",
"232 484 LINE"
);
},
{
closed = 1;
nodes = (
"418 387 LINE",
"239 494 LINE",
"232 484 LINE",
"406 369 LINE"
);
},
{
closed = 1;
nodes = (
"241 487 LINE",
"244 694 LINE",
"223 694 LINE",
"227 487 LINE"
);
}
);
width = 475;
}
);
unicode = 002A;
},
{
glyphname = comma;
layers = (
{
layerId = "F333AEC5-BB61-4D5E-9EDD-6124322D28F2";
paths = (
{
closed = 1;
nodes = (
"121 -148 LINE",
"163 -54 OFFCURVE",
"185 32 OFFCURVE",
"185 103 CURVE",
"102 103 LINE",
"102 42 OFFCURVE",
"89 -51 OFFCURVE",
"58 -148 CURVE"
);
}
);
width = 247;
},
{
layerId = "51C2DFEF-3776-4D13-9284-96485B799B57";
paths = (
{
closed = 1;
nodes = (
"168 -148 LINE",
"208 -60 OFFCURVE",
"232 37 OFFCURVE",
"232 113 CURVE",
"79 113 LINE",
"79 52 OFFCURVE",
"66 -51 OFFCURVE",
"35 -148 CURVE"
);
}
);
width = 271;
},
{
layerId = "0B2E441B-685E-400D-9B9B-E078DEED62EF";
paths = (
{
closed = 1;
nodes = (
"93 -130 LINE",
"125 -59 OFFCURVE",
"141 21 OFFCURVE",
"141 103 CURVE",
"118 103 LINE",
"118 25 OFFCURVE",
"102 -62 OFFCURVE",
"74 -130 CURVE"
);
}
);
width = 227;
}
);
unicode = 002C;
},
{
glyphname = numbersign;
layers = (
{
layerId = "F333AEC5-BB61-4D5E-9EDD-6124322D28F2";
paths = (
{
closed = 1;
nodes = (
"512 0 LINE",
"512 694 LINE",
"436 694 LINE",
"436 0 LINE"
);
},
{
closed = 1;
nodes = (
"642 178 LINE",
"642 248 LINE",
"41 248 LINE",
"41 178 LINE"
);
},
{
closed = 1;
nodes = (
"250 0 LINE",
"250 694 LINE",
"174 694 LINE",
"174 0 LINE"
);
},
{
closed = 1;
nodes = (
"642 448 LINE",
"642 518 LINE",
"41 518 LINE",
"41 448 LINE"
);
}
);
width = 683;
},
{
layerId = "51C2DFEF-3776-4D13-9284-96485B799B57";
paths = (
{
closed = 1;
nodes = (
"628 0 LINE",
"628 694 LINE",
"455 694 LINE",
"455 0 LINE"
);
},
{
closed = 1;
nodes = (
"738 147 LINE",
"738 280 LINE",
"32 280 LINE",
"32 147 LINE"
);
},
{
closed = 1;
nodes = (
"318 0 LINE",
"318 694 LINE",
"145 694 LINE",
"145 0 LINE"
);
},
{
closed = 1;
nodes = (
"738 417 LINE",
"738 550 LINE",
"32 550 LINE",
"32 417 LINE"
);
}
);
width = 770;
},
{
layerId = "0B2E441B-685E-400D-9B9B-E078DEED62EF";
paths = (
{
closed = 1;
nodes = (
"451 0 LINE",
"451 694 LINE",
"431 694 LINE",
"431 0 LINE"
);
},
{
closed = 1;
nodes = (
"593 206 LINE",
"593 222 LINE",
"47 222 LINE",
"47 206 LINE"
);
},
{
closed = 1;
nodes = (
"212 0 LINE",
"212 694 LINE",
"192 694 LINE",
"192 0 LINE"
);
},
{
closed = 1;
nodes = (
"593 476 LINE",
"593 492 LINE",
"47 492 LINE",
"47 476 LINE"
);
}
);
width = 640;
}
);
unicode = 0023;
},
{
glyphname = period;
layers = (
{
layerId = "F333AEC5-BB61-4D5E-9EDD-6124322D28F2";
paths = (
{
closed = 1;
nodes = (
"175 -10 OFFCURVE",
"201 17 OFFCURVE",
"201 54 CURVE SMOOTH",
"201 91 OFFCURVE",
"175 118 OFFCURVE",
"137 118 CURVE SMOOTH",
"99 118 OFFCURVE",
"73 91 OFFCURVE",
"73 54 CURVE SMOOTH",
"73 17 OFFCURVE",
"99 -10 OFFCURVE",
"137 -10 CURVE SMOOTH"
);
}
);
width = 274;
},
{
layerId = "51C2DFEF-3776-4D13-9284-96485B799B57";
paths = (
{
closed = 1;
nodes = (
"213 -10 OFFCURVE",
"255 36 OFFCURVE",
"255 96 CURVE SMOOTH",
"255 160 OFFCURVE",
"213 206 OFFCURVE",
"149 206 CURVE SMOOTH",
"85 206 OFFCURVE",
"43 160 OFFCURVE",
"43 96 CURVE SMOOTH",
"43 36 OFFCURVE",
"85 -10 OFFCURVE",
"149 -10 CURVE SMOOTH"
);
}
);
width = 298;
},
{
layerId = "0B2E441B-685E-400D-9B9B-E078DEED62EF";
paths = (
{
closed = 1;
nodes = (
"135 -10 OFFCURVE",
"144 0 OFFCURVE",
"144 13 CURVE SMOOTH",
"144 27 OFFCURVE",
"135 37 OFFCURVE",
"121 37 CURVE SMOOTH",
"107 37 OFFCURVE",
"98 27 OFFCURVE",
"98 13 CURVE SMOOTH",
"98 0 OFFCURVE",
"107 -10 OFFCURVE",
"121 -10 CURVE SMOOTH"
);
}
);
width = 242;
}
);
unicode = 002E;
},
{
glyphname = question;
layers = (
{
components = (
{
name = period;
transform = "{1, 0, 0, 1, 79, 0}";
}
);
layerId = "F333AEC5-BB61-4D5E-9EDD-6124322D28F2";
paths = (
{
closed = 1;
nodes = (
"257 195 LINE",
"257 248 LINE SMOOTH",
"257 357 OFFCURVE",
"418 399 OFFCURVE",
"418 541 CURVE SMOOTH",
"418 639 OFFCURVE",
"340 704 OFFCURVE",
"222 704 CURVE SMOOTH",
"156 704 OFFCURVE",
"83 684 OFFCURVE",
"24 651 CURVE",
"43 590 LINE",
"97 617 OFFCURVE",
"151 631 OFFCURVE",
"201 631 CURVE SMOOTH",
"284 631 OFFCURVE",
"333 592 OFFCURVE",
"333 532 CURVE SMOOTH",
"333 427 OFFCURVE",
"181 391 OFFCURVE",
"181 248 CURVE SMOOTH",
"181 195 LINE"
);
}
);
width = 450;
},
{
components = (
{
name = period;
transform = "{1, 0, 0, 1, 81, 0}";
}
);
layerId = "51C2DFEF-3776-4D13-9284-96485B799B57";
paths = (
{
closed = 1;
nodes = (
"314 267 LINE",
"314 294 LINE SMOOTH",
"314 375 OFFCURVE",
"457 402 OFFCURVE",
"457 534 CURVE SMOOTH",
"457 640 OFFCURVE",
"366 704 OFFCURVE",
"217 704 CURVE SMOOTH",
"143 704 OFFCURVE",
"68 688 OFFCURVE",
"6 660 CURVE",
"46 527 LINE",
"88 545 OFFCURVE",
"131 554 OFFCURVE",
"174 554 CURVE SMOOTH",
"235 554 OFFCURVE",
"277 536 OFFCURVE",
"277 504 CURVE SMOOTH",
"277 446 OFFCURVE",
"139 410 OFFCURVE",
"139 294 CURVE SMOOTH",
"139 267 LINE"
);
}
);
width = 465;
},
{
components = (
{
name = period;
transform = "{1, 0, 0, 1, 84, 0}";
}
);
layerId = "0B2E441B-685E-400D-9B9B-E078DEED62EF";
paths = (
{
closed = 1;
nodes = (
"214 155 LINE",
"214 218 LINE SMOOTH",
"214 377 OFFCURVE",
"387 413 OFFCURVE",
"387 549 CURVE SMOOTH",
"387 635 OFFCURVE",
"317 704 OFFCURVE",
"214 704 CURVE SMOOTH",
"155 704 OFFCURVE",
"89 681 OFFCURVE",
"40 644 CURVE",
"45 628 LINE",
"102 665 OFFCURVE",
"159 685 OFFCURVE",
"212 685 CURVE SMOOTH",
"307 685 OFFCURVE",
"365 621 OFFCURVE",
"365 547 CURVE SMOOTH",
"365 419 OFFCURVE",
"194 386 OFFCURVE",
"194 218 CURVE SMOOTH",
"194 155 LINE"
);
}
);
width = 436;
}
);
unicode = 003F;
},
{
glyphname = quotesingle;
layers = (
{
layerId = "F333AEC5-BB61-4D5E-9EDD-6124322D28F2";
paths = (
{
closed = 1;
nodes = (
"157 462 LINE",
"167 694 LINE",
"80 694 LINE",
"90 462 LINE"
);
}
);
width = 247;
},
{
layerId = "51C2DFEF-3776-4D13-9284-96485B799B57";
paths = (
{
closed = 1;
nodes = (
"213 446 LINE",
"234 704 LINE",
"51 704 LINE",
"72 446 LINE"
);
}
);
width = 285;
},
{
layerId = "0B2E441B-685E-400D-9B9B-E078DEED62EF";
paths = (
{
closed = 1;
nodes = (
"120 472 LINE",
"124 694 LINE",
"100 694 LINE",
"104 472 LINE"
);
}
);
width = 224;
}
);
unicode = 0027;
},
{
glyphname = slash;
layers = (
{
layerId = "F333AEC5-BB61-4D5E-9EDD-6124322D28F2";
paths = (
{
closed = 1;
nodes = (
"104 -115 LINE",
"333 739 LINE",
"247 739 LINE",
"24 -115 LINE"
);
}
);
width = 357;
},
{
layerId = "51C2DFEF-3776-4D13-9284-96485B799B57";
paths = (
{
closed = 1;
nodes = (
"171 -115 LINE",
"400 739 LINE",
"220 739 LINE",
"1 -115 LINE"
);
}
);
width = 400;
},
{
layerId = "0B2E441B-685E-400D-9B9B-E078DEED62EF";
paths = (
{
closed = 1;
nodes = (
"61 -115 LINE",
"288 739 LINE",
"266 739 LINE",
"41 -115 LINE"
);
}
);
width = 330;
}
);
unicode = 002F;
},
{
glyphname = underscore;
layers = (
{
layerId = "F333AEC5-BB61-4D5E-9EDD-6124322D28F2";
paths = (
{
closed = 1;
nodes = (
"523 0 LINE",
"523 72 LINE",
"85 72 LINE",
"85 0 LINE"
);
}
);
width = 608;
},
{
layerId = "51C2DFEF-3776-4D13-9284-96485B799B57";
paths = (
{
closed = 1;
nodes = (
"520 0 LINE",
"520 135 LINE",
"62 135 LINE",
"62 0 LINE"
);
}
);
width = 582;
},
{
layerId = "0B2E441B-685E-400D-9B9B-E078DEED62EF";
paths = (
{
closed = 1;
nodes = (
"540 0 LINE",
"540 17 LINE",
"102 17 LINE",
"102 0 LINE"
);
}
);
width = 642;
}
);
unicode = 005F;
},
{
glyphname = braceleft;
layers = (
{
layerId = "F333AEC5-BB61-4D5E-9EDD-6124322D28F2";
paths = (
{
closed = 1;
nodes = (
"357 -105 LINE",
"271 -105 OFFCURVE",
"232 -81 OFFCURVE",
"232 -23 CURVE SMOOTH",
"232 113 LINE SMOOTH",
"232 205 OFFCURVE",
"191 266 OFFCURVE",
"122 277 CURVE",
"122 278 LINE",
"186 294 OFFCURVE",
"232 361 OFFCURVE",
"232 437 CURVE SMOOTH",
"232 573 LINE SMOOTH",
"232 632 OFFCURVE",
"270 657 OFFCURVE",
"357 657 CURVE",
"357 724 LINE",
"217 724 OFFCURVE",
"157 676 OFFCURVE",
"157 563 CURVE SMOOTH",
"157 427 LINE SMOOTH",
"157 368 OFFCURVE",
"108 312 OFFCURVE",
"37 291 CURVE",
"37 265 LINE",
"112 242 OFFCURVE",
"157 180 OFFCURVE",
"157 103 CURVE SMOOTH",
"157 -33 LINE SMOOTH",
"157 -128 OFFCURVE",
"217 -173 OFFCURVE",
"357 -173 CURVE"
);
}
);
width = 403;
},
{
associatedMasterId = "F333AEC5-BB61-4D5E-9EDD-6124322D28F2";
layerId = "26302E5E-336F-4C93-8632-6CFCDE496564";
name = "Aug 6 17, 20:39";
paths = (
{
closed = 1;
nodes = (
"334 -121 LINE",
"267 -108 OFFCURVE",
"222 -54 OFFCURVE",
"222 15 CURVE SMOOTH",
"222 111 LINE SMOOTH",
"222 180 OFFCURVE",
"188 245 OFFCURVE",
"136 275 CURVE",
"136 276 LINE",
"188 306 OFFCURVE",
"222 370 OFFCURVE",
"222 435 CURVE SMOOTH",
"222 536 LINE SMOOTH",
"222 604 OFFCURVE",
"267 657 OFFCURVE",
"334 669 CURVE",
"317 746 LINE",
"212 736 OFFCURVE",
"142 652 OFFCURVE",
"142 536 CURVE SMOOTH",
"142 435 LINE SMOOTH",
"142 368 OFFCURVE",
"95 311 OFFCURVE",
"22 289 CURVE",
"22 263 LINE",
"94 241 OFFCURVE",
"142 181 OFFCURVE",
"142 111 CURVE SMOOTH",
"142 15 LINE SMOOTH",
"142 -102 OFFCURVE",
"212 -186 OFFCURVE",
"317 -196 CURVE"
);
}
);
width = 363;
},
{
layerId = "51C2DFEF-3776-4D13-9284-96485B799B57";
paths = (
{
closed = 1;
nodes = (
"400 -45 LINE",
"317 -45 OFFCURVE",
"291 -21 OFFCURVE",
"291 47 CURVE SMOOTH",
"291 113 LINE SMOOTH",
"291 205 OFFCURVE",
"233 266 OFFCURVE",
"193 277 CURVE",
"193 278 LINE",
"229 294 OFFCURVE",
"291 361 OFFCURVE",
"291 437 CURVE SMOOTH",
"291 493 LINE SMOOTH",
"291 563 OFFCURVE",
"318 587 OFFCURVE",
"400 587 CURVE",
"400 724 LINE",
"186 724 OFFCURVE",
"114 677 OFFCURVE",
"114 543 CURVE SMOOTH",
"114 427 LINE SMOOTH",
"114 373 OFFCURVE",
"73 322 OFFCURVE",
"10 301 CURVE",
"10 255 LINE",
"72 233 OFFCURVE",
"114 172 OFFCURVE",
"114 103 CURVE SMOOTH",
"114 -13 LINE SMOOTH",
"114 -132 OFFCURVE",
"186 -173 OFFCURVE",
"400 -173 CURVE"
);
}
);
width = 428;
},
{
layerId = "0B2E441B-685E-400D-9B9B-E078DEED62EF";
paths = (
{
closed = 1;
nodes = (
"327 -144 LINE",
"237 -144 OFFCURVE",
"183 -100 OFFCURVE",
"183 -25 CURVE SMOOTH",
"183 111 LINE SMOOTH",
"183 190 OFFCURVE",
"141 256 OFFCURVE",
"76 277 CURVE",
"76 275 LINE",
"141 293 OFFCURVE",
"184 357 OFFCURVE",
"184 435 CURVE SMOOTH",
"184 571 LINE SMOOTH",
"184 649 OFFCURVE",
"237 695 OFFCURVE",
"327 695 CURVE",
"327 712 LINE",
"224 712 OFFCURVE",
"163 656 OFFCURVE",
"163 561 CURVE SMOOTH",
"163 425 LINE SMOOTH",
"163 358 OFFCURVE",
"122 302 OFFCURVE",
"57 285 CURVE",
"57 267 LINE",
"121 248 OFFCURVE",
"163 183 OFFCURVE",
"163 101 CURVE SMOOTH",
"163 -35 LINE SMOOTH",
"163 -114 OFFCURVE",
"224 -161 OFFCURVE",
"327 -161 CURVE"
);
}
);
width = 385;
}
);
unicode = 007B;
},
{
glyphname = bracketleft;
layers = (
{
layerId = "F333AEC5-BB61-4D5E-9EDD-6124322D28F2";
paths = (
{
closed = 1;
nodes = (
"329 -180 LINE",
"329 -112 LINE",
"177 -112 LINE",
"177 650 LINE",
"329 650 LINE",
"329 718 LINE",
"101 718 LINE",
"101 -180 LINE"
);
}
);
width = 375;
},
{
layerId = "51C2DFEF-3776-4D13-9284-96485B799B57";
paths = (
{
closed = 1;
nodes = (
"383 -180 LINE",
"383 -40 LINE",
"239 -40 LINE",
"239 578 LINE",
"383 578 LINE",
"383 718 LINE",
"74 718 LINE",
"74 -180 LINE"
);
}
);
width = 412;
},
{
layerId = "0B2E441B-685E-400D-9B9B-E078DEED62EF";
paths = (
{
closed = 1;
nodes = (
"307 -180 LINE",
"307 -163 LINE",
"142 -163 LINE",
"142 701 LINE",
"307 701 LINE",
"307 718 LINE",
"122 718 LINE",
"122 -180 LINE"
);
}
);
width = 365;
}
);
unicode = 005B;
},
{
glyphname = parenleft;
layers = (
{
layerId = "F333AEC5-BB61-4D5E-9EDD-6124322D28F2";
paths = (
{
closed = 1;
nodes = (
"263 -148 LINE",
"179 1 OFFCURVE",
"145 124 OFFCURVE",
"145 275 CURVE SMOOTH",
"145 424 OFFCURVE",
"178 542 OFFCURVE",
"261 694 CURVE",
"203 725 LINE",
"104 558 OFFCURVE",
"65 428 OFFCURVE",
"65 268 CURVE SMOOTH",
"65 106 OFFCURVE",
"105 -23 OFFCURVE",
"205 -179 CURVE"
);
}
);
width = 308;
},
{
layerId = "51C2DFEF-3776-4D13-9284-96485B799B57";
paths = (
{
closed = 1;
nodes = (
"309 -140 LINE",
"245 -40 OFFCURVE",
"204 122 OFFCURVE",
"204 265 CURVE SMOOTH",
"204 413 OFFCURVE",
"249 565 OFFCURVE",
"317 678 CURVE",
"197 740 LINE",
"100 628 OFFCURVE",
"35 434 OFFCURVE",
"35 255 CURVE SMOOTH",
"35 87 OFFCURVE",
"97 -97 OFFCURVE",
"191 -206 CURVE"
);
}
);
width = 334;
},
{
layerId = "0B2E441B-685E-400D-9B9B-E078DEED62EF";
paths = (
{
closed = 1;
nodes = (
"236 -160 LINE",
"134 10 OFFCURVE",
"109 98 OFFCURVE",
"109 271 CURVE SMOOTH",
"109 444 OFFCURVE",
"134 530 OFFCURVE",
"234 706 CURVE",
"218 714 LINE",
"122 549 OFFCURVE",
"88 436 OFFCURVE",
"88 267 CURVE SMOOTH",
"88 95 OFFCURVE",
"123 -16 OFFCURVE",
"220 -168 CURVE"
);
}
);
width = 298;
}
);
unicode = 0028;
},
{
glyphname = emdash;
layers = (
{
layerId = "F333AEC5-BB61-4D5E-9EDD-6124322D28F2";
paths = (
{
closed = 1;
nodes = (
"1085 210 LINE",
"1085 277 LINE",
"85 277 LINE",
"85 210 LINE"
);
}
);
width = 1170;
},
{
layerId = "51C2DFEF-3776-4D13-9284-96485B799B57";
paths = (
{
closed = 1;
nodes = (
"1062 176 LINE",
"1062 311 LINE",
"62 311 LINE",
"62 176 LINE"
);
}
);
width = 1124;
},
{
layerId = "0B2E441B-685E-400D-9B9B-E078DEED62EF";
paths = (
{
closed = 1;
nodes = (
"1102 230 LINE",
"1102 247 LINE",
"102 247 LINE",
"102 230 LINE"
);
}
);
width = 1204;
}
);
unicode = 2014;
},
{
glyphname = endash;
layers = (
{
layerId = "F333AEC5-BB61-4D5E-9EDD-6124322D28F2";
paths = (
{
closed = 1;
nodes = (
"585 210 LINE",
"585 277 LINE",
"85 277 LINE",
"85 210 LINE"
);
}
);
width = 670;
},
{
layerId = "51C2DFEF-3776-4D13-9284-96485B799B57";
paths = (
{
closed = 1;
nodes = (
"562 176 LINE",
"562 311 LINE",
"62 311 LINE",
"62 176 LINE"
);
}
);
width = 624;
},
{
layerId = "0B2E441B-685E-400D-9B9B-E078DEED62EF";
paths = (
{
closed = 1;
nodes = (
"602 230 LINE",
"602 247 LINE",
"102 247 LINE",
"102 230 LINE"
);
}
);
width = 704;
}
);
unicode = 2013;
},
{
glyphname = hyphen;
layers = (
{
layerId = "F333AEC5-BB61-4D5E-9EDD-6124322D28F2";
paths = (
{
closed = 1;
nodes = (
"375 210 LINE",
"375 277 LINE",
"85 277 LINE",
"85 210 LINE"
);
}
);
width = 460;
},
{
layerId = "51C2DFEF-3776-4D13-9284-96485B799B57";
paths = (
{
closed = 1;
nodes = (
"352 176 LINE",
"352 311 LINE",
"62 311 LINE",
"62 176 LINE"
);
}
);
width = 414;
},
{
layerId = "0B2E441B-685E-400D-9B9B-E078DEED62EF";
paths = (
{
closed = 1;
nodes = (
"372 230 LINE",
"372 247 LINE",
"102 247 LINE",
"102 230 LINE"
);
}
);
width = 474;
}
);
unicode = 002D;
},
{
glyphname = guilsinglleft;
layers = (
{
layerId = "F333AEC5-BB61-4D5E-9EDD-6124322D28F2";
paths = (
{
closed = 1;
nodes = (
"279 30 LINE",
"121 268 LINE",
"121 221 LINE",
"276 452 LINE",
"189 452 LINE",
"49 242 LINE",
"187 30 LINE"
);
}
);
width = 326;
},
{
layerId = "51C2DFEF-3776-4D13-9284-96485B799B57";
paths = (
{
closed = 1;
nodes = (
"335 27 LINE",
"175 268 LINE",
"175 221 LINE",
"331 453 LINE",
"161 453 LINE",
"20 242 LINE",
"160 27 LINE"
);
}
);
width = 353;
},
{
layerId = "0B2E441B-685E-400D-9B9B-E078DEED62EF";
paths = (
{
closed = 1;
nodes = (
"236 32 LINE",
"85 254 LINE",
"87 239 LINE",
"233 451 LINE",
"212 451 LINE",
"69 245 LINE",
"212 32 LINE"
);
}
);
width = 303;
}
);
unicode = 2039;
},
{
glyphname = guilsinglright;
layers = (
{
layerId = "F333AEC5-BB61-4D5E-9EDD-6124322D28F2";
paths = (
{
closed = 1;
nodes = (
"141 30 LINE",
"279 241 LINE",
"139 452 LINE",
"47 452 LINE",
"207 215 LINE",
"207 262 LINE",
"54 30 LINE"
);
}
);
width = 327;
},
{
layerId = "51C2DFEF-3776-4D13-9284-96485B799B57";
paths = (
{
closed = 1;
nodes = (
"193 27 LINE",
"334 242 LINE",
"193 453 LINE",
"18 453 LINE",
"179 214 LINE",
"179 261 LINE",
"23 27 LINE"
);
}
);
width = 354;
},
{
layerId = "0B2E441B-685E-400D-9B9B-E078DEED62EF";
paths = (
{
closed = 1;
nodes = (
"93 32 LINE",
"236 243 LINE",
"93 451 LINE",
"69 451 LINE",
"220 234 LINE",
"218 249 LINE",
"72 32 LINE"
);
}
);
width = 305;
}
);
unicode = 203A;
},
{
glyphname = colonsign;
layers = (
{
components = (
{
name = C;
transform = "{1, 0, 0, 1, 21, 0}";
}
);
layerId = "F333AEC5-BB61-4D5E-9EDD-6124322D28F2";
paths = (
{
closed = 1;
nodes = (
"539 694 LINE",
"560 814 LINE",
"500 814 LINE",
"479 694 LINE"
);
},
{
closed = 1;
nodes = (
"328 -100 LINE",
"352 26 LINE",
"292 26 LINE",
"268 -100 LINE"
);
},
{
closed = 1;
nodes = (
"429 694 LINE",
"450 814 LINE",
"390 814 LINE",
"369 694 LINE"
);
},
{
closed = 1;
nodes = (
"438 -100 LINE",
"462 26 LINE",
"402 26 LINE",
"378 -100 LINE"
);
}
);
width = 716;
},
{
components = (
{
name = C;
transform = "{1, 0, 0, 1, 13, 0}";
}
);
layerId = "51C2DFEF-3776-4D13-9284-96485B799B57";
paths = (
{
closed = 1;
nodes = (
"539 625 LINE",
"572 814 LINE",
"452 814 LINE",
"419 625 LINE"
);
},
{
closed = 1;
nodes = (
"272 -129 LINE",
"308 80 LINE",
"188 80 LINE",
"152 -129 LINE"
);
},
{
closed = 1;
nodes = (
"364 625 LINE",
"397 814 LINE",
"277 814 LINE",
"244 625 LINE"
);
},
{
closed = 1;
nodes = (
"452 -129 LINE",
"488 80 LINE",
"368 80 LINE",
"332 -129 LINE"
);
}
);
width = 684;
},
{
components = (
{
name = C;
transform = "{1, 0, 0, 1, 28, 0}";
}
);
layerId = "0B2E441B-685E-400D-9B9B-E078DEED62EF";
paths = (
{
closed = 1;
nodes = (
"525 694 LINE",
"546 814 LINE",
"530 814 LINE",
"509 694 LINE"
);
},
{
closed = 1;
nodes = (
"314 -100 LINE",
"335 11 LINE",
"319 11 LINE",
"298 -100 LINE"
);
},
{
closed = 1;
nodes = (
"415 694 LINE",
"436 814 LINE",
"420 814 LINE",
"399 694 LINE"
);
},
{
closed = 1;
nodes = (
"426 -100 LINE",
"445 3 LINE",
"429 3 LINE",
"410 -100 LINE"
);
}
);
width = 737;
}
);
unicode = 20A1;
},
{
glyphname = currency;
layers = (
{
layerId = "F333AEC5-BB61-4D5E-9EDD-6124322D28F2";
paths = (
{
closed = 1;
nodes = (
"452 131 OFFCURVE",
"534 215 OFFCURVE",
"534 342 CURVE SMOOTH",
"534 461 OFFCURVE",
"456 540 OFFCURVE",
"338 540 CURVE SMOOTH",
"214 540 OFFCURVE",
"132 456 OFFCURVE",
"132 331 CURVE SMOOTH",
"132 211 OFFCURVE",
"210 131 OFFCURVE",
"328 131 CURVE SMOOTH"
);
},
{
closed = 1;
nodes = (
"229 181 LINE",
"188 222 LINE",
"96 131 LINE",
"137 90 LINE"
);
},
{
closed = 1;
nodes = (
"569 131 LINE",
"477 221 LINE",
"437 181 LINE",
"529 90 LINE"
);
},
{
closed = 1;
nodes = (
"262 204 OFFCURVE",
"212 259 OFFCURVE",
"212 341 CURVE SMOOTH",
"212 417 OFFCURVE",
"258 467 OFFCURVE",
"328 467 CURVE SMOOTH",
"404 467 OFFCURVE",
"454 413 OFFCURVE",
"454 332 CURVE SMOOTH",
"454 255 OFFCURVE",
"408 204 OFFCURVE",
"338 204 CURVE SMOOTH"
);
},
{
closed = 1;
nodes = (
"229 488 LINE",
"137 580 LINE",
"96 539 LINE",
"187 448 LINE"
);
},
{
closed = 1;
nodes = (
"569 539 LINE",
"528 580 LINE",
"436 488 LINE",
"477 448 LINE"
);
}
);
width = 665;
},
{
layerId = "51C2DFEF-3776-4D13-9284-96485B799B57";
paths = (
{
closed = 1;
nodes = (
"520 76 OFFCURVE",
"626 183 OFFCURVE",
"626 344 CURVE SMOOTH",
"626 495 OFFCURVE",
"524 595 OFFCURVE",
"372 595 CURVE SMOOTH",
"212 595 OFFCURVE",
"106 489 OFFCURVE",
"106 330 CURVE SMOOTH",
"106 178 OFFCURVE",
"208 76 OFFCURVE",
"360 76 CURVE SMOOTH"
);
},
{
closed = 1;
nodes = (
"298 174 LINE",
"210 262 LINE",
"55 109 LINE",
"143 21 LINE"
);
},
{
closed = 1;
nodes = (
"688 106 LINE",
"525 264 LINE",
"431 170 LINE",
"593 10 LINE"
);
},
{
closed = 1;
nodes = (
"314 246 OFFCURVE",
"278 283 OFFCURVE",
"278 339 CURVE SMOOTH",
"278 391 OFFCURVE",
"312 425 OFFCURVE",
"363 425 CURVE SMOOTH",
"418 425 OFFCURVE",
"454 388 OFFCURVE",
"454 333 CURVE SMOOTH",
"454 281 OFFCURVE",
"420 246 OFFCURVE",
"369 246 CURVE SMOOTH"
);
},
{
closed = 1;
nodes = (
"308 492 LINE",
"138 662 LINE",
"41 566 LINE",
"210 398 LINE"
);
},
{
closed = 1;
nodes = (
"686 562 LINE",
"589 658 LINE",
"432 502 LINE",
"528 407 LINE"
);
}
);
width = 732;
},
{
layerId = "0B2E441B-685E-400D-9B9B-E078DEED62EF";
paths = (
{
closed = 1;
nodes = (
"437 159 OFFCURVE",
"506 231 OFFCURVE",
"506 339 CURVE SMOOTH",
"506 443 OFFCURVE",
"438 513 OFFCURVE",
"336 513 CURVE SMOOTH",
"232 513 OFFCURVE",
"163 442 OFFCURVE",
"163 335 CURVE SMOOTH",
"163 229 OFFCURVE",
"231 159 OFFCURVE",
"333 159 CURVE SMOOTH"
);
},
{
closed = 1;
nodes = (
"226 204 LINE",
"214 216 LINE",
"112 117 LINE",
"124 105 LINE"
);
},
{
closed = 1;
nodes = (
"556 117 LINE",
"452 218 LINE",
"440 206 LINE",
"544 105 LINE"
);
},
{
closed = 1;
nodes = (
"245 177 OFFCURVE",
"184 241 OFFCURVE",
"184 338 CURVE SMOOTH",
"184 432 OFFCURVE",
"244 495 OFFCURVE",
"333 495 CURVE SMOOTH",
"424 495 OFFCURVE",
"485 431 OFFCURVE",
"485 336 CURVE SMOOTH",
"485 241 OFFCURVE",
"425 177 OFFCURVE",
"336 177 CURVE SMOOTH"
);
},
{
closed = 1;
nodes = (
"222 466 LINE",
"124 566 LINE",
"112 554 LINE",
"210 454 LINE"
);
},
{
closed = 1;
nodes = (
"556 554 LINE",
"544 566 LINE",
"444 466 LINE",
"456 454 LINE"
);
}
);
width = 668;
}
);
unicode = 00A4;
},
{
glyphname = dong;
layers = (
{
components = (
{
name = dcroat;
transform = "{1, 0, 0, 1, 36, 0}";
}
);
layerId = "F333AEC5-BB61-4D5E-9EDD-6124322D28F2";
paths = (
{
closed = 1;
nodes = (
"541 -140 LINE",
"541 -80 LINE",
"119 -80 LINE",
"119 -140 LINE"
);
}
);
width = 671;
},
{
components = (
{
name = dcroat;
transform = "{1, 0, 0, 1, 24, 0}";
}
);
layerId = "51C2DFEF-3776-4D13-9284-96485B799B57";
paths = (
{
closed = 1;
nodes = (
"601 -175 LINE",
"601 -50 LINE",
"89 -50 LINE",
"89 -175 LINE"
);
}
);
width = 689;
},
{
components = (
{
name = dcroat;
transform = "{1, 0, 0, 1, 46, 0}";
}
);
layerId = "0B2E441B-685E-400D-9B9B-E078DEED62EF";
paths = (
{
closed = 1;
nodes = (
"533 -117 LINE",
"533 -100 LINE",
"151 -100 LINE",
"151 -117 LINE"
);
}
);
width = 676;
}
);
unicode = 20AB;
},
{
glyphname = euro;
layers = (
{
components = (
{
name = C;
transform = "{1, 0, 0, 1, 95, 0}";
}
);
layerId = "F333AEC5-BB61-4D5E-9EDD-6124322D28F2";
paths = (
{
closed = 1;
nodes = (
"642 394 LINE",
"642 454 LINE",
"87 454 LINE",
"87 394 LINE"
);
},
{
closed = 1;
nodes = (
"619 254 LINE",
"619 314 LINE",
"87 314 LINE",
"87 254 LINE"
);
}
);
width = 794;
},
{
components = (
{
name = C;
transform = "{1, 0, 0, 1, 89, 0}";
}
);
layerId = "51C2DFEF-3776-4D13-9284-96485B799B57";
paths = (
{
closed = 1;
nodes = (
"636 374 LINE",
"636 494 LINE",
"61 494 LINE",
"61 374 LINE"
);
},
{
closed = 1;
nodes = (
"613 204 LINE",
"613 324 LINE",
"61 324 LINE",
"61 204 LINE"
);
}
);
width = 765;
},
{
components = (
{
name = C;
transform = "{1, 0, 0, 1, 115, 0}";
}
);
layerId = "0B2E441B-685E-400D-9B9B-E078DEED62EF";
paths = (
{
closed = 1;
nodes = (
"652 416 LINE",
"652 433 LINE",
"107 433 LINE",
"107 416 LINE"
);
},
{
closed = 1;
nodes = (
"629 276 LINE",
"629 293 LINE",
"107 293 LINE",
"107 276 LINE"
);
}
);
width = 826;
}
);
unicode = 20AC;
},
{
glyphname = guarani;
layers = (
{
associatedMasterId = "F333AEC5-BB61-4D5E-9EDD-6124322D28F2";
layerId = "1866C078-74D9-4E80-B9A0-67CF6B4C8CA4";
name = "Aug 16 17, 22:17";
paths = (
{
closed = 1;
nodes = (
"434 -9 OFFCURVE",
"495 34 OFFCURVE",
"541 74 CURVE",
"541 368 LINE",
"332 368 LINE",
"332 296 LINE",
"464 296 LINE",
"464 102 LINE",
"433 81 OFFCURVE",
"401 64 OFFCURVE",
"356 64 CURVE SMOOTH",
"240 64 OFFCURVE",
"173 177 OFFCURVE",
"173 351 CURVE SMOOTH",
"173 526 OFFCURVE",
"241 630 OFFCURVE",
"359 630 CURVE SMOOTH",
"409 630 OFFCURVE",
"465 612 OFFCURVE",
"507 585 CURVE",
"526 663 LINE",
"481 687 OFFCURVE",
"421 703 OFFCURVE",
"367 703 CURVE SMOOTH",
"209 703 OFFCURVE",
"93 564 OFFCURVE",
"93 340 CURVE SMOOTH",
"93 126 OFFCURVE",
"200 -9 OFFCURVE",
"350 -9 CURVE SMOOTH"
);
},
{
closed = 1;
nodes = (
"398 -49 LINE",
"398 58 LINE",
"322 58 LINE",
"322 -49 LINE"
);
},
{
closed = 1;
nodes = (
"398 633 LINE",
"398 739 LINE",
"323 739 LINE",
"323 633 LINE"
);
}
);
width = 646;
},
{
components = (
{
alignment = -1;
name = G;
transform = "{1, 0, 0, 1, 21, 0}";
},
{
alignment = -1;
name = _currencyvstem;
transform = "{1, 0, 0, 1, 17, -800}";
},
{
alignment = -1;
name = _currencyvstem;
transform = "{1, 0, 0, 1, 5, 0}";
}
);
layerId = "F333AEC5-BB61-4D5E-9EDD-6124322D28F2";
width = 784;
},
{
components = (
{
alignment = -1;
name = G;
transform = "{1, 0, 0, 1, 13, 0}";
},
{
alignment = -1;
name = _currencyvstem;
transform = "{1, 0, 0, 1, 219, -800}";
},
{
alignment = -1;
name = _currencyvstem;
transform = "{1, 0, 0, 1, 207, -5}";
}
);
layerId = "51C2DFEF-3776-4D13-9284-96485B799B57";
width = 754;
},
{
components = (
{
alignment = -1;
name = G;
transform = "{1, 0, 0, 1, 27, 0}";
},
{
alignment = -1;
name = _currencyvstem;
transform = "{1, 0, 0, 1, 32, -800}";
},
{
alignment = -1;
name = _currencyvstem;
transform = "{1, 0, 0, 1, 20, 0}";
}
);
layerId = "0B2E441B-685E-400D-9B9B-E078DEED62EF";
width = 804;
}
);
unicode = 20B2;
},
{
glyphname = kip;
layers = (
{
components = (
{
name = K;
transform = "{1, 0, 0, 1, 47, 0}";
}
);
layerId = "F333AEC5-BB61-4D5E-9EDD-6124322D28F2";
paths = (
{
closed = 1;
nodes = (
"609 325 LINE",
"609 385 LINE",
"77 385 LINE",
"77 325 LINE"
);
}
);
width = 735;
},
{
components = (
{
name = K;
transform = "{1, 0, 0, 1, 47, 0}";
}
);
layerId = "51C2DFEF-3776-4D13-9284-96485B799B57";
paths = (
{
closed = 1;
nodes = (
"709 290 LINE",
"709 420 LINE",
"47 420 LINE",
"47 290 LINE"
);
}
);
width = 806;
},
{
components = (
{
name = K;
transform = "{1, 0, 0, 1, 69, 0}";
}
);
layerId = "0B2E441B-685E-400D-9B9B-E078DEED62EF";
paths = (
{
closed = 1;
nodes = (
"551 347 LINE",
"551 364 LINE",
"99 364 LINE",
"99 347 LINE"
);
}
);
width = 698;
}
);
unicode = 20AD;
},
{
glyphname = liraTurkish;
layers = (
{
layerId = "F333AEC5-BB61-4D5E-9EDD-6124322D28F2";
paths = (
{
closed = 1;
nodes = (
"441 0 OFFCURVE",
"577 132 OFFCURVE",
"577 330 CURVE",
"497 330 LINE",
"497 174 OFFCURVE",
"397 70 OFFCURVE",
"246 70 CURVE",
"236 0 LINE"
);
},
{
closed = 1;
nodes = (
"246 0 LINE",
"246 694 LINE",
"169 694 LINE",
"169 0 LINE"
);
},
{
closed = 1;
nodes = (
"410 571 LINE",
"382 625 LINE",
"79 446 LINE",
"105 393 LINE"
);
},
{
closed = 1;
nodes = (
"410 421 LINE",
"382 475 LINE",
"94 305 LINE",
"120 252 LINE"
);
}
);
width = 658;
},
{
layerId = "51C2DFEF-3776-4D13-9284-96485B799B57";
paths = (
{
closed = 1;
nodes = (
"529 0 OFFCURVE",
"667 138 OFFCURVE",
"667 345 CURVE",
"510 345 LINE",
"510 222 OFFCURVE",
"436 140 OFFCURVE",
"325 140 CURVE",
"322 0 LINE"
);
},
{
closed = 1;
nodes = (
"325 0 LINE",
"325 707 LINE",
"159 707 LINE",
"159 0 LINE"
);
},
{
closed = 1;
nodes = (
"498 571 LINE",
"449 661 LINE",
"39 441 LINE",
"87 351 LINE"
);
},
{
closed = 1;
nodes = (
"498 400 LINE",
"449 490 LINE",
"70 287 LINE",
"119 197 LINE"
);
}
);
width = 711;
},
{
layerId = "0B2E441B-685E-400D-9B9B-E078DEED62EF";
paths = (
{
closed = 1;
nodes = (
"396 0 OFFCURVE",
"540 132 OFFCURVE",
"540 330 CURVE",
"520 330 LINE",
"520 144 OFFCURVE",
"388 20 OFFCURVE",
"219 20 CURVE",
"209 0 LINE"
);
},
{
closed = 1;
nodes = (
"220 0 LINE",
"220 694 LINE",
"200 694 LINE",
"200 0 LINE"
);
},
{
closed = 1;
nodes = (
"369 580 LINE",
"360 595 LINE",
"105 443 LINE",
"112 429 LINE"
);
},
{
closed = 1;
nodes = (
"369 430 LINE",
"360 445 LINE",
"117 301 LINE",
"124 287 LINE"
);
}
);
width = 649;
}
);
unicode = 20BA;
},
{
glyphname = manat;
layers = (
{
layerId = "F333AEC5-BB61-4D5E-9EDD-6124322D28F2";
paths = (
{
closed = 1;
nodes = (
"179 0 LINE",
"179 228 LINE SMOOTH",
"179 406 OFFCURVE",
"252 525 OFFCURVE",
"361 525 CURVE SMOOTH",
"476 525 OFFCURVE",
"553 402 OFFCURVE",
"553 218 CURVE SMOOTH",
"553 0 LINE",
"627 0 LINE",
"627 228 LINE SMOOTH",
"627 448 OFFCURVE",
"525 595 OFFCURVE",
"371 595 CURVE SMOOTH",
"211 595 OFFCURVE",
"105 444 OFFCURVE",
"105 218 CURVE SMOOTH",
"105 0 LINE"
);
},
{
closed = 1;
nodes = (
"404 100 LINE",
"404 694 LINE",
"330 694 LINE",
"330 100 LINE"
);
}
);
width = 733;
},
{
layerId = "51C2DFEF-3776-4D13-9284-96485B799B57";
paths = (
{
closed = 1;
nodes = (
"237 0 LINE",
"237 228 LINE SMOOTH",
"237 366 OFFCURVE",
"292 458 OFFCURVE",
"377 458 CURVE SMOOTH",
"464 458 OFFCURVE",
"525 362 OFFCURVE",
"525 218 CURVE SMOOTH",
"525 0 LINE",
"695 0 LINE",
"695 228 LINE SMOOTH",
"695 452 OFFCURVE",
"572 602 OFFCURVE",
"385 602 CURVE SMOOTH",
"196 602 OFFCURVE",
"67 448 OFFCURVE",
"67 218 CURVE SMOOTH",
"67 0 LINE"
);
},
{
closed = 1;
nodes = (
"447 100 LINE",
"447 694 LINE",
"317 694 LINE",
"317 100 LINE"
);
}
);
width = 763;
},
{
layerId = "0B2E441B-685E-400D-9B9B-E078DEED62EF";
paths = (
{
closed = 1;
nodes = (
"154 0 LINE",
"154 225 LINE SMOOTH",
"154 421 OFFCURVE",
"238 551 OFFCURVE",
"363 551 CURVE SMOOTH",
"491 551 OFFCURVE",
"576 419 OFFCURVE",
"576 222 CURVE SMOOTH",
"576 0 LINE",
"596 0 LINE",
"596 225 LINE SMOOTH",
"596 431 OFFCURVE",
"504 569 OFFCURVE",
"366 569 CURVE SMOOTH",
"226 569 OFFCURVE",
"133 430 OFFCURVE",
"133 222 CURVE SMOOTH",
"133 0 LINE"
);
},
{
closed = 1;
nodes = (
"375 100 LINE",
"375 694 LINE",
"356 694 LINE",
"356 100 LINE"
);
}
);
width = 729;
}
);
unicode = 20BC;
},
{
glyphname = naira;
layers = (
{
components = (
{
name = N;
transform = "{1, 0, 0, 1, 67, 0}";
}
);
layerId = "F333AEC5-BB61-4D5E-9EDD-6124322D28F2";
paths = (
{
closed = 1;
nodes = (
"699 384 LINE",
"834 384 LINE",
"834 444 LINE",
"699 444 LINE"
);
},
{
closed = 1;
nodes = (
"699 254 LINE",
"834 254 LINE",
"834 314 LINE",
"699 314 LINE"
);
},
{
closed = 1;
nodes = (
"224 314 LINE",
"88 314 LINE",
"88 254 LINE",
"224 254 LINE"
);
},
{
closed = 1;
nodes = (
"224 444 LINE",
"88 444 LINE",
"88 384 LINE",
"224 384 LINE"
);
}
);
width = 922;
},
{
components = (
{
name = N;
transform = "{1, 0, 0, 1, 85, 0}";
}
);
layerId = "51C2DFEF-3776-4D13-9284-96485B799B57";
paths = (
{
closed = 1;
nodes = (
"777 384 LINE",
"912 384 LINE",
"912 514 LINE",
"777 514 LINE"
);
},
{
closed = 1;
nodes = (
"777 184 LINE",
"912 184 LINE",
"912 314 LINE",
"777 314 LINE"
);
},
{
closed = 1;
nodes = (
"201 314 LINE",
"65 314 LINE",
"65 184 LINE",
"201 184 LINE"
);
},
{
closed = 1;
nodes = (
"201 514 LINE",
"65 514 LINE",
"65 384 LINE",
"201 384 LINE"
);
}
);
width = 977;
},
{
components = (
{
name = N;
transform = "{1, 0, 0, 1, 62, 0}";
}
);
layerId = "0B2E441B-685E-400D-9B9B-E078DEED62EF";
paths = (
{
closed = 1;
nodes = (
"676 406 LINE",
"771 406 LINE",
"771 423 LINE",
"676 423 LINE"
);
},
{
closed = 1;
nodes = (
"676 276 LINE",
"771 276 LINE",
"771 293 LINE",
"676 293 LINE"
);
},
{
closed = 1;
nodes = (
"204 293 LINE",
"108 293 LINE",
"108 276 LINE",
"204 276 LINE"
);
},
{
closed = 1;
nodes = (
"204 423 LINE",
"108 423 LINE",
"108 406 LINE",
"204 406 LINE"
);
}
);
width = 879;
}
);
unicode = 20A6;
},
{
glyphname = peseta;
layers = (
{
components = (
{
name = P;
transform = "{1, 0, 0, 1, 60, 0}";
}
);
layerId = "F333AEC5-BB61-4D5E-9EDD-6124322D28F2";
paths = (
{
closed = 1;
nodes = (
"587 434 LINE",
"718 434 LINE",
"718 494 LINE",
"587 494 LINE"
);
},
{
closed = 1;
nodes = (
"207 494 LINE",
"76 494 LINE",
"76 434 LINE",
"207 434 LINE"
);
}
);
width = 794;
},
{
components = (
{
name = P;
transform = "{1, 0, 0, 1, 60, 0}";
}
);
layerId = "51C2DFEF-3776-4D13-9284-96485B799B57";
paths = (
{
closed = 1;
nodes = (
"628 372 LINE",
"758 372 LINE",
"758 507 LINE",
"628 507 LINE"
);
},
{
closed = 1;
nodes = (
"177 507 LINE",
"47 507 LINE",
"47 372 LINE",
"177 372 LINE"
);
}
);
width = 805;
},
{
components = (
{
name = P;
transform = "{1, 0, 0, 1, 57, 0}";
}
);
layerId = "0B2E441B-685E-400D-9B9B-E078DEED62EF";
paths = (
{
closed = 1;
nodes = (
"565 456 LINE",
"670 456 LINE",
"670 473 LINE",
"565 473 LINE"
);
},
{
closed = 1;
nodes = (
"204 473 LINE",
"99 473 LINE",
"99 456 LINE",
"204 456 LINE"
);
}
);
width = 769;
}
);
unicode = 20A7;
},
{
glyphname = peso;
layers = (
{
components = (
{
name = P;
transform = "{1, 0, 0, 1, 72, 0}";
}
);
layerId = "F333AEC5-BB61-4D5E-9EDD-6124322D28F2";
paths = (
{
closed = 1;
nodes = (
"599 504 LINE",
"720 504 LINE",
"720 564 LINE",
"599 564 LINE"
);
},
{
closed = 1;
nodes = (
"219 564 LINE",
"88 564 LINE",
"88 504 LINE",
"219 504 LINE"
);
},
{
closed = 1;
nodes = (
"599 364 LINE",
"720 364 LINE",
"720 424 LINE",
"599 424 LINE"
);
},
{
closed = 1;
nodes = (
"219 424 LINE",
"88 424 LINE",
"88 364 LINE",
"219 364 LINE"
);
}
);
width = 808;
},
{
components = (
{
name = P;
transform = "{1, 0, 0, 1, 75, 0}";
}
);
layerId = "51C2DFEF-3776-4D13-9284-96485B799B57";
paths = (
{
closed = 1;
nodes = (
"628 460 LINE",
"758 460 LINE",
"758 580 LINE",
"628 580 LINE"
);
},
{
closed = 1;
nodes = (
"192 580 LINE",
"62 580 LINE",
"62 460 LINE",
"192 460 LINE"
);
},
{
closed = 1;
nodes = (
"628 300 LINE",
"758 300 LINE",
"758 420 LINE",
"628 420 LINE"
);
},
{
closed = 1;
nodes = (
"192 420 LINE",
"62 420 LINE",
"62 300 LINE",
"192 300 LINE"
);
}
);
width = 820;
},
{
components = (
{
name = P;
transform = "{1, 0, 0, 1, 66, 0}";
}
);
layerId = "0B2E441B-685E-400D-9B9B-E078DEED62EF";
paths = (
{
closed = 1;
nodes = (
"574 526 LINE",
"669 526 LINE",
"669 543 LINE",
"574 543 LINE"
);
},
{
closed = 1;
nodes = (
"213 543 LINE",
"108 543 LINE",
"108 526 LINE",
"213 526 LINE"
);
},
{
closed = 1;
nodes = (
"574 387 LINE",
"669 387 LINE",
"669 404 LINE",
"574 404 LINE"
);
},
{
closed = 1;
nodes = (
"213 404 LINE",
"108 404 LINE",
"108 387 LINE",
"213 387 LINE"
);
}
);
width = 777;
}
);
unicode = 20B1;
},
{
glyphname = ruble;
layers = (
{
layerId = "F333AEC5-BB61-4D5E-9EDD-6124322D28F2";
paths = (
{
closed = 1;
nodes = (
"278 0 LINE",
"278 694 LINE",
"195 694 LINE",
"195 0 LINE"
);
},
{
closed = 1;
nodes = (
"401 242 LINE SMOOTH",
"560 242 OFFCURVE",
"655 337 OFFCURVE",
"655 468 CURVE SMOOTH",
"655 602 OFFCURVE",
"556 694 OFFCURVE",
"411 694 CURVE SMOOTH",
"248 694 LINE",
"248 622 LINE",
"401 622 LINE SMOOTH",
"506 622 OFFCURVE",
"570 558 OFFCURVE",
"570 458 CURVE SMOOTH",
"570 365 OFFCURVE",
"515 314 OFFCURVE",
"411 314 CURVE SMOOTH",
"89 314 LINE",
"89 242 LINE"
);
},
{
closed = 1;
nodes = (
"442 105 LINE",
"442 165 LINE",
"89 165 LINE",
"89 105 LINE"
);
}
);
width = 742;
},
{
layerId = "51C2DFEF-3776-4D13-9284-96485B799B57";
paths = (
{
closed = 1;
nodes = (
"356 0 LINE",
"356 694 LINE",
"183 694 LINE",
"183 0 LINE"
);
},
{
closed = 1;
nodes = (
"420 185 LINE SMOOTH",
"611 185 OFFCURVE",
"725 284 OFFCURVE",
"725 449 CURVE SMOOTH",
"725 608 OFFCURVE",
"620 694 OFFCURVE",
"426 694 CURVE SMOOTH",
"292 694 LINE",
"292 542 LINE",
"420 542 LINE SMOOTH",
"502 542 OFFCURVE",
"545 507 OFFCURVE",
"545 439 CURVE SMOOTH",
"545 373 OFFCURVE",
"503 337 OFFCURVE",
"426 337 CURVE SMOOTH",
"62 337 LINE",
"62 185 LINE"
);
},
{
closed = 1;
nodes = (
"506 51 LINE",
"506 151 LINE",
"62 151 LINE",
"62 51 LINE"
);
}
);
width = 778;
},
{
layerId = "0B2E441B-685E-400D-9B9B-E078DEED62EF";
paths = (
{
closed = 1;
nodes = (
"220 0 LINE",
"220 694 LINE",
"199 694 LINE",
"199 0 LINE"
);
},
{
closed = 1;
nodes = (
"345 263 LINE SMOOTH",
"513 263 OFFCURVE",
"601 343 OFFCURVE",
"601 480 CURVE SMOOTH",
"601 615 OFFCURVE",
"516 694 OFFCURVE",
"350 694 CURVE SMOOTH",
"214 694 LINE",
"214 676 LINE",
"345 676 LINE SMOOTH",
"501 676 OFFCURVE",
"579 602 OFFCURVE",
"579 477 CURVE SMOOTH",
"579 353 OFFCURVE",
"503 281 OFFCURVE",
"350 281 CURVE SMOOTH",
"108 281 LINE",
"108 263 LINE"
);
},
{
closed = 1;
nodes = (
"404 127 LINE",
"404 144 LINE",
"108 144 LINE",
"108 127 LINE"
);
}
);
width = 716;
}
);
unicode = 20BD;
},
